<svg width="468" height="280" viewBox="0 0 468 280" fill="none" xmlns="http://www.w3.org/2000/svg">
<rect x="0.5" y="0.5" width="467" height="279" rx="14.5" fill="#161616" stroke="#FCA628"/>
<path d="M141.433 84.249H138.521V88.001H133.117V84.249H122.757V80.637L131.549 68.401H137.289L129.309 79.853H133.285V76.521H138.521V79.853H141.433V84.249ZM146.101 88.253C145.205 88.253 144.449 87.9543 143.833 87.357C143.217 86.7596 142.909 86.0036 142.909 85.089C142.909 84.1556 143.208 83.3996 143.805 82.821C144.421 82.2423 145.187 81.953 146.101 81.953C147.035 81.953 147.8 82.2423 148.397 82.821C148.995 83.3996 149.293 84.1556 149.293 85.089C149.293 86.0036 148.985 86.7596 148.369 87.357C147.772 87.9543 147.016 88.253 146.101 88.253Z" fill="#FCA628"/>
<path d="M178.839 68.401V88.001H174.275L165.623 77.557V88.001H160.191V68.401H164.755L173.407 78.845V68.401H178.839ZM195.882 84.193H187.594L186.054 88.001H180.398L189.05 68.401H194.51L203.19 88.001H197.422L195.882 84.193ZM194.258 80.105L191.738 73.833L189.218 80.105H194.258ZM193.978 67.001C193.474 67.001 193.017 66.9076 192.606 66.721C192.214 66.5156 191.775 66.245 191.29 65.909C190.935 65.6663 190.665 65.4983 190.478 65.405C190.31 65.3116 190.133 65.265 189.946 65.265C189.573 65.265 189.274 65.3956 189.05 65.657C188.826 65.9183 188.695 66.2823 188.658 66.749H186.054C186.091 65.3863 186.427 64.3036 187.062 63.501C187.697 62.6983 188.546 62.297 189.61 62.297C190.114 62.297 190.562 62.3903 190.954 62.577C191.346 62.7636 191.794 63.025 192.298 63.361C192.653 63.6036 192.914 63.7716 193.082 63.865C193.269 63.9583 193.455 64.005 193.642 64.005C194.015 64.005 194.314 63.8836 194.538 63.641C194.762 63.3796 194.893 63.0343 194.93 62.605H197.534C197.497 63.9303 197.161 64.9943 196.526 65.797C195.891 66.5996 195.042 67.001 193.978 67.001ZM214.372 88.393C212.3 88.393 210.434 87.9543 208.772 87.077C207.13 86.1996 205.832 84.9863 204.88 83.437C203.947 81.8876 203.48 80.1423 203.48 78.201C203.48 76.2596 203.947 74.5143 204.88 72.965C205.832 71.4156 207.13 70.2023 208.772 69.325C210.434 68.4476 212.3 68.009 214.372 68.009C216.444 68.009 218.302 68.4476 219.944 69.325C221.606 70.2023 222.903 71.4156 223.836 72.965C224.788 74.5143 225.264 76.2596 225.264 78.201C225.264 80.1423 224.788 81.8876 223.836 83.437C222.903 84.9863 221.606 86.1996 219.944 87.077C218.302 87.9543 216.444 88.393 214.372 88.393ZM214.372 83.801C215.362 83.801 216.258 83.5676 217.06 83.101C217.863 82.6343 218.498 81.981 218.964 81.141C219.431 80.2823 219.664 79.3023 219.664 78.201C219.664 77.0996 219.431 76.129 218.964 75.289C218.498 74.4303 217.863 73.7676 217.06 73.301C216.258 72.8343 215.362 72.601 214.372 72.601C213.383 72.601 212.487 72.8343 211.684 73.301C210.882 73.7676 210.247 74.4303 209.78 75.289C209.314 76.129 209.08 77.0996 209.08 78.201C209.08 79.3023 209.314 80.2823 209.78 81.141C210.247 81.981 210.882 82.6343 211.684 83.101C212.487 83.5676 213.383 83.801 214.372 83.801ZM246.088 88.393C244.035 88.393 242.187 87.9636 240.544 87.105C238.92 86.2276 237.642 85.0143 236.708 83.465C235.775 81.9156 235.308 80.161 235.308 78.201C235.308 76.241 235.775 74.4863 236.708 72.937C237.642 71.3876 238.92 70.1836 240.544 69.325C242.187 68.4476 244.035 68.009 246.088 68.009C247.88 68.009 249.495 68.3263 250.932 68.961C252.37 69.5956 253.564 70.5103 254.516 71.705L250.988 74.897C249.719 73.3663 248.179 72.601 246.368 72.601C245.304 72.601 244.352 72.8343 243.512 73.301C242.691 73.7676 242.047 74.4303 241.58 75.289C241.132 76.129 240.908 77.0996 240.908 78.201C240.908 79.3023 241.132 80.2823 241.58 81.141C242.047 81.981 242.691 82.6343 243.512 83.101C244.352 83.5676 245.304 83.801 246.368 83.801C248.179 83.801 249.719 83.0356 250.988 81.505L254.516 84.697C253.564 85.8916 252.37 86.8063 250.932 87.441C249.495 88.0756 247.88 88.393 246.088 88.393ZM266.462 88.393C264.39 88.393 262.523 87.9543 260.862 87.077C259.219 86.1996 257.922 84.9863 256.97 83.437C256.037 81.8876 255.57 80.1423 255.57 78.201C255.57 76.2596 256.037 74.5143 256.97 72.965C257.922 71.4156 259.219 70.2023 260.862 69.325C262.523 68.4476 264.39 68.009 266.462 68.009C268.534 68.009 270.391 68.4476 272.034 69.325C273.695 70.2023 274.993 71.4156 275.926 72.965C276.878 74.5143 277.354 76.2596 277.354 78.201C277.354 80.1423 276.878 81.8876 275.926 83.437C274.993 84.9863 273.695 86.1996 272.034 87.077C270.391 87.9543 268.534 88.393 266.462 88.393ZM266.462 83.801C267.451 83.801 268.347 83.5676 269.15 83.101C269.953 82.6343 270.587 81.981 271.054 81.141C271.521 80.2823 271.754 79.3023 271.754 78.201C271.754 77.0996 271.521 76.129 271.054 75.289C270.587 74.4303 269.953 73.7676 269.15 73.301C268.347 72.8343 267.451 72.601 266.462 72.601C265.473 72.601 264.577 72.8343 263.774 73.301C262.971 73.7676 262.337 74.4303 261.87 75.289C261.403 76.129 261.17 77.0996 261.17 78.201C261.17 79.3023 261.403 80.2823 261.87 81.141C262.337 81.981 262.971 82.6343 263.774 83.101C264.577 83.5676 265.473 83.801 266.462 83.801ZM298.906 68.401V88.001H294.342L285.69 77.557V88.001H280.258V68.401H284.822L293.474 78.845V68.401H298.906ZM322.642 68.401L314.242 88.001H308.782L300.41 68.401H306.402L311.722 81.169L317.154 68.401H322.642ZM339.525 83.717V88.001H323.789V68.401H339.161V72.685H329.277V75.989H337.985V80.133H329.277V83.717H339.525ZM351.17 82.793H348.146V88.001H342.602V68.401H351.562C353.335 68.401 354.875 68.6996 356.182 69.297C357.488 69.8756 358.496 70.7156 359.206 71.817C359.915 72.8996 360.27 74.1783 360.27 75.653C360.27 77.0716 359.934 78.313 359.262 79.377C358.608 80.4223 357.666 81.2436 356.434 81.841L360.662 88.001H354.726L351.17 82.793ZM354.67 75.653C354.67 74.7383 354.38 74.029 353.802 73.525C353.223 73.021 352.364 72.769 351.226 72.769H348.146V78.509H351.226C352.364 78.509 353.223 78.2663 353.802 77.781C354.38 77.277 354.67 76.5676 354.67 75.653ZM367.227 72.797H361.207V68.401H378.763V72.797H372.771V88.001H367.227V72.797ZM396.564 83.717V88.001H380.828V68.401H396.2V72.685H386.316V75.989H395.024V80.133H386.316V83.717H396.564ZM417.337 88.001L417.281 77.613L412.241 86.069H409.777L404.765 77.893V88.001H399.641V68.401H404.205L411.093 79.713L417.813 68.401H422.377L422.433 88.001H417.337Z" fill="white"/>
<path d="M27.416 159.192C26.152 159.192 24.928 159 23.744 158.616C22.576 158.216 21.656 157.704 20.984 157.08L21.872 155.208C22.512 155.784 23.328 156.256 24.32 156.624C25.328 156.976 26.36 157.152 27.416 157.152C28.808 157.152 29.848 156.92 30.536 156.456C31.224 155.976 31.568 155.344 31.568 154.56C31.568 153.984 31.376 153.52 30.992 153.168C30.624 152.8 30.16 152.52 29.6 152.328C29.056 152.136 28.28 151.92 27.272 151.68C26.008 151.376 24.984 151.072 24.2 150.768C23.432 150.464 22.768 150 22.208 149.376C21.664 148.736 21.392 147.88 21.392 146.808C21.392 145.912 21.624 145.104 22.088 144.384C22.568 143.664 23.288 143.088 24.248 142.656C25.208 142.224 26.4 142.008 27.824 142.008C28.816 142.008 29.792 142.136 30.752 142.392C31.712 142.648 32.536 143.016 33.224 143.496L32.432 145.416C31.728 144.968 30.976 144.632 30.176 144.408C29.376 144.168 28.592 144.048 27.824 144.048C26.464 144.048 25.44 144.296 24.752 144.792C24.08 145.288 23.744 145.928 23.744 146.712C23.744 147.288 23.936 147.76 24.32 148.128C24.704 148.48 25.176 148.76 25.736 148.968C26.312 149.16 27.088 149.368 28.064 149.592C29.328 149.896 30.344 150.2 31.112 150.504C31.88 150.808 32.536 151.272 33.08 151.896C33.64 152.52 33.92 153.36 33.92 154.416C33.92 155.296 33.68 156.104 33.2 156.84C32.72 157.56 31.992 158.136 31.016 158.568C30.04 158.984 28.84 159.192 27.416 159.192ZM48.5863 152.712C48.5863 152.888 48.5703 153.12 48.5383 153.408H38.2183C38.3623 154.528 38.8503 155.432 39.6823 156.12C40.5303 156.792 41.5783 157.128 42.8263 157.128C44.3463 157.128 45.5703 156.616 46.4983 155.592L47.7703 157.08C47.1943 157.752 46.4743 158.264 45.6103 158.616C44.7623 158.968 43.8103 159.144 42.7543 159.144C41.4103 159.144 40.2183 158.872 39.1783 158.328C38.1383 157.768 37.3303 156.992 36.7543 156C36.1943 155.008 35.9143 153.888 35.9143 152.64C35.9143 151.408 36.1863 150.296 36.7303 149.304C37.2903 148.312 38.0503 147.544 39.0103 147C39.9863 146.44 41.0823 146.16 42.2983 146.16C43.5143 146.16 44.5943 146.44 45.5383 147C46.4983 147.544 47.2423 148.312 47.7703 149.304C48.3143 150.296 48.5863 151.432 48.5863 152.712ZM42.2983 148.104C41.1943 148.104 40.2663 148.44 39.5143 149.112C38.7783 149.784 38.3463 150.664 38.2183 151.752H46.3783C46.2503 150.68 45.8103 149.808 45.0583 149.136C44.3223 148.448 43.4023 148.104 42.2983 148.104ZM63.6416 146.28V159H61.4576V157.08C60.9936 157.736 60.3776 158.248 59.6096 158.616C58.8576 158.968 58.0336 159.144 57.1376 159.144C55.4416 159.144 54.1056 158.68 53.1296 157.752C52.1536 156.808 51.6656 155.424 51.6656 153.6V146.28H53.9696V153.336C53.9696 154.568 54.2656 155.504 54.8576 156.144C55.4496 156.768 56.2976 157.08 57.4016 157.08C58.6176 157.08 59.5776 156.712 60.2816 155.976C60.9856 155.24 61.3376 154.2 61.3376 152.856V146.28H63.6416ZM71.6758 159.144C70.6358 159.144 69.6358 159.008 68.6758 158.736C67.7158 158.448 66.9638 158.088 66.4198 157.656L67.3798 155.832C67.9398 156.232 68.6198 156.552 69.4198 156.792C70.2198 157.032 71.0278 157.152 71.8438 157.152C73.8598 157.152 74.8678 156.576 74.8678 155.424C74.8678 155.04 74.7318 154.736 74.4598 154.512C74.1878 154.288 73.8438 154.128 73.4278 154.032C73.0278 153.92 72.4518 153.8 71.6998 153.672C70.6758 153.512 69.8358 153.328 69.1798 153.12C68.5398 152.912 67.9878 152.56 67.5238 152.064C67.0598 151.568 66.8278 150.872 66.8278 149.976C66.8278 148.824 67.3078 147.904 68.2678 147.216C69.2278 146.512 70.5158 146.16 72.1318 146.16C72.9798 146.16 73.8278 146.264 74.6758 146.472C75.5238 146.68 76.2198 146.96 76.7638 147.312L75.7798 149.136C74.7398 148.464 73.5158 148.128 72.1078 148.128C71.1318 148.128 70.3878 148.288 69.8758 148.608C69.3638 148.928 69.1078 149.352 69.1078 149.88C69.1078 150.296 69.2518 150.624 69.5398 150.864C69.8278 151.104 70.1798 151.28 70.5958 151.392C71.0278 151.504 71.6278 151.632 72.3958 151.776C73.4198 151.952 74.2438 152.144 74.8678 152.352C75.5078 152.544 76.0518 152.88 76.4998 153.36C76.9478 153.84 77.1718 154.512 77.1718 155.376C77.1718 156.528 76.6758 157.448 75.6838 158.136C74.7078 158.808 73.3718 159.144 71.6758 159.144ZM97.7525 146.28L92.1845 159H89.8325L84.2645 146.28H86.6645L91.0325 156.48L95.4965 146.28H97.7525ZM111.047 152.712C111.047 152.888 111.031 153.12 110.999 153.408H100.679C100.823 154.528 101.311 155.432 102.143 156.12C102.991 156.792 104.039 157.128 105.287 157.128C106.807 157.128 108.031 156.616 108.959 155.592L110.231 157.08C109.655 157.752 108.935 158.264 108.071 158.616C107.223 158.968 106.271 159.144 105.215 159.144C103.871 159.144 102.679 158.872 101.639 158.328C100.599 157.768 99.7912 156.992 99.2152 156C98.6552 155.008 98.3752 153.888 98.3752 152.64C98.3752 151.408 98.6472 150.296 99.1912 149.304C99.7512 148.312 100.511 147.544 101.471 147C102.447 146.44 103.543 146.16 104.759 146.16C105.975 146.16 107.055 146.44 107.999 147C108.959 147.544 109.703 148.312 110.231 149.304C110.775 150.296 111.047 151.432 111.047 152.712ZM104.759 148.104C103.655 148.104 102.727 148.44 101.975 149.112C101.239 149.784 100.807 150.664 100.679 151.752H108.839C108.711 150.68 108.271 149.808 107.519 149.136C106.783 148.448 105.863 148.104 104.759 148.104ZM121.039 146.16C122.655 146.16 123.935 146.632 124.879 147.576C125.839 148.504 126.319 149.872 126.319 151.68V159H124.015V151.944C124.015 150.712 123.719 149.784 123.127 149.16C122.535 148.536 121.687 148.224 120.583 148.224C119.335 148.224 118.351 148.592 117.631 149.328C116.911 150.048 116.551 151.088 116.551 152.448V159H114.247V146.28H116.455V148.2C116.919 147.544 117.543 147.04 118.327 146.688C119.127 146.336 120.031 146.16 121.039 146.16ZM142.653 141.192V159H140.445V156.984C139.933 157.688 139.285 158.224 138.501 158.592C137.717 158.96 136.853 159.144 135.909 159.144C134.677 159.144 133.573 158.872 132.597 158.328C131.621 157.784 130.853 157.024 130.293 156.048C129.749 155.056 129.477 153.92 129.477 152.64C129.477 151.36 129.749 150.232 130.293 149.256C130.853 148.28 131.621 147.52 132.597 146.976C133.573 146.432 134.677 146.16 135.909 146.16C136.821 146.16 137.661 146.336 138.429 146.688C139.197 147.024 139.837 147.528 140.349 148.2V141.192H142.653ZM136.101 157.128C136.901 157.128 137.629 156.944 138.285 156.576C138.941 156.192 139.453 155.664 139.821 154.992C140.189 154.304 140.373 153.52 140.373 152.64C140.373 151.76 140.189 150.984 139.821 150.312C139.453 149.624 138.941 149.096 138.285 148.728C137.629 148.36 136.901 148.176 136.101 148.176C135.285 148.176 134.549 148.36 133.893 148.728C133.253 149.096 132.741 149.624 132.357 150.312C131.989 150.984 131.805 151.76 131.805 152.64C131.805 153.52 131.989 154.304 132.357 154.992C132.741 155.664 133.253 156.192 133.893 156.576C134.549 156.944 135.285 157.128 136.101 157.128ZM158.508 152.712C158.508 152.888 158.492 153.12 158.46 153.408H148.14C148.284 154.528 148.772 155.432 149.604 156.12C150.452 156.792 151.5 157.128 152.748 157.128C154.268 157.128 155.492 156.616 156.42 155.592L157.692 157.08C157.116 157.752 156.396 158.264 155.532 158.616C154.684 158.968 153.732 159.144 152.676 159.144C151.332 159.144 150.14 158.872 149.1 158.328C148.06 157.768 147.252 156.992 146.676 156C146.116 155.008 145.836 153.888 145.836 152.64C145.836 151.408 146.108 150.296 146.652 149.304C147.212 148.312 147.972 147.544 148.932 147C149.908 146.44 151.004 146.16 152.22 146.16C153.436 146.16 154.516 146.44 155.46 147C156.42 147.544 157.164 148.312 157.692 149.304C158.236 150.296 158.508 151.432 158.508 152.712ZM152.22 148.104C151.116 148.104 150.188 148.44 149.436 149.112C148.7 149.784 148.268 150.664 148.14 151.752H156.3C156.172 150.68 155.732 149.808 154.98 149.136C154.244 148.448 153.324 148.104 152.22 148.104ZM173.707 141.192V159H171.499V156.984C170.987 157.688 170.339 158.224 169.555 158.592C168.771 158.96 167.907 159.144 166.963 159.144C165.731 159.144 164.627 158.872 163.651 158.328C162.675 157.784 161.907 157.024 161.347 156.048C160.803 155.056 160.531 153.92 160.531 152.64C160.531 151.36 160.803 150.232 161.347 149.256C161.907 148.28 162.675 147.52 163.651 146.976C164.627 146.432 165.731 146.16 166.963 146.16C167.875 146.16 168.715 146.336 169.483 146.688C170.251 147.024 170.891 147.528 171.403 148.2V141.192H173.707ZM167.155 157.128C167.955 157.128 168.683 156.944 169.339 156.576C169.995 156.192 170.507 155.664 170.875 154.992C171.243 154.304 171.427 153.52 171.427 152.64C171.427 151.76 171.243 150.984 170.875 150.312C170.507 149.624 169.995 149.096 169.339 148.728C168.683 148.36 167.955 148.176 167.155 148.176C166.339 148.176 165.603 148.36 164.947 148.728C164.307 149.096 163.795 149.624 163.411 150.312C163.043 150.984 162.859 151.76 162.859 152.64C162.859 153.52 163.043 154.304 163.411 154.992C163.795 155.664 164.307 156.192 164.947 156.576C165.603 156.944 166.339 157.128 167.155 157.128ZM183.515 159.144C182.251 159.144 181.115 158.864 180.107 158.304C179.099 157.744 178.307 156.976 177.731 156C177.171 155.008 176.891 153.888 176.891 152.64C176.891 151.392 177.171 150.28 177.731 149.304C178.307 148.312 179.099 147.544 180.107 147C181.115 146.44 182.251 146.16 183.515 146.16C184.779 146.16 185.907 146.44 186.899 147C187.907 147.544 188.691 148.312 189.251 149.304C189.827 150.28 190.115 151.392 190.115 152.64C190.115 153.888 189.827 155.008 189.251 156C188.691 156.976 187.907 157.744 186.899 158.304C185.907 158.864 184.779 159.144 183.515 159.144ZM183.515 157.128C184.331 157.128 185.059 156.944 185.699 156.576C186.355 156.192 186.867 155.664 187.235 154.992C187.603 154.304 187.787 153.52 187.787 152.64C187.787 151.76 187.603 150.984 187.235 150.312C186.867 149.624 186.355 149.096 185.699 148.728C185.059 148.36 184.331 148.176 183.515 148.176C182.699 148.176 181.963 148.36 181.307 148.728C180.667 149.096 180.155 149.624 179.771 150.312C179.403 150.984 179.219 151.76 179.219 152.64C179.219 153.52 179.403 154.304 179.771 154.992C180.155 155.664 180.667 156.192 181.307 156.576C181.963 156.944 182.699 157.128 183.515 157.128ZM195.509 148.416C195.909 147.68 196.501 147.12 197.285 146.736C198.069 146.352 199.021 146.16 200.141 146.16V148.392C200.013 148.376 199.837 148.368 199.613 148.368C198.365 148.368 197.381 148.744 196.661 149.496C195.957 150.232 195.605 151.288 195.605 152.664V159H193.301V146.28H195.509V148.416ZM214.36 152.712C214.36 152.888 214.344 153.12 214.312 153.408H203.992C204.136 154.528 204.624 155.432 205.456 156.12C206.304 156.792 207.352 157.128 208.6 157.128C210.12 157.128 211.344 156.616 212.272 155.592L213.544 157.08C212.968 157.752 212.248 158.264 211.384 158.616C210.536 158.968 209.584 159.144 208.528 159.144C207.184 159.144 205.992 158.872 204.952 158.328C203.912 157.768 203.104 156.992 202.528 156C201.968 155.008 201.688 153.888 201.688 152.64C201.688 151.408 201.96 150.296 202.504 149.304C203.064 148.312 203.824 147.544 204.784 147C205.76 146.44 206.856 146.16 208.072 146.16C209.288 146.16 210.368 146.44 211.312 147C212.272 147.544 213.016 148.312 213.544 149.304C214.088 150.296 214.36 151.432 214.36 152.712ZM208.072 148.104C206.968 148.104 206.04 148.44 205.288 149.112C204.552 149.784 204.12 150.664 203.992 151.752H212.152C212.024 150.68 211.584 149.808 210.832 149.136C210.096 148.448 209.176 148.104 208.072 148.104ZM221.207 159.144C220.167 159.144 219.167 159.008 218.207 158.736C217.247 158.448 216.495 158.088 215.951 157.656L216.911 155.832C217.471 156.232 218.151 156.552 218.951 156.792C219.751 157.032 220.559 157.152 221.375 157.152C223.391 157.152 224.399 156.576 224.399 155.424C224.399 155.04 224.263 154.736 223.991 154.512C223.719 154.288 223.375 154.128 222.959 154.032C222.559 153.92 221.983 153.8 221.231 153.672C220.207 153.512 219.367 153.328 218.711 153.12C218.071 152.912 217.519 152.56 217.055 152.064C216.591 151.568 216.359 150.872 216.359 149.976C216.359 148.824 216.839 147.904 217.799 147.216C218.759 146.512 220.047 146.16 221.663 146.16C222.511 146.16 223.359 146.264 224.207 146.472C225.055 146.68 225.751 146.96 226.295 147.312L225.311 149.136C224.271 148.464 223.047 148.128 221.639 148.128C220.663 148.128 219.919 148.288 219.407 148.608C218.895 148.928 218.639 149.352 218.639 149.88C218.639 150.296 218.783 150.624 219.071 150.864C219.359 151.104 219.711 151.28 220.127 151.392C220.559 151.504 221.159 151.632 221.927 151.776C222.951 151.952 223.775 152.144 224.399 152.352C225.039 152.544 225.583 152.88 226.031 153.36C226.479 153.84 226.703 154.512 226.703 155.376C226.703 156.528 226.207 157.448 225.215 158.136C224.239 158.808 222.903 159.144 221.207 159.144ZM242.82 146.16C244.436 146.16 245.716 146.632 246.66 147.576C247.62 148.504 248.1 149.872 248.1 151.68V159H245.796V151.944C245.796 150.712 245.5 149.784 244.908 149.16C244.316 148.536 243.468 148.224 242.364 148.224C241.116 148.224 240.132 148.592 239.412 149.328C238.692 150.048 238.332 151.088 238.332 152.448V159H236.028V146.28H238.236V148.2C238.7 147.544 239.324 147.04 240.108 146.688C240.908 146.336 241.812 146.16 242.82 146.16ZM256.996 146.16C258.756 146.16 260.1 146.592 261.028 147.456C261.972 148.32 262.444 149.608 262.444 151.32V159H260.26V157.32C259.876 157.912 259.324 158.368 258.604 158.688C257.9 158.992 257.06 159.144 256.084 159.144C254.66 159.144 253.516 158.8 252.652 158.112C251.804 157.424 251.38 156.52 251.38 155.4C251.38 154.28 251.788 153.384 252.604 152.712C253.42 152.024 254.716 151.68 256.492 151.68H260.14V151.224C260.14 150.232 259.852 149.472 259.276 148.944C258.7 148.416 257.852 148.152 256.732 148.152C255.98 148.152 255.244 148.28 254.524 148.536C253.804 148.776 253.196 149.104 252.7 149.52L251.74 147.792C252.396 147.264 253.18 146.864 254.092 146.592C255.004 146.304 255.972 146.16 256.996 146.16ZM256.468 157.368C257.348 157.368 258.108 157.176 258.748 156.792C259.388 156.392 259.852 155.832 260.14 155.112V153.336H256.588C254.636 153.336 253.66 153.992 253.66 155.304C253.66 155.944 253.908 156.448 254.404 156.816C254.9 157.184 255.588 157.368 256.468 157.368ZM258.844 144.36C258.46 144.36 258.124 144.28 257.836 144.12C257.564 143.96 257.22 143.72 256.804 143.4C256.564 143.176 256.356 143.016 256.18 142.92C256.004 142.808 255.828 142.752 255.652 142.752C255.3 142.752 255.012 142.888 254.788 143.16C254.564 143.416 254.444 143.776 254.428 144.24H253.132C253.164 143.344 253.388 142.632 253.804 142.104C254.236 141.576 254.796 141.312 255.484 141.312C255.868 141.312 256.204 141.4 256.492 141.576C256.796 141.736 257.14 141.976 257.524 142.296C257.796 142.52 258.012 142.688 258.172 142.8C258.332 142.896 258.5 142.944 258.676 142.944C259.028 142.944 259.316 142.816 259.54 142.56C259.764 142.304 259.884 141.952 259.9 141.504H261.196C261.164 142.368 260.932 143.064 260.5 143.592C260.084 144.104 259.532 144.36 258.844 144.36ZM272.226 159.144C270.962 159.144 269.826 158.864 268.818 158.304C267.81 157.744 267.018 156.976 266.442 156C265.882 155.008 265.602 153.888 265.602 152.64C265.602 151.392 265.882 150.28 266.442 149.304C267.018 148.312 267.81 147.544 268.818 147C269.826 146.44 270.962 146.16 272.226 146.16C273.49 146.16 274.618 146.44 275.61 147C276.618 147.544 277.402 148.312 277.962 149.304C278.538 150.28 278.826 151.392 278.826 152.64C278.826 153.888 278.538 155.008 277.962 156C277.402 156.976 276.618 157.744 275.61 158.304C274.618 158.864 273.49 159.144 272.226 159.144ZM272.226 157.128C273.042 157.128 273.77 156.944 274.41 156.576C275.066 156.192 275.578 155.664 275.946 154.992C276.314 154.304 276.498 153.52 276.498 152.64C276.498 151.76 276.314 150.984 275.946 150.312C275.578 149.624 275.066 149.096 274.41 148.728C273.77 148.36 273.042 148.176 272.226 148.176C271.41 148.176 270.674 148.36 270.018 148.728C269.378 149.096 268.866 149.624 268.482 150.312C268.114 150.984 267.93 151.76 267.93 152.64C267.93 153.52 268.114 154.304 268.482 154.992C268.866 155.664 269.378 156.192 270.018 156.576C270.674 156.944 271.41 157.128 272.226 157.128ZM292.105 159.144C291.065 159.144 290.065 159.008 289.105 158.736C288.145 158.448 287.393 158.088 286.849 157.656L287.809 155.832C288.369 156.232 289.049 156.552 289.849 156.792C290.649 157.032 291.457 157.152 292.273 157.152C294.289 157.152 295.297 156.576 295.297 155.424C295.297 155.04 295.161 154.736 294.889 154.512C294.617 154.288 294.273 154.128 293.857 154.032C293.457 153.92 292.881 153.8 292.129 153.672C291.105 153.512 290.265 153.328 289.609 153.12C288.969 152.912 288.417 152.56 287.953 152.064C287.489 151.568 287.257 150.872 287.257 149.976C287.257 148.824 287.737 147.904 288.697 147.216C289.657 146.512 290.945 146.16 292.561 146.16C293.409 146.16 294.257 146.264 295.105 146.472C295.953 146.68 296.649 146.96 297.193 147.312L296.209 149.136C295.169 148.464 293.945 148.128 292.537 148.128C291.561 148.128 290.817 148.288 290.305 148.608C289.793 148.928 289.537 149.352 289.537 149.88C289.537 150.296 289.681 150.624 289.969 150.864C290.257 151.104 290.609 151.28 291.025 151.392C291.457 151.504 292.057 151.632 292.825 151.776C293.849 151.952 294.673 152.144 295.297 152.352C295.937 152.544 296.481 152.88 296.929 153.36C297.377 153.84 297.601 154.512 297.601 155.376C297.601 156.528 297.105 157.448 296.113 158.136C295.137 158.808 293.801 159.144 292.105 159.144ZM305.113 146.16C306.873 146.16 308.217 146.592 309.145 147.456C310.089 148.32 310.561 149.608 310.561 151.32V159H308.377V157.32C307.993 157.912 307.441 158.368 306.721 158.688C306.017 158.992 305.177 159.144 304.201 159.144C302.777 159.144 301.633 158.8 300.769 158.112C299.921 157.424 299.497 156.52 299.497 155.4C299.497 154.28 299.905 153.384 300.721 152.712C301.537 152.024 302.833 151.68 304.609 151.68H308.257V151.224C308.257 150.232 307.969 149.472 307.393 148.944C306.817 148.416 305.969 148.152 304.849 148.152C304.097 148.152 303.361 148.28 302.641 148.536C301.921 148.776 301.313 149.104 300.817 149.52L299.857 147.792C300.513 147.264 301.297 146.864 302.209 146.592C303.121 146.304 304.089 146.16 305.113 146.16ZM304.585 157.368C305.465 157.368 306.225 157.176 306.865 156.792C307.505 156.392 307.969 155.832 308.257 155.112V153.336H304.705C302.753 153.336 301.777 153.992 301.777 155.304C301.777 155.944 302.025 156.448 302.521 156.816C303.017 157.184 303.705 157.368 304.585 157.368ZM321.569 146.16C322.801 146.16 323.905 146.432 324.881 146.976C325.857 147.52 326.617 148.28 327.161 149.256C327.721 150.232 328.001 151.36 328.001 152.64C328.001 153.92 327.721 155.056 327.161 156.048C326.617 157.024 325.857 157.784 324.881 158.328C323.905 158.872 322.801 159.144 321.569 159.144C320.625 159.144 319.761 158.96 318.977 158.592C318.193 158.224 317.545 157.688 317.033 156.984V159H314.825V141.192H317.129V148.2C317.641 147.528 318.281 147.024 319.049 146.688C319.817 146.336 320.657 146.16 321.569 146.16ZM321.377 157.128C322.193 157.128 322.921 156.944 323.561 156.576C324.217 156.192 324.729 155.664 325.097 154.992C325.481 154.304 325.673 153.52 325.673 152.64C325.673 151.76 325.481 150.984 325.097 150.312C324.729 149.624 324.217 149.096 323.561 148.728C322.921 148.36 322.193 148.176 321.377 148.176C320.577 148.176 319.849 148.36 319.193 148.728C318.537 149.096 318.025 149.624 317.657 150.312C317.289 150.984 317.105 151.76 317.105 152.64C317.105 153.52 317.289 154.304 317.657 154.992C318.025 155.664 318.537 156.192 319.193 156.576C319.849 156.944 320.577 157.128 321.377 157.128ZM342.68 152.712C342.68 152.888 342.664 153.12 342.632 153.408H332.312C332.456 154.528 332.944 155.432 333.776 156.12C334.624 156.792 335.672 157.128 336.92 157.128C338.44 157.128 339.664 156.616 340.592 155.592L341.864 157.08C341.288 157.752 340.568 158.264 339.704 158.616C338.856 158.968 337.904 159.144 336.848 159.144C335.504 159.144 334.312 158.872 333.272 158.328C332.232 157.768 331.424 156.992 330.848 156C330.288 155.008 330.008 153.888 330.008 152.64C330.008 151.408 330.28 150.296 330.824 149.304C331.384 148.312 332.144 147.544 333.104 147C334.08 146.44 335.176 146.16 336.392 146.16C337.608 146.16 338.688 146.44 339.632 147C340.592 147.544 341.336 148.312 341.864 149.304C342.408 150.296 342.68 151.432 342.68 152.712ZM336.392 148.104C335.288 148.104 334.36 148.44 333.608 149.112C332.872 149.784 332.44 150.664 332.312 151.752H340.472C340.344 150.68 339.904 149.808 339.152 149.136C338.416 148.448 337.496 148.104 336.392 148.104ZM361.791 146.16C363.391 146.16 364.655 146.624 365.583 147.552C366.527 148.48 366.999 149.856 366.999 151.68V159H364.695V151.944C364.695 150.712 364.407 149.784 363.831 149.16C363.271 148.536 362.463 148.224 361.407 148.224C360.239 148.224 359.311 148.592 358.623 149.328C357.935 150.048 357.591 151.088 357.591 152.448V159H355.287V151.944C355.287 150.712 354.999 149.784 354.423 149.16C353.863 148.536 353.055 148.224 351.999 148.224C350.831 148.224 349.903 148.592 349.215 149.328C348.527 150.048 348.183 151.088 348.183 152.448V159H345.879V146.28H348.087V148.176C348.551 147.52 349.159 147.024 349.911 146.688C350.663 146.336 351.519 146.16 352.479 146.16C353.471 146.16 354.351 146.36 355.119 146.76C355.887 147.16 356.479 147.744 356.895 148.512C357.375 147.776 358.039 147.2 358.887 146.784C359.751 146.368 360.719 146.16 361.791 146.16ZM33.44 182.28L27.872 195H25.52L19.952 182.28H22.352L26.72 192.48L31.184 182.28H33.44ZM46.7347 188.712C46.7347 188.888 46.7187 189.12 46.6867 189.408H36.3667C36.5107 190.528 36.9987 191.432 37.8307 192.12C38.6787 192.792 39.7267 193.128 40.9747 193.128C42.4947 193.128 43.7187 192.616 44.6467 191.592L45.9187 193.08C45.3427 193.752 44.6227 194.264 43.7587 194.616C42.9107 194.968 41.9587 195.144 40.9027 195.144C39.5587 195.144 38.3667 194.872 37.3267 194.328C36.2867 193.768 35.4787 192.992 34.9027 192C34.3427 191.008 34.0627 189.888 34.0627 188.64C34.0627 187.408 34.3347 186.296 34.8787 185.304C35.4387 184.312 36.1987 183.544 37.1587 183C38.1347 182.44 39.2307 182.16 40.4467 182.16C41.6627 182.16 42.7427 182.44 43.6867 183C44.6467 183.544 45.3907 184.312 45.9187 185.304C46.4627 186.296 46.7347 187.432 46.7347 188.712ZM40.4467 184.104C39.3427 184.104 38.4147 184.44 37.6627 185.112C36.9267 185.784 36.4947 186.664 36.3667 187.752H44.5267C44.3987 186.68 43.9587 185.808 43.2067 185.136C42.4707 184.448 41.5507 184.104 40.4467 184.104ZM56.726 182.16C58.342 182.16 59.622 182.632 60.566 183.576C61.526 184.504 62.006 185.872 62.006 187.68V195H59.702V187.944C59.702 186.712 59.406 185.784 58.814 185.16C58.222 184.536 57.374 184.224 56.27 184.224C55.022 184.224 54.038 184.592 53.318 185.328C52.598 186.048 52.238 187.088 52.238 188.448V195H49.934V182.28H52.142V184.2C52.606 183.544 53.23 183.04 54.014 182.688C54.814 182.336 55.718 182.16 56.726 182.16ZM78.3403 177.192V195H76.1323V192.984C75.6203 193.688 74.9723 194.224 74.1883 194.592C73.4043 194.96 72.5403 195.144 71.5963 195.144C70.3643 195.144 69.2603 194.872 68.2843 194.328C67.3083 193.784 66.5403 193.024 65.9803 192.048C65.4363 191.056 65.1643 189.92 65.1643 188.64C65.1643 187.36 65.4363 186.232 65.9803 185.256C66.5403 184.28 67.3083 183.52 68.2843 182.976C69.2603 182.432 70.3643 182.16 71.5963 182.16C72.5083 182.16 73.3483 182.336 74.1163 182.688C74.8843 183.024 75.5243 183.528 76.0363 184.2V177.192H78.3403ZM71.7883 193.128C72.5883 193.128 73.3163 192.944 73.9723 192.576C74.6283 192.192 75.1403 191.664 75.5083 190.992C75.8763 190.304 76.0603 189.52 76.0603 188.64C76.0603 187.76 75.8763 186.984 75.5083 186.312C75.1403 185.624 74.6283 185.096 73.9723 184.728C73.3163 184.36 72.5883 184.176 71.7883 184.176C70.9723 184.176 70.2363 184.36 69.5803 184.728C68.9403 185.096 68.4283 185.624 68.0443 186.312C67.6763 186.984 67.4923 187.76 67.4923 188.64C67.4923 189.52 67.6763 190.304 68.0443 190.992C68.4283 191.664 68.9403 192.192 69.5803 192.576C70.2363 192.944 70.9723 193.128 71.7883 193.128ZM94.1956 188.712C94.1956 188.888 94.1796 189.12 94.1476 189.408H83.8276C83.9716 190.528 84.4596 191.432 85.2916 192.12C86.1396 192.792 87.1876 193.128 88.4356 193.128C89.9556 193.128 91.1796 192.616 92.1076 191.592L93.3796 193.08C92.8036 193.752 92.0836 194.264 91.2196 194.616C90.3716 194.968 89.4196 195.144 88.3636 195.144C87.0196 195.144 85.8276 194.872 84.7876 194.328C83.7476 193.768 82.9396 192.992 82.3636 192C81.8036 191.008 81.5236 189.888 81.5236 188.64C81.5236 187.408 81.7956 186.296 82.3396 185.304C82.8996 184.312 83.6596 183.544 84.6196 183C85.5956 182.44 86.6916 182.16 87.9076 182.16C89.1236 182.16 90.2036 182.44 91.1476 183C92.1076 183.544 92.8516 184.312 93.3796 185.304C93.9236 186.296 94.1956 187.432 94.1956 188.712ZM87.9076 184.104C86.8036 184.104 85.8756 184.44 85.1236 185.112C84.3876 185.784 83.9556 186.664 83.8276 187.752H91.9876C91.8596 186.68 91.4196 185.808 90.6676 185.136C89.9316 184.448 89.0116 184.104 87.9076 184.104ZM99.6029 184.416C100.003 183.68 100.595 183.12 101.379 182.736C102.163 182.352 103.115 182.16 104.235 182.16V184.392C104.107 184.376 103.931 184.368 103.707 184.368C102.459 184.368 101.475 184.744 100.755 185.496C100.051 186.232 99.6989 187.288 99.6989 188.664V195H97.3949V182.28H99.6029V184.416ZM118.316 182.16C120.076 182.16 121.42 182.592 122.348 183.456C123.292 184.32 123.764 185.608 123.764 187.32V195H121.58V193.32C121.196 193.912 120.644 194.368 119.924 194.688C119.22 194.992 118.38 195.144 117.404 195.144C115.98 195.144 114.836 194.8 113.972 194.112C113.124 193.424 112.7 192.52 112.7 191.4C112.7 190.28 113.108 189.384 113.924 188.712C114.74 188.024 116.036 187.68 117.812 187.68H121.46V187.224C121.46 186.232 121.172 185.472 120.596 184.944C120.02 184.416 119.172 184.152 118.052 184.152C117.3 184.152 116.564 184.28 115.844 184.536C115.124 184.776 114.516 185.104 114.02 185.52L113.06 183.792C113.716 183.264 114.5 182.864 115.412 182.592C116.324 182.304 117.292 182.16 118.316 182.16ZM117.788 193.368C118.668 193.368 119.428 193.176 120.068 192.792C120.708 192.392 121.172 191.832 121.46 191.112V189.336H117.908C115.956 189.336 114.98 189.992 114.98 191.304C114.98 191.944 115.228 192.448 115.724 192.816C116.22 193.184 116.908 193.368 117.788 193.368ZM135.18 194.256C134.844 194.544 134.428 194.768 133.932 194.928C133.436 195.072 132.924 195.144 132.396 195.144C131.116 195.144 130.124 194.8 129.42 194.112C128.716 193.424 128.364 192.44 128.364 191.16V184.176H126.204V182.28H128.364V179.496H130.668V182.28H134.316V184.176H130.668V191.064C130.668 191.752 130.836 192.28 131.172 192.648C131.524 193.016 132.02 193.2 132.66 193.2C133.364 193.2 133.964 193 134.46 192.6L135.18 194.256ZM140.173 184.416C140.573 183.68 141.165 183.12 141.949 182.736C142.733 182.352 143.685 182.16 144.805 182.16V184.392C144.677 184.376 144.501 184.368 144.277 184.368C143.029 184.368 142.045 184.744 141.325 185.496C140.621 186.232 140.269 187.288 140.269 188.664V195H137.965V182.28H140.173V184.416ZM152.254 182.16C154.014 182.16 155.358 182.592 156.286 183.456C157.23 184.32 157.702 185.608 157.702 187.32V195H155.518V193.32C155.134 193.912 154.582 194.368 153.862 194.688C153.158 194.992 152.318 195.144 151.342 195.144C149.918 195.144 148.774 194.8 147.91 194.112C147.062 193.424 146.638 192.52 146.638 191.4C146.638 190.28 147.046 189.384 147.862 188.712C148.678 188.024 149.974 187.68 151.75 187.68H155.398V187.224C155.398 186.232 155.11 185.472 154.534 184.944C153.958 184.416 153.11 184.152 151.99 184.152C151.238 184.152 150.502 184.28 149.782 184.536C149.062 184.776 148.454 185.104 147.958 185.52L146.998 183.792C147.654 183.264 148.438 182.864 149.35 182.592C150.262 182.304 151.23 182.16 152.254 182.16ZM151.726 193.368C152.606 193.368 153.366 193.176 154.006 192.792C154.646 192.392 155.11 191.832 155.398 191.112V189.336H151.846C149.894 189.336 148.918 189.992 148.918 191.304C148.918 191.944 149.166 192.448 149.662 192.816C150.158 193.184 150.846 193.368 151.726 193.368ZM172.987 182.28L167.419 195H165.067L159.499 182.28H161.899L166.267 192.48L170.731 182.28H172.987ZM186.282 188.712C186.282 188.888 186.266 189.12 186.234 189.408H175.914C176.058 190.528 176.546 191.432 177.378 192.12C178.226 192.792 179.274 193.128 180.522 193.128C182.042 193.128 183.266 192.616 184.194 191.592L185.466 193.08C184.89 193.752 184.17 194.264 183.306 194.616C182.458 194.968 181.506 195.144 180.45 195.144C179.106 195.144 177.914 194.872 176.874 194.328C175.834 193.768 175.026 192.992 174.45 192C173.89 191.008 173.61 189.888 173.61 188.64C173.61 187.408 173.882 186.296 174.426 185.304C174.986 184.312 175.746 183.544 176.706 183C177.682 182.44 178.778 182.16 179.994 182.16C181.21 182.16 182.29 182.44 183.234 183C184.194 183.544 184.938 184.312 185.466 185.304C186.01 186.296 186.282 187.432 186.282 188.712ZM179.994 184.104C178.89 184.104 177.962 184.44 177.21 185.112C176.474 185.784 176.042 186.664 175.914 187.752H184.074C183.946 186.68 183.506 185.808 182.754 185.136C182.018 184.448 181.098 184.104 179.994 184.104ZM181.434 177.312H184.362L180.33 180.432H178.17L181.434 177.312ZM193.129 195.144C192.089 195.144 191.089 195.008 190.129 194.736C189.169 194.448 188.417 194.088 187.873 193.656L188.833 191.832C189.393 192.232 190.073 192.552 190.873 192.792C191.673 193.032 192.481 193.152 193.297 193.152C195.313 193.152 196.321 192.576 196.321 191.424C196.321 191.04 196.185 190.736 195.913 190.512C195.641 190.288 195.297 190.128 194.881 190.032C194.481 189.92 193.905 189.8 193.153 189.672C192.129 189.512 191.289 189.328 190.633 189.12C189.993 188.912 189.441 188.56 188.977 188.064C188.513 187.568 188.281 186.872 188.281 185.976C188.281 184.824 188.761 183.904 189.721 183.216C190.681 182.512 191.969 182.16 193.585 182.16C194.433 182.16 195.281 182.264 196.129 182.472C196.977 182.68 197.673 182.96 198.217 183.312L197.233 185.136C196.193 184.464 194.969 184.128 193.561 184.128C192.585 184.128 191.841 184.288 191.329 184.608C190.817 184.928 190.561 185.352 190.561 185.88C190.561 186.296 190.705 186.624 190.993 186.864C191.281 187.104 191.633 187.28 192.049 187.392C192.481 187.504 193.081 187.632 193.849 187.776C194.873 187.952 195.697 188.144 196.321 188.352C196.961 188.544 197.505 188.88 197.953 189.36C198.401 189.84 198.625 190.512 198.625 191.376C198.625 192.528 198.129 193.448 197.137 194.136C196.161 194.808 194.825 195.144 193.129 195.144ZM219.95 177.192V195H217.742V192.984C217.23 193.688 216.582 194.224 215.798 194.592C215.014 194.96 214.15 195.144 213.206 195.144C211.974 195.144 210.87 194.872 209.894 194.328C208.918 193.784 208.15 193.024 207.59 192.048C207.046 191.056 206.774 189.92 206.774 188.64C206.774 187.36 207.046 186.232 207.59 185.256C208.15 184.28 208.918 183.52 209.894 182.976C210.87 182.432 211.974 182.16 213.206 182.16C214.118 182.16 214.958 182.336 215.726 182.688C216.494 183.024 217.134 183.528 217.646 184.2V177.192H219.95ZM213.398 193.128C214.198 193.128 214.926 192.944 215.582 192.576C216.238 192.192 216.75 191.664 217.118 190.992C217.486 190.304 217.67 189.52 217.67 188.64C217.67 187.76 217.486 186.984 217.118 186.312C216.75 185.624 216.238 185.096 215.582 184.728C214.926 184.36 214.198 184.176 213.398 184.176C212.582 184.176 211.846 184.36 211.19 184.728C210.55 185.096 210.038 185.624 209.654 186.312C209.286 186.984 209.102 187.76 209.102 188.64C209.102 189.52 209.286 190.304 209.654 190.992C210.038 191.664 210.55 192.192 211.19 192.576C211.846 192.944 212.582 193.128 213.398 193.128ZM229.757 195.144C228.493 195.144 227.357 194.864 226.349 194.304C225.341 193.744 224.549 192.976 223.973 192C223.413 191.008 223.133 189.888 223.133 188.64C223.133 187.392 223.413 186.28 223.973 185.304C224.549 184.312 225.341 183.544 226.349 183C227.357 182.44 228.493 182.16 229.757 182.16C231.021 182.16 232.149 182.44 233.141 183C234.149 183.544 234.933 184.312 235.493 185.304C236.069 186.28 236.357 187.392 236.357 188.64C236.357 189.888 236.069 191.008 235.493 192C234.933 192.976 234.149 193.744 233.141 194.304C232.149 194.864 231.021 195.144 229.757 195.144ZM229.757 193.128C230.573 193.128 231.301 192.944 231.941 192.576C232.597 192.192 233.109 191.664 233.477 190.992C233.845 190.304 234.029 189.52 234.029 188.64C234.029 187.76 233.845 186.984 233.477 186.312C233.109 185.624 232.597 185.096 231.941 184.728C231.301 184.36 230.573 184.176 229.757 184.176C228.941 184.176 228.205 184.36 227.549 184.728C226.909 185.096 226.397 185.624 226.013 186.312C225.645 186.984 225.461 187.76 225.461 188.64C225.461 189.52 225.645 190.304 226.013 190.992C226.397 191.664 226.909 192.192 227.549 192.576C228.205 192.944 228.941 193.128 229.757 193.128ZM257.989 177.192V195H255.781V192.984C255.269 193.688 254.621 194.224 253.837 194.592C253.053 194.96 252.189 195.144 251.245 195.144C250.013 195.144 248.909 194.872 247.933 194.328C246.957 193.784 246.189 193.024 245.629 192.048C245.085 191.056 244.813 189.92 244.813 188.64C244.813 187.36 245.085 186.232 245.629 185.256C246.189 184.28 246.957 183.52 247.933 182.976C248.909 182.432 250.013 182.16 251.245 182.16C252.157 182.16 252.997 182.336 253.765 182.688C254.533 183.024 255.173 183.528 255.685 184.2V177.192H257.989ZM251.437 193.128C252.237 193.128 252.965 192.944 253.621 192.576C254.277 192.192 254.789 191.664 255.157 190.992C255.525 190.304 255.709 189.52 255.709 188.64C255.709 187.76 255.525 186.984 255.157 186.312C254.789 185.624 254.277 185.096 253.621 184.728C252.965 184.36 252.237 184.176 251.437 184.176C250.621 184.176 249.885 184.36 249.229 184.728C248.589 185.096 248.077 185.624 247.693 186.312C247.325 186.984 247.141 187.76 247.141 188.64C247.141 189.52 247.325 190.304 247.693 190.992C248.077 191.664 248.589 192.192 249.229 192.576C249.885 192.944 250.621 193.128 251.437 193.128ZM262.348 182.28H264.652V195H262.348V182.28ZM263.5 179.832C263.052 179.832 262.676 179.688 262.372 179.4C262.084 179.112 261.94 178.76 261.94 178.344C261.94 177.928 262.084 177.576 262.372 177.288C262.676 176.984 263.052 176.832 263.5 176.832C263.948 176.832 264.316 176.976 264.604 177.264C264.908 177.536 265.06 177.88 265.06 178.296C265.06 178.728 264.908 179.096 264.604 179.4C264.316 179.688 263.948 179.832 263.5 179.832ZM281.219 182.28V193.272C281.219 195.496 280.667 197.136 279.563 198.192C278.459 199.264 276.811 199.8 274.619 199.8C273.419 199.8 272.275 199.632 271.187 199.296C270.099 198.976 269.219 198.512 268.547 197.904L269.651 196.128C270.243 196.64 270.971 197.04 271.835 197.328C272.715 197.632 273.619 197.784 274.547 197.784C276.035 197.784 277.131 197.432 277.835 196.728C278.555 196.024 278.915 194.952 278.915 193.512V192.504C278.371 193.16 277.699 193.656 276.899 193.992C276.115 194.312 275.259 194.472 274.331 194.472C273.115 194.472 272.011 194.216 271.019 193.704C270.043 193.176 269.275 192.448 268.715 191.52C268.155 190.576 267.875 189.504 267.875 188.304C267.875 187.104 268.155 186.04 268.715 185.112C269.275 184.168 270.043 183.44 271.019 182.928C272.011 182.416 273.115 182.16 274.331 182.16C275.291 182.16 276.179 182.336 276.995 182.688C277.827 183.04 278.507 183.56 279.035 184.248V182.28H281.219ZM274.595 192.456C275.427 192.456 276.171 192.28 276.827 191.928C277.499 191.576 278.019 191.088 278.387 190.464C278.771 189.824 278.963 189.104 278.963 188.304C278.963 187.072 278.555 186.08 277.739 185.328C276.923 184.56 275.875 184.176 274.595 184.176C273.299 184.176 272.243 184.56 271.427 185.328C270.611 186.08 270.203 187.072 270.203 188.304C270.203 189.104 270.387 189.824 270.755 190.464C271.139 191.088 271.659 191.576 272.315 191.928C272.987 192.28 273.747 192.456 274.595 192.456ZM285.622 182.28H287.926V195H285.622V182.28ZM286.774 179.832C286.326 179.832 285.95 179.688 285.646 179.4C285.358 179.112 285.214 178.76 285.214 178.344C285.214 177.928 285.358 177.576 285.646 177.288C285.95 176.984 286.326 176.832 286.774 176.832C287.222 176.832 287.59 176.976 287.878 177.264C288.182 177.536 288.334 177.88 288.334 178.296C288.334 178.728 288.182 179.096 287.878 179.4C287.59 179.688 287.222 179.832 286.774 179.832ZM299.477 194.256C299.141 194.544 298.725 194.768 298.229 194.928C297.733 195.072 297.221 195.144 296.693 195.144C295.413 195.144 294.421 194.8 293.717 194.112C293.013 193.424 292.661 192.44 292.661 191.16V184.176H290.501V182.28H292.661V179.496H294.965V182.28H298.613V184.176H294.965V191.064C294.965 191.752 295.133 192.28 295.469 192.648C295.821 193.016 296.317 193.2 296.957 193.2C297.661 193.2 298.261 193 298.757 192.6L299.477 194.256ZM306.894 182.16C308.654 182.16 309.998 182.592 310.926 183.456C311.87 184.32 312.342 185.608 312.342 187.32V195H310.158V193.32C309.774 193.912 309.222 194.368 308.502 194.688C307.798 194.992 306.958 195.144 305.982 195.144C304.558 195.144 303.414 194.8 302.55 194.112C301.702 193.424 301.278 192.52 301.278 191.4C301.278 190.28 301.686 189.384 302.502 188.712C303.318 188.024 304.614 187.68 306.39 187.68H310.038V187.224C310.038 186.232 309.75 185.472 309.174 184.944C308.598 184.416 307.75 184.152 306.63 184.152C305.878 184.152 305.142 184.28 304.422 184.536C303.702 184.776 303.094 185.104 302.598 185.52L301.638 183.792C302.294 183.264 303.078 182.864 303.99 182.592C304.902 182.304 305.87 182.16 306.894 182.16ZM306.366 193.368C307.246 193.368 308.006 193.176 308.646 192.792C309.286 192.392 309.75 191.832 310.038 191.112V189.336H306.486C304.534 189.336 303.558 189.992 303.558 191.304C303.558 191.944 303.806 192.448 304.302 192.816C304.798 193.184 305.486 193.368 306.366 193.368ZM316.606 177.192H318.91V195H316.606V177.192ZM323.861 195.144C323.413 195.144 323.029 194.992 322.709 194.688C322.389 194.368 322.229 193.968 322.229 193.488C322.229 193.024 322.389 192.64 322.709 192.336C323.029 192.016 323.413 191.856 323.861 191.856C324.309 191.856 324.685 192.008 324.989 192.312C325.293 192.616 325.445 193.008 325.445 193.488C325.445 193.968 325.285 194.368 324.965 194.688C324.661 194.992 324.293 195.144 323.861 195.144Z" fill="#838383"/>
<rect x="20" y="40" width="82" height="81" rx="15" fill="url(#paint0_linear_215_57)" fill-opacity="0.15"/>
<rect x="20" y="40" width="82" height="81" rx="15" fill="black" fill-opacity="0.2"/>
<path d="M74.7498 95.502C72.576 97.7644 69.4772 99.2568 65.4534 99.9791V106.001H57.8535V100.249C55.2395 100.117 52.6476 99.699 50.1233 99.003C47.6585 98.3151 45.6176 97.4649 44.0007 96.4523L48.0969 87.1203C49.9962 88.2132 52.0247 89.0609 54.1346 89.6431C56.2187 90.254 58.3768 90.5718 60.5474 90.5875C62.3065 90.5875 63.5646 90.4152 64.3217 90.0706C65.0762 89.7286 65.4534 89.2117 65.4534 88.5258C65.4534 87.7306 64.959 87.1342 63.9701 86.7366C62.9813 86.339 61.3552 85.9049 59.0918 85.4344C56.6244 84.9392 54.1934 84.275 51.8159 83.4463C49.865 82.7338 48.1231 81.5396 46.75 79.9731C45.3121 78.3734 44.5932 76.1985 44.5932 73.4483C44.5932 70.2674 45.7341 67.5364 48.0159 65.2555C50.2977 62.9745 53.5769 61.5278 57.8535 60.9155V55.001H65.4534V60.8061C69.7642 61.2038 73.4101 62.2508 76.391 63.9473L72.5674 73.2316C68.8662 71.3509 65.3625 70.4105 62.0563 70.4105C58.787 70.4105 57.1524 71.2057 57.1524 72.7962C57.1524 73.5556 57.6376 74.1256 58.608 74.5059C59.5784 74.8863 61.1775 75.2932 63.4053 75.7266C65.8744 76.1639 68.3067 76.7899 70.6813 77.5994C72.6534 78.3021 74.4217 79.4858 75.8282 81.0447C77.2844 82.6352 78.0086 84.8055 78.0007 87.5556C78.0073 90.5947 76.9236 93.2435 74.7498 95.502Z" fill="white"/>
<defs>
<linearGradient id="paint0_linear_215_57" x1="20" y1="121" x2="102.979" y2="41.0159" gradientUnits="userSpaceOnUse">
<stop stop-color="#111111"/>
<stop offset="1" stop-color="white"/>
</linearGradient>
</defs>
</svg>
