<svg width="468" height="280" viewBox="0 0 468 280" fill="none" xmlns="http://www.w3.org/2000/svg">
<rect x="0.499023" y="0.499023" width="467" height="279" rx="14.5" fill="#161616" stroke="#FCA628"/>
<path d="M143.399 86.975V91.999H125.959V88.031L134.343 80.191C135.154 79.423 135.698 78.7724 135.975 78.239C136.252 77.6844 136.391 77.1297 136.391 76.575C136.391 75.8497 136.146 75.2844 135.655 74.879C135.164 74.4737 134.45 74.271 133.511 74.271C132.679 74.271 131.911 74.463 131.207 74.847C130.524 75.2097 129.959 75.743 129.511 76.447L124.807 73.823C125.682 72.3724 126.908 71.231 128.487 70.399C130.066 69.567 131.932 69.151 134.087 69.151C135.794 69.151 137.298 69.4284 138.599 69.983C139.922 70.5377 140.946 71.3377 141.671 72.383C142.418 73.407 142.791 74.6017 142.791 75.967C142.791 77.183 142.524 78.335 141.991 79.423C141.479 80.4897 140.476 81.7057 138.983 83.071L134.759 86.975H143.399ZM148.98 92.287C147.956 92.287 147.092 91.9457 146.388 91.263C145.684 90.5804 145.332 89.7164 145.332 88.671C145.332 87.6044 145.673 86.7404 146.356 86.079C147.06 85.4177 147.934 85.087 148.98 85.087C150.046 85.087 150.921 85.4177 151.604 86.079C152.286 86.7404 152.628 87.6044 152.628 88.671C152.628 89.7164 152.276 90.5804 151.572 91.263C150.889 91.9457 150.025 92.287 148.98 92.287Z" fill="#FCA628"/>
<path d="M186.395 69.599V91.999H181.179L171.291 80.063V91.999H165.083V69.599H170.299L180.187 81.535V69.599H186.395ZM205.872 87.647H196.4L194.64 91.999H188.176L198.064 69.599H204.304L214.224 91.999H207.632L205.872 87.647ZM204.016 82.975L201.136 75.807L198.256 82.975H204.016ZM203.696 67.999C203.12 67.999 202.597 67.8924 202.128 67.679C201.68 67.4444 201.179 67.135 200.624 66.751C200.219 66.4737 199.909 66.2817 199.696 66.175C199.504 66.0684 199.301 66.015 199.088 66.015C198.661 66.015 198.32 66.1644 198.064 66.463C197.808 66.7617 197.659 67.1777 197.616 67.711H194.64C194.683 66.1537 195.067 64.9164 195.792 63.999C196.517 63.0817 197.488 62.623 198.704 62.623C199.28 62.623 199.792 62.7297 200.24 62.943C200.688 63.1564 201.2 63.455 201.776 63.839C202.181 64.1164 202.48 64.3084 202.672 64.415C202.885 64.5217 203.099 64.575 203.312 64.575C203.739 64.575 204.08 64.4364 204.336 64.159C204.592 63.8604 204.741 63.4657 204.784 62.975H207.76C207.717 64.4897 207.333 65.7057 206.608 66.623C205.883 67.5404 204.912 67.999 203.696 67.999ZM227.004 92.447C224.636 92.447 222.502 91.9457 220.604 90.943C218.726 89.9404 217.244 88.5537 216.156 86.783C215.089 85.0124 214.556 83.0177 214.556 80.799C214.556 78.5804 215.089 76.5857 216.156 74.815C217.244 73.0444 218.726 71.6577 220.604 70.655C222.502 69.6524 224.636 69.151 227.004 69.151C229.372 69.151 231.494 69.6524 233.372 70.655C235.27 71.6577 236.753 73.0444 237.82 74.815C238.908 76.5857 239.452 78.5804 239.452 80.799C239.452 83.0177 238.908 85.0124 237.82 86.783C236.753 88.5537 235.27 89.9404 233.372 90.943C231.494 91.9457 229.372 92.447 227.004 92.447ZM227.004 87.199C228.134 87.199 229.158 86.9324 230.076 86.399C230.993 85.8657 231.718 85.119 232.252 84.159C232.785 83.1777 233.052 82.0577 233.052 80.799C233.052 79.5404 232.785 78.431 232.252 77.471C231.718 76.4897 230.993 75.7324 230.076 75.199C229.158 74.6657 228.134 74.399 227.004 74.399C225.873 74.399 224.849 74.6657 223.932 75.199C223.014 75.7324 222.289 76.4897 221.756 77.471C221.222 78.431 220.956 79.5404 220.956 80.799C220.956 82.0577 221.222 83.1777 221.756 84.159C222.289 85.119 223.014 85.8657 223.932 86.399C224.849 86.9324 225.873 87.199 227.004 87.199ZM270.067 87.103V91.999H252.083V69.599H269.651V74.495H258.355V78.271H268.307V83.007H258.355V87.103H270.067ZM294.895 69.599V91.999H289.679L279.791 80.063V91.999H273.583V69.599H278.799L288.687 81.535V69.599H294.895ZM314.372 80.319H319.972V89.599C318.692 90.5164 317.22 91.2204 315.556 91.711C313.892 92.2017 312.228 92.447 310.564 92.447C308.217 92.447 306.105 91.9564 304.228 90.975C302.351 89.9724 300.879 88.5857 299.812 86.815C298.745 85.0444 298.212 83.039 298.212 80.799C298.212 78.559 298.745 76.5537 299.812 74.783C300.879 73.0124 302.361 71.6364 304.26 70.655C306.159 69.6524 308.303 69.151 310.692 69.151C312.783 69.151 314.66 69.503 316.324 70.207C317.988 70.911 319.375 71.9244 320.484 73.247L316.452 76.895C314.937 75.231 313.124 74.399 311.012 74.399C309.092 74.399 307.545 74.9857 306.372 76.159C305.199 77.311 304.612 78.8577 304.612 80.799C304.612 82.0364 304.879 83.1457 305.412 84.127C305.945 85.087 306.692 85.8444 307.652 86.399C308.612 86.9324 309.711 87.199 310.948 87.199C312.164 87.199 313.305 86.9537 314.372 86.463V80.319ZM338.997 87.647H329.525L327.765 91.999H321.301L331.189 69.599H337.429L347.349 91.999H340.757L338.997 87.647ZM337.141 82.975L334.261 75.807L331.381 82.975H337.141ZM354.51 92.447C352.867 92.447 351.374 92.1697 350.03 91.615C348.686 91.039 347.587 90.2177 346.734 89.151L350.19 85.055C351.385 86.6124 352.675 87.391 354.062 87.391C354.979 87.391 355.673 87.1137 356.142 86.559C356.633 86.0044 356.878 85.1937 356.878 84.127V74.495H349.134V69.599H363.15V83.743C363.15 86.6444 362.414 88.8204 360.942 90.271C359.491 91.7217 357.347 92.447 354.51 92.447ZM381.966 87.647H372.494L370.734 91.999H364.27L374.158 69.599H380.398L390.318 91.999H383.726L381.966 87.647ZM380.11 82.975L377.23 75.807L374.35 82.975H380.11ZM412.338 91.999L412.274 80.127L406.514 89.791H403.698L397.97 80.447V91.999H392.114V69.599H397.33L405.202 82.527L412.882 69.599H418.098L418.162 91.999H412.338Z" fill="white"/>
<path d="M36.967 142.199V158.999H34.999L24.919 146.471V158.999H22.519V142.199H24.487L34.567 154.727V142.199H36.967ZM46.2916 146.159C48.0516 146.159 49.3956 146.591 50.3236 147.455C51.2676 148.319 51.7396 149.607 51.7396 151.319V158.999H49.5556V157.319C49.1716 157.911 48.6196 158.367 47.8996 158.687C47.1956 158.991 46.3556 159.143 45.3796 159.143C43.9556 159.143 42.8116 158.799 41.9476 158.111C41.0996 157.423 40.6756 156.519 40.6756 155.399C40.6756 154.279 41.0836 153.383 41.8996 152.711C42.7156 152.023 44.0116 151.679 45.7876 151.679H49.4356V151.223C49.4356 150.231 49.1476 149.471 48.5716 148.943C47.9956 148.415 47.1476 148.151 46.0276 148.151C45.2756 148.151 44.5396 148.279 43.8196 148.535C43.0996 148.775 42.4916 149.103 41.9956 149.519L41.0356 147.791C41.6916 147.263 42.4756 146.863 43.3876 146.591C44.2996 146.303 45.2676 146.159 46.2916 146.159ZM45.7636 157.367C46.6436 157.367 47.4036 157.175 48.0436 156.791C48.6836 156.391 49.1476 155.831 49.4356 155.111V153.335H45.8836C43.9316 153.335 42.9556 153.991 42.9556 155.303C42.9556 155.943 43.2036 156.447 43.6996 156.815C44.1956 157.183 44.8836 157.367 45.7636 157.367ZM48.1396 144.359C47.7556 144.359 47.4196 144.279 47.1316 144.119C46.8596 143.959 46.5156 143.719 46.0996 143.399C45.8596 143.175 45.6516 143.015 45.4756 142.919C45.2996 142.807 45.1236 142.751 44.9476 142.751C44.5956 142.751 44.3076 142.887 44.0836 143.159C43.8596 143.415 43.7396 143.775 43.7236 144.239H42.4276C42.4596 143.343 42.6836 142.631 43.0996 142.103C43.5316 141.575 44.0916 141.311 44.7796 141.311C45.1636 141.311 45.4996 141.399 45.7876 141.575C46.0916 141.735 46.4356 141.975 46.8196 142.295C47.0916 142.519 47.3076 142.687 47.4676 142.799C47.6276 142.895 47.7956 142.943 47.9716 142.943C48.3236 142.943 48.6116 142.815 48.8356 142.559C49.0596 142.303 49.1796 141.951 49.1956 141.503H50.4916C50.4596 142.367 50.2276 143.063 49.7956 143.591C49.3796 144.103 48.8276 144.359 48.1396 144.359ZM61.5216 159.143C60.2576 159.143 59.1216 158.863 58.1136 158.303C57.1056 157.743 56.3136 156.975 55.7376 155.999C55.1776 155.007 54.8976 153.887 54.8976 152.639C54.8976 151.391 55.1776 150.279 55.7376 149.303C56.3136 148.311 57.1056 147.543 58.1136 146.999C59.1216 146.439 60.2576 146.159 61.5216 146.159C62.7856 146.159 63.9136 146.439 64.9056 146.999C65.9136 147.543 66.6976 148.311 67.2576 149.303C67.8336 150.279 68.1216 151.391 68.1216 152.639C68.1216 153.887 67.8336 155.007 67.2576 155.999C66.6976 156.975 65.9136 157.743 64.9056 158.303C63.9136 158.863 62.7856 159.143 61.5216 159.143ZM61.5216 157.127C62.3376 157.127 63.0656 156.943 63.7056 156.575C64.3616 156.191 64.8736 155.663 65.2416 154.991C65.6096 154.303 65.7936 153.519 65.7936 152.639C65.7936 151.759 65.6096 150.983 65.2416 150.311C64.8736 149.623 64.3616 149.095 63.7056 148.727C63.0656 148.359 62.3376 148.175 61.5216 148.175C60.7056 148.175 59.9696 148.359 59.3136 148.727C58.6736 149.095 58.1616 149.623 57.7776 150.311C57.4096 150.983 57.2256 151.759 57.2256 152.639C57.2256 153.519 57.4096 154.303 57.7776 154.991C58.1616 155.663 58.6736 156.191 59.3136 156.575C59.9696 156.943 60.7056 157.127 61.5216 157.127ZM83.2973 159.143C82.0013 159.143 80.8413 158.863 79.8173 158.303C78.8093 157.743 78.0173 156.975 77.4413 155.999C76.8653 155.007 76.5773 153.887 76.5773 152.639C76.5773 151.391 76.8653 150.279 77.4413 149.303C78.0173 148.311 78.8093 147.543 79.8173 146.999C80.8413 146.439 82.0013 146.159 83.2973 146.159C84.4493 146.159 85.4733 146.391 86.3693 146.855C87.2813 147.319 87.9853 147.991 88.4813 148.871L86.7293 149.999C86.3293 149.391 85.8333 148.935 85.2413 148.631C84.6493 148.327 83.9933 148.175 83.2733 148.175C82.4413 148.175 81.6893 148.359 81.0173 148.727C80.3613 149.095 79.8413 149.623 79.4573 150.311C79.0893 150.983 78.9053 151.759 78.9053 152.639C78.9053 153.535 79.0893 154.327 79.4573 155.015C79.8413 155.687 80.3613 156.207 81.0173 156.575C81.6893 156.943 82.4413 157.127 83.2733 157.127C83.9933 157.127 84.6493 156.975 85.2413 156.671C85.8333 156.367 86.3293 155.911 86.7293 155.303L88.4813 156.407C87.9853 157.287 87.2813 157.967 86.3693 158.447C85.4733 158.911 84.4493 159.143 83.2973 159.143ZM96.7248 159.143C95.4608 159.143 94.3248 158.863 93.3168 158.303C92.3088 157.743 91.5168 156.975 90.9408 155.999C90.3808 155.007 90.1008 153.887 90.1008 152.639C90.1008 151.391 90.3808 150.279 90.9408 149.303C91.5168 148.311 92.3088 147.543 93.3168 146.999C94.3248 146.439 95.4608 146.159 96.7248 146.159C97.9888 146.159 99.1168 146.439 100.109 146.999C101.117 147.543 101.901 148.311 102.461 149.303C103.037 150.279 103.325 151.391 103.325 152.639C103.325 153.887 103.037 155.007 102.461 155.999C101.901 156.975 101.117 157.743 100.109 158.303C99.1168 158.863 97.9888 159.143 96.7248 159.143ZM96.7248 157.127C97.5408 157.127 98.2688 156.943 98.9088 156.575C99.5648 156.191 100.077 155.663 100.445 154.991C100.813 154.303 100.997 153.519 100.997 152.639C100.997 151.759 100.813 150.983 100.445 150.311C100.077 149.623 99.5648 149.095 98.9088 148.727C98.2688 148.359 97.5408 148.175 96.7248 148.175C95.9088 148.175 95.1728 148.359 94.5168 148.727C93.8768 149.095 93.3648 149.623 92.9808 150.311C92.6128 150.983 92.4288 151.759 92.4288 152.639C92.4288 153.519 92.6128 154.303 92.9808 154.991C93.3648 155.663 93.8768 156.191 94.5168 156.575C95.1728 156.943 95.9088 157.127 96.7248 157.127ZM113.303 146.159C114.919 146.159 116.199 146.631 117.143 147.575C118.103 148.503 118.583 149.871 118.583 151.679V158.999H116.279V151.943C116.279 150.711 115.983 149.783 115.391 149.159C114.799 148.535 113.951 148.223 112.847 148.223C111.599 148.223 110.615 148.591 109.895 149.327C109.175 150.047 108.815 151.087 108.815 152.447V158.999H106.511V146.279H108.719V148.199C109.183 147.543 109.807 147.039 110.591 146.687C111.391 146.335 112.295 146.159 113.303 146.159ZM126.495 159.143C125.455 159.143 124.455 159.007 123.495 158.735C122.535 158.447 121.783 158.087 121.239 157.655L122.199 155.831C122.759 156.231 123.439 156.551 124.239 156.791C125.039 157.031 125.847 157.151 126.663 157.151C128.679 157.151 129.687 156.575 129.687 155.423C129.687 155.039 129.551 154.735 129.279 154.511C129.007 154.287 128.663 154.127 128.247 154.031C127.847 153.919 127.271 153.799 126.519 153.671C125.495 153.511 124.655 153.327 123.999 153.119C123.359 152.911 122.807 152.559 122.343 152.063C121.879 151.567 121.647 150.871 121.647 149.975C121.647 148.823 122.127 147.903 123.087 147.215C124.047 146.511 125.335 146.159 126.951 146.159C127.799 146.159 128.647 146.263 129.495 146.471C130.343 146.679 131.039 146.959 131.583 147.311L130.599 149.135C129.559 148.463 128.335 148.127 126.927 148.127C125.951 148.127 125.207 148.287 124.695 148.607C124.183 148.927 123.927 149.351 123.927 149.879C123.927 150.295 124.071 150.623 124.359 150.863C124.647 151.103 124.999 151.279 125.415 151.391C125.847 151.503 126.447 151.631 127.215 151.775C128.239 151.951 129.063 152.143 129.687 152.351C130.327 152.543 130.871 152.879 131.319 153.359C131.767 153.839 131.991 154.511 131.991 155.375C131.991 156.527 131.495 157.447 130.503 158.135C129.527 158.807 128.191 159.143 126.495 159.143ZM146.367 152.711C146.367 152.887 146.351 153.119 146.319 153.407H135.999C136.143 154.527 136.631 155.431 137.463 156.119C138.311 156.791 139.359 157.127 140.607 157.127C142.127 157.127 143.351 156.615 144.279 155.591L145.551 157.079C144.975 157.751 144.255 158.263 143.391 158.615C142.543 158.967 141.591 159.143 140.535 159.143C139.191 159.143 137.999 158.871 136.959 158.327C135.919 157.767 135.111 156.991 134.535 155.999C133.975 155.007 133.695 153.887 133.695 152.639C133.695 151.407 133.967 150.295 134.511 149.303C135.071 148.311 135.831 147.543 136.791 146.999C137.767 146.439 138.863 146.159 140.079 146.159C141.295 146.159 142.375 146.439 143.319 146.999C144.279 147.543 145.023 148.311 145.551 149.303C146.095 150.295 146.367 151.431 146.367 152.711ZM140.079 148.103C138.975 148.103 138.047 148.439 137.295 149.111C136.559 149.783 136.127 150.663 135.999 151.751H144.159C144.031 150.679 143.591 149.807 142.839 149.135C142.103 148.447 141.183 148.103 140.079 148.103ZM161.734 146.279V157.271C161.734 159.495 161.182 161.135 160.078 162.191C158.974 163.263 157.326 163.799 155.134 163.799C153.934 163.799 152.79 163.631 151.702 163.295C150.614 162.975 149.734 162.511 149.062 161.903L150.166 160.127C150.758 160.639 151.486 161.039 152.35 161.327C153.23 161.631 154.134 161.783 155.062 161.783C156.55 161.783 157.646 161.431 158.35 160.727C159.07 160.023 159.43 158.951 159.43 157.511V156.503C158.886 157.159 158.214 157.655 157.414 157.991C156.63 158.311 155.774 158.471 154.846 158.471C153.63 158.471 152.526 158.215 151.534 157.703C150.558 157.175 149.79 156.447 149.23 155.519C148.67 154.575 148.39 153.503 148.39 152.303C148.39 151.103 148.67 150.039 149.23 149.111C149.79 148.167 150.558 147.439 151.534 146.927C152.526 146.415 153.63 146.159 154.846 146.159C155.806 146.159 156.694 146.335 157.51 146.687C158.342 147.039 159.022 147.559 159.55 148.247V146.279H161.734ZM155.11 156.455C155.942 156.455 156.686 156.279 157.342 155.927C158.014 155.575 158.534 155.087 158.902 154.463C159.286 153.823 159.478 153.103 159.478 152.303C159.478 151.071 159.07 150.079 158.254 149.327C157.438 148.559 156.39 148.175 155.11 148.175C153.814 148.175 152.758 148.559 151.942 149.327C151.126 150.079 150.718 151.071 150.718 152.303C150.718 153.103 150.902 153.823 151.27 154.463C151.654 155.087 152.174 155.575 152.83 155.927C153.502 156.279 154.262 156.455 155.11 156.455ZM177.992 146.279V158.999H175.808V157.079C175.344 157.735 174.728 158.247 173.96 158.615C173.208 158.967 172.384 159.143 171.488 159.143C169.792 159.143 168.456 158.679 167.48 157.751C166.504 156.807 166.016 155.423 166.016 153.599V146.279H168.32V153.335C168.32 154.567 168.616 155.503 169.208 156.143C169.8 156.767 170.648 157.079 171.752 157.079C172.968 157.079 173.928 156.711 174.632 155.975C175.336 155.239 175.688 154.199 175.688 152.855V146.279H177.992ZM193.874 152.711C193.874 152.887 193.858 153.119 193.826 153.407H183.506C183.65 154.527 184.138 155.431 184.97 156.119C185.818 156.791 186.866 157.127 188.114 157.127C189.634 157.127 190.858 156.615 191.786 155.591L193.058 157.079C192.482 157.751 191.762 158.263 190.898 158.615C190.05 158.967 189.098 159.143 188.042 159.143C186.698 159.143 185.506 158.871 184.466 158.327C183.426 157.767 182.618 156.991 182.042 155.999C181.482 155.007 181.202 153.887 181.202 152.639C181.202 151.407 181.474 150.295 182.018 149.303C182.578 148.311 183.338 147.543 184.298 146.999C185.274 146.439 186.37 146.159 187.586 146.159C188.802 146.159 189.882 146.439 190.826 146.999C191.786 147.543 192.53 148.311 193.058 149.303C193.602 150.295 193.874 151.431 193.874 152.711ZM187.586 148.103C186.482 148.103 185.554 148.439 184.802 149.111C184.066 149.783 183.634 150.663 183.506 151.751H191.666C191.538 150.679 191.098 149.807 190.346 149.135C189.61 148.447 188.69 148.103 187.586 148.103ZM212.986 146.159C214.586 146.159 215.85 146.623 216.778 147.551C217.722 148.479 218.194 149.855 218.194 151.679V158.999H215.89V151.943C215.89 150.711 215.602 149.783 215.026 149.159C214.466 148.535 213.658 148.223 212.602 148.223C211.434 148.223 210.506 148.591 209.818 149.327C209.13 150.047 208.786 151.087 208.786 152.447V158.999H206.482V151.943C206.482 150.711 206.194 149.783 205.618 149.159C205.058 148.535 204.25 148.223 203.194 148.223C202.026 148.223 201.098 148.591 200.41 149.327C199.722 150.047 199.378 151.087 199.378 152.447V158.999H197.074V146.279H199.282V148.175C199.746 147.519 200.354 147.023 201.106 146.687C201.858 146.335 202.714 146.159 203.674 146.159C204.666 146.159 205.546 146.359 206.314 146.759C207.082 147.159 207.674 147.743 208.09 148.511C208.57 147.775 209.234 147.199 210.082 146.783C210.946 146.367 211.914 146.159 212.986 146.159ZM241.046 146.279V157.271C241.046 159.495 240.494 161.135 239.39 162.191C238.286 163.263 236.638 163.799 234.446 163.799C233.246 163.799 232.102 163.631 231.014 163.295C229.926 162.975 229.046 162.511 228.374 161.903L229.478 160.127C230.07 160.639 230.798 161.039 231.662 161.327C232.542 161.631 233.446 161.783 234.374 161.783C235.862 161.783 236.958 161.431 237.662 160.727C238.382 160.023 238.742 158.951 238.742 157.511V156.503C238.198 157.159 237.526 157.655 236.726 157.991C235.942 158.311 235.086 158.471 234.158 158.471C232.942 158.471 231.838 158.215 230.846 157.703C229.87 157.175 229.102 156.447 228.542 155.519C227.982 154.575 227.702 153.503 227.702 152.303C227.702 151.103 227.982 150.039 228.542 149.111C229.102 148.167 229.87 147.439 230.846 146.927C231.838 146.415 232.942 146.159 234.158 146.159C235.118 146.159 236.006 146.335 236.822 146.687C237.654 147.039 238.334 147.559 238.862 148.247V146.279H241.046ZM234.422 156.455C235.254 156.455 235.998 156.279 236.654 155.927C237.326 155.575 237.846 155.087 238.214 154.463C238.598 153.823 238.79 153.103 238.79 152.303C238.79 151.071 238.382 150.079 237.566 149.327C236.75 148.559 235.702 148.175 234.422 148.175C233.126 148.175 232.07 148.559 231.254 149.327C230.438 150.079 230.03 151.071 230.03 152.303C230.03 153.103 230.214 153.823 230.582 154.463C230.966 155.087 231.486 155.575 232.142 155.927C232.814 156.279 233.574 156.455 234.422 156.455ZM256.945 152.711C256.945 152.887 256.929 153.119 256.897 153.407H246.577C246.721 154.527 247.209 155.431 248.041 156.119C248.889 156.791 249.937 157.127 251.185 157.127C252.705 157.127 253.929 156.615 254.857 155.591L256.129 157.079C255.553 157.751 254.833 158.263 253.969 158.615C253.121 158.967 252.169 159.143 251.113 159.143C249.769 159.143 248.577 158.871 247.537 158.327C246.497 157.767 245.689 156.991 245.113 155.999C244.553 155.007 244.273 153.887 244.273 152.639C244.273 151.407 244.545 150.295 245.089 149.303C245.649 148.311 246.409 147.543 247.369 146.999C248.345 146.439 249.441 146.159 250.657 146.159C251.873 146.159 252.953 146.439 253.897 146.999C254.857 147.543 255.601 148.311 256.129 149.303C256.673 150.295 256.945 151.431 256.945 152.711ZM250.657 148.103C249.553 148.103 248.625 148.439 247.873 149.111C247.137 149.783 246.705 150.663 246.577 151.751H254.737C254.609 150.679 254.169 149.807 253.417 149.135C252.681 148.447 251.761 148.103 250.657 148.103ZM262.352 148.415C262.752 147.679 263.344 147.119 264.128 146.735C264.912 146.351 265.864 146.159 266.984 146.159V148.391C266.856 148.375 266.68 148.367 266.456 148.367C265.208 148.367 264.224 148.743 263.504 149.495C262.8 150.231 262.448 151.287 262.448 152.663V158.999H260.144V146.279H262.352V148.415ZM274.432 146.159C276.192 146.159 277.536 146.591 278.464 147.455C279.408 148.319 279.88 149.607 279.88 151.319V158.999H277.696V157.319C277.312 157.911 276.76 158.367 276.04 158.687C275.336 158.991 274.496 159.143 273.52 159.143C272.096 159.143 270.952 158.799 270.088 158.111C269.24 157.423 268.816 156.519 268.816 155.399C268.816 154.279 269.224 153.383 270.04 152.711C270.856 152.023 272.152 151.679 273.928 151.679H277.576V151.223C277.576 150.231 277.288 149.471 276.712 148.943C276.136 148.415 275.288 148.151 274.168 148.151C273.416 148.151 272.68 148.279 271.96 148.535C271.24 148.775 270.632 149.103 270.136 149.519L269.176 147.791C269.832 147.263 270.616 146.863 271.528 146.591C272.44 146.303 273.408 146.159 274.432 146.159ZM273.904 157.367C274.784 157.367 275.544 157.175 276.184 156.791C276.824 156.391 277.288 155.831 277.576 155.111V153.335H274.024C272.072 153.335 271.096 153.991 271.096 155.303C271.096 155.943 271.344 156.447 271.84 156.815C272.336 157.183 273.024 157.367 273.904 157.367ZM286.352 148.415C286.752 147.679 287.344 147.119 288.128 146.735C288.912 146.351 289.864 146.159 290.984 146.159V148.391C290.856 148.375 290.68 148.367 290.456 148.367C289.208 148.367 288.224 148.743 287.504 149.495C286.8 150.231 286.448 151.287 286.448 152.663V158.999H284.144V146.279H286.352V148.415ZM305.977 159.143C304.681 159.143 303.521 158.863 302.497 158.303C301.489 157.743 300.697 156.975 300.121 155.999C299.545 155.007 299.257 153.887 299.257 152.639C299.257 151.391 299.545 150.279 300.121 149.303C300.697 148.311 301.489 147.543 302.497 146.999C303.521 146.439 304.681 146.159 305.977 146.159C307.129 146.159 308.153 146.391 309.049 146.855C309.961 147.319 310.665 147.991 311.161 148.871L309.409 149.999C309.009 149.391 308.513 148.935 307.921 148.631C307.329 148.327 306.673 148.175 305.953 148.175C305.121 148.175 304.369 148.359 303.697 148.727C303.041 149.095 302.521 149.623 302.137 150.311C301.769 150.983 301.585 151.759 301.585 152.639C301.585 153.535 301.769 154.327 302.137 155.015C302.521 155.687 303.041 156.207 303.697 156.575C304.369 156.943 305.121 157.127 305.953 157.127C306.673 157.127 307.329 156.975 307.921 156.671C308.513 156.367 309.009 155.911 309.409 155.303L311.161 156.407C310.665 157.287 309.961 157.967 309.049 158.447C308.153 158.911 307.129 159.143 305.977 159.143ZM319.404 159.143C318.14 159.143 317.004 158.863 315.996 158.303C314.988 157.743 314.196 156.975 313.62 155.999C313.06 155.007 312.78 153.887 312.78 152.639C312.78 151.391 313.06 150.279 313.62 149.303C314.196 148.311 314.988 147.543 315.996 146.999C317.004 146.439 318.14 146.159 319.404 146.159C320.668 146.159 321.796 146.439 322.788 146.999C323.796 147.543 324.58 148.311 325.14 149.303C325.716 150.279 326.004 151.391 326.004 152.639C326.004 153.887 325.716 155.007 325.14 155.999C324.58 156.975 323.796 157.743 322.788 158.303C321.796 158.863 320.668 159.143 319.404 159.143ZM319.404 157.127C320.22 157.127 320.948 156.943 321.588 156.575C322.244 156.191 322.756 155.663 323.124 154.991C323.492 154.303 323.676 153.519 323.676 152.639C323.676 151.759 323.492 150.983 323.124 150.311C322.756 149.623 322.244 149.095 321.588 148.727C320.948 148.359 320.22 148.175 319.404 148.175C318.588 148.175 317.852 148.359 317.196 148.727C316.556 149.095 316.044 149.623 315.66 150.311C315.292 150.983 315.108 151.759 315.108 152.639C315.108 153.519 315.292 154.303 315.66 154.991C316.044 155.663 316.556 156.191 317.196 156.575C317.852 156.943 318.588 157.127 319.404 157.127ZM335.983 146.159C337.599 146.159 338.879 146.631 339.823 147.575C340.783 148.503 341.263 149.871 341.263 151.679V158.999H338.959V151.943C338.959 150.711 338.663 149.783 338.071 149.159C337.479 148.535 336.631 148.223 335.527 148.223C334.279 148.223 333.295 148.591 332.575 149.327C331.855 150.047 331.495 151.087 331.495 152.447V158.999H329.191V146.279H331.399V148.199C331.863 147.543 332.487 147.039 333.271 146.687C334.071 146.335 334.975 146.159 335.983 146.159ZM352.679 158.255C352.343 158.543 351.927 158.767 351.431 158.927C350.935 159.071 350.423 159.143 349.895 159.143C348.615 159.143 347.623 158.799 346.919 158.111C346.215 157.423 345.863 156.439 345.863 155.159V148.175H343.703V146.279H345.863V143.495H348.167V146.279H351.815V148.175H348.167V155.063C348.167 155.751 348.335 156.279 348.671 156.647C349.023 157.015 349.519 157.199 350.159 157.199C350.863 157.199 351.463 156.999 351.959 156.599L352.679 158.255ZM360.096 146.159C361.856 146.159 363.2 146.591 364.128 147.455C365.072 148.319 365.544 149.607 365.544 151.319V158.999H363.36V157.319C362.976 157.911 362.424 158.367 361.704 158.687C361 158.991 360.16 159.143 359.184 159.143C357.76 159.143 356.616 158.799 355.752 158.111C354.904 157.423 354.48 156.519 354.48 155.399C354.48 154.279 354.888 153.383 355.704 152.711C356.52 152.023 357.816 151.679 359.592 151.679H363.24V151.223C363.24 150.231 362.952 149.471 362.376 148.943C361.8 148.415 360.952 148.151 359.832 148.151C359.08 148.151 358.344 148.279 357.624 148.535C356.904 148.775 356.296 149.103 355.8 149.519L354.84 147.791C355.496 147.263 356.28 146.863 357.192 146.591C358.104 146.303 359.072 146.159 360.096 146.159ZM359.568 157.367C360.448 157.367 361.208 157.175 361.848 156.791C362.488 156.391 362.952 155.831 363.24 155.111V153.335H359.688C357.736 153.335 356.76 153.991 356.76 155.303C356.76 155.943 357.008 156.447 357.504 156.815C358 157.183 358.688 157.367 359.568 157.367ZM376.96 158.255C376.624 158.543 376.208 158.767 375.712 158.927C375.216 159.071 374.704 159.143 374.176 159.143C372.896 159.143 371.904 158.799 371.2 158.111C370.496 157.423 370.144 156.439 370.144 155.159V148.175H367.984V146.279H370.144V143.495H372.448V146.279H376.096V148.175H372.448V155.063C372.448 155.751 372.616 156.279 372.952 156.647C373.304 157.015 373.8 157.199 374.44 157.199C375.144 157.199 375.744 156.999 376.24 156.599L376.96 158.255ZM384.772 159.143C383.508 159.143 382.372 158.863 381.364 158.303C380.356 157.743 379.564 156.975 378.988 155.999C378.428 155.007 378.148 153.887 378.148 152.639C378.148 151.391 378.428 150.279 378.988 149.303C379.564 148.311 380.356 147.543 381.364 146.999C382.372 146.439 383.508 146.159 384.772 146.159C386.036 146.159 387.164 146.439 388.156 146.999C389.164 147.543 389.948 148.311 390.508 149.303C391.084 150.279 391.372 151.391 391.372 152.639C391.372 153.887 391.084 155.007 390.508 155.999C389.948 156.975 389.164 157.743 388.156 158.303C387.164 158.863 386.036 159.143 384.772 159.143ZM384.772 157.127C385.588 157.127 386.316 156.943 386.956 156.575C387.612 156.191 388.124 155.663 388.492 154.991C388.86 154.303 389.044 153.519 389.044 152.639C389.044 151.759 388.86 150.983 388.492 150.311C388.124 149.623 387.612 149.095 386.956 148.727C386.316 148.359 385.588 148.175 384.772 148.175C383.956 148.175 383.22 148.359 382.564 148.727C381.924 149.095 381.412 149.623 381.028 150.311C380.66 150.983 380.476 151.759 380.476 152.639C380.476 153.519 380.66 154.303 381.028 154.991C381.412 155.663 381.924 156.191 382.564 156.575C383.22 156.943 383.956 157.127 384.772 157.127ZM398.206 159.143C397.166 159.143 396.166 159.007 395.206 158.735C394.246 158.447 393.494 158.087 392.95 157.655L393.91 155.831C394.47 156.231 395.15 156.551 395.95 156.791C396.75 157.031 397.558 157.151 398.374 157.151C400.39 157.151 401.398 156.575 401.398 155.423C401.398 155.039 401.262 154.735 400.99 154.511C400.718 154.287 400.374 154.127 399.958 154.031C399.558 153.919 398.982 153.799 398.23 153.671C397.206 153.511 396.366 153.327 395.71 153.119C395.07 152.911 394.518 152.559 394.054 152.063C393.59 151.567 393.358 150.871 393.358 149.975C393.358 148.823 393.838 147.903 394.798 147.215C395.758 146.511 397.046 146.159 398.662 146.159C399.51 146.159 400.358 146.263 401.206 146.471C402.054 146.679 402.75 146.959 403.294 147.311L402.31 149.135C401.27 148.463 400.046 148.127 398.638 148.127C397.662 148.127 396.918 148.287 396.406 148.607C395.894 148.927 395.638 149.351 395.638 149.879C395.638 150.295 395.782 150.623 396.07 150.863C396.358 151.103 396.71 151.279 397.126 151.391C397.558 151.503 398.158 151.631 398.926 151.775C399.95 151.951 400.774 152.143 401.398 152.351C402.038 152.543 402.582 152.879 403.03 153.359C403.478 153.839 403.702 154.511 403.702 155.375C403.702 156.527 403.206 157.447 402.214 158.135C401.238 158.807 399.902 159.143 398.206 159.143ZM34.183 182.279V199.655H31.879V193.079C31.351 193.751 30.703 194.263 29.935 194.615C29.183 194.967 28.351 195.143 27.439 195.143C26.207 195.143 25.103 194.871 24.127 194.327C23.151 193.783 22.383 193.023 21.823 192.047C21.279 191.055 21.007 189.919 21.007 188.639C21.007 187.359 21.279 186.231 21.823 185.255C22.383 184.279 23.151 183.519 24.127 182.975C25.103 182.431 26.207 182.159 27.439 182.159C28.383 182.159 29.247 182.343 30.031 182.711C30.815 183.063 31.463 183.591 31.975 184.295V182.279H34.183ZM27.631 193.127C28.431 193.127 29.159 192.943 29.815 192.575C30.471 192.191 30.983 191.663 31.351 190.991C31.719 190.303 31.903 189.519 31.903 188.639C31.903 187.759 31.711 186.983 31.327 186.311C30.959 185.639 30.447 185.119 29.791 184.751C29.151 184.367 28.431 184.175 27.631 184.175C26.815 184.175 26.079 184.359 25.423 184.727C24.783 185.095 24.271 185.623 23.887 186.311C23.519 186.983 23.335 187.759 23.335 188.639C23.335 189.519 23.519 190.303 23.887 190.991C24.271 191.663 24.783 192.191 25.423 192.575C26.079 192.943 26.815 193.127 27.631 193.127ZM50.3984 182.279V194.999H48.2144V193.079C47.7504 193.735 47.1344 194.247 46.3664 194.615C45.6144 194.967 44.7904 195.143 43.8944 195.143C42.1984 195.143 40.8624 194.679 39.8864 193.751C38.9104 192.807 38.4224 191.423 38.4224 189.599V182.279H40.7264V189.335C40.7264 190.567 41.0224 191.503 41.6144 192.143C42.2064 192.767 43.0544 193.079 44.1584 193.079C45.3744 193.079 46.3344 192.711 47.0384 191.975C47.7424 191.239 48.0944 190.199 48.0944 188.855V182.279H50.3984ZM59.4166 182.159C61.1766 182.159 62.5206 182.591 63.4486 183.455C64.3926 184.319 64.8646 185.607 64.8646 187.319V194.999H62.6806V193.319C62.2966 193.911 61.7446 194.367 61.0246 194.687C60.3206 194.991 59.4806 195.143 58.5046 195.143C57.0806 195.143 55.9366 194.799 55.0726 194.111C54.2246 193.423 53.8006 192.519 53.8006 191.399C53.8006 190.279 54.2086 189.383 55.0246 188.711C55.8406 188.023 57.1366 187.679 58.9126 187.679H62.5606V187.223C62.5606 186.231 62.2726 185.471 61.6966 184.943C61.1206 184.415 60.2726 184.151 59.1526 184.151C58.4006 184.151 57.6646 184.279 56.9446 184.535C56.2246 184.775 55.6166 185.103 55.1206 185.519L54.1606 183.791C54.8166 183.263 55.6006 182.863 56.5126 182.591C57.4246 182.303 58.3926 182.159 59.4166 182.159ZM58.8886 193.367C59.7686 193.367 60.5286 193.175 61.1686 192.791C61.8086 192.391 62.2726 191.831 62.5606 191.111V189.335H59.0086C57.0566 189.335 56.0806 189.991 56.0806 191.303C56.0806 191.943 56.3286 192.447 56.8246 192.815C57.3206 193.183 58.0086 193.367 58.8886 193.367ZM69.1283 177.191H71.4323V194.999H69.1283V177.191ZM75.8315 182.279H78.1355V194.999H75.8315V182.279ZM76.9835 179.831C76.5355 179.831 76.1595 179.687 75.8555 179.399C75.5675 179.111 75.4235 178.759 75.4235 178.343C75.4235 177.927 75.5675 177.575 75.8555 177.287C76.1595 176.983 76.5355 176.831 76.9835 176.831C77.4315 176.831 77.7995 176.975 78.0875 177.263C78.3915 177.535 78.5435 177.879 78.5435 178.295C78.5435 178.727 78.3915 179.095 78.0875 179.399C77.7995 179.687 77.4315 179.831 76.9835 179.831ZM87.1906 178.943C85.8146 178.943 85.1266 179.687 85.1266 181.175V182.279H88.8226V184.175H85.1746V194.999H82.8706V184.175H80.7106V182.279H82.8706V181.151C82.8706 179.887 83.2386 178.887 83.9746 178.151C84.7106 177.415 85.7426 177.047 87.0706 177.047C87.5826 177.047 88.0626 177.111 88.5106 177.239C88.9586 177.367 89.3426 177.551 89.6626 177.791L88.9666 179.543C88.4386 179.143 87.8466 178.943 87.1906 178.943ZM92.9266 182.279H95.2306V194.999H92.9266V182.279ZM94.0786 179.831C93.6306 179.831 93.2546 179.687 92.9506 179.399C92.6626 179.111 92.5186 178.759 92.5186 178.343C92.5186 177.927 92.6626 177.575 92.9506 177.287C93.2546 176.983 93.6306 176.831 94.0786 176.831C94.5266 176.831 94.8946 176.975 95.1826 177.263C95.4866 177.535 95.6386 177.879 95.6386 178.295C95.6386 178.727 95.4866 179.095 95.1826 179.399C94.8946 179.687 94.5266 179.831 94.0786 179.831ZM105.165 195.143C103.869 195.143 102.709 194.863 101.685 194.303C100.677 193.743 99.8845 192.975 99.3085 191.999C98.7325 191.007 98.4445 189.887 98.4445 188.639C98.4445 187.391 98.7325 186.279 99.3085 185.303C99.8845 184.311 100.677 183.543 101.685 182.999C102.709 182.439 103.869 182.159 105.165 182.159C106.317 182.159 107.341 182.391 108.237 182.855C109.149 183.319 109.853 183.991 110.349 184.871L108.597 185.999C108.197 185.391 107.701 184.935 107.109 184.631C106.517 184.327 105.861 184.175 105.141 184.175C104.309 184.175 103.557 184.359 102.885 184.727C102.229 185.095 101.709 185.623 101.325 186.311C100.957 186.983 100.773 187.759 100.773 188.639C100.773 189.535 100.957 190.327 101.325 191.015C101.709 191.687 102.229 192.207 102.885 192.575C103.557 192.943 104.309 193.127 105.141 193.127C105.861 193.127 106.517 192.975 107.109 192.671C107.701 192.367 108.197 191.911 108.597 191.303L110.349 192.407C109.853 193.287 109.149 193.967 108.237 194.447C107.341 194.911 106.317 195.143 105.165 195.143ZM117.963 182.159C119.723 182.159 121.067 182.591 121.995 183.455C122.939 184.319 123.411 185.607 123.411 187.319V194.999H121.227V193.319C120.843 193.911 120.291 194.367 119.571 194.687C118.867 194.991 118.027 195.143 117.051 195.143C115.627 195.143 114.483 194.799 113.619 194.111C112.771 193.423 112.347 192.519 112.347 191.399C112.347 190.279 112.755 189.383 113.571 188.711C114.387 188.023 115.683 187.679 117.459 187.679H121.107V187.223C121.107 186.231 120.819 185.471 120.243 184.943C119.667 184.415 118.819 184.151 117.699 184.151C116.947 184.151 116.211 184.279 115.491 184.535C114.771 184.775 114.163 185.103 113.667 185.519L112.707 183.791C113.363 183.263 114.147 182.863 115.059 182.591C115.971 182.303 116.939 182.159 117.963 182.159ZM117.435 193.367C118.315 193.367 119.075 193.175 119.715 192.791C120.355 192.391 120.819 191.831 121.107 191.111V189.335H117.555C115.603 189.335 114.627 189.991 114.627 191.303C114.627 191.943 114.875 192.447 115.371 192.815C115.867 193.183 116.555 193.367 117.435 193.367ZM139.746 177.191V194.999H137.538V192.983C137.026 193.687 136.378 194.223 135.594 194.591C134.81 194.959 133.946 195.143 133.002 195.143C131.77 195.143 130.666 194.871 129.69 194.327C128.714 193.783 127.946 193.023 127.386 192.047C126.842 191.055 126.57 189.919 126.57 188.639C126.57 187.359 126.842 186.231 127.386 185.255C127.946 184.279 128.714 183.519 129.69 182.975C130.666 182.431 131.77 182.159 133.002 182.159C133.914 182.159 134.754 182.335 135.522 182.687C136.29 183.023 136.93 183.527 137.442 184.199V177.191H139.746ZM133.194 193.127C133.994 193.127 134.722 192.943 135.378 192.575C136.034 192.191 136.546 191.663 136.914 190.991C137.282 190.303 137.466 189.519 137.466 188.639C137.466 187.759 137.282 186.983 136.914 186.311C136.546 185.623 136.034 185.095 135.378 184.727C134.722 184.359 133.994 184.175 133.194 184.175C132.378 184.175 131.642 184.359 130.986 184.727C130.346 185.095 129.834 185.623 129.45 186.311C129.082 186.983 128.898 187.759 128.898 188.639C128.898 189.519 129.082 190.303 129.45 190.991C129.834 191.663 130.346 192.191 130.986 192.575C131.642 192.943 132.378 193.127 133.194 193.127ZM149.553 195.143C148.289 195.143 147.153 194.863 146.145 194.303C145.137 193.743 144.345 192.975 143.769 191.999C143.209 191.007 142.929 189.887 142.929 188.639C142.929 187.391 143.209 186.279 143.769 185.303C144.345 184.311 145.137 183.543 146.145 182.999C147.153 182.439 148.289 182.159 149.553 182.159C150.817 182.159 151.945 182.439 152.937 182.999C153.945 183.543 154.729 184.311 155.289 185.303C155.865 186.279 156.153 187.391 156.153 188.639C156.153 189.887 155.865 191.007 155.289 191.999C154.729 192.975 153.945 193.743 152.937 194.303C151.945 194.863 150.817 195.143 149.553 195.143ZM149.553 193.127C150.369 193.127 151.097 192.943 151.737 192.575C152.393 192.191 152.905 191.663 153.273 190.991C153.641 190.303 153.825 189.519 153.825 188.639C153.825 187.759 153.641 186.983 153.273 186.311C152.905 185.623 152.393 185.095 151.737 184.727C151.097 184.359 150.369 184.175 149.553 184.175C148.737 184.175 148.001 184.359 147.345 184.727C146.705 185.095 146.193 185.623 145.809 186.311C145.441 186.983 145.257 187.759 145.257 188.639C145.257 189.519 145.441 190.303 145.809 190.991C146.193 191.663 146.705 192.191 147.345 192.575C148.001 192.943 148.737 193.127 149.553 193.127ZM162.987 195.143C161.947 195.143 160.947 195.007 159.987 194.735C159.027 194.447 158.275 194.087 157.731 193.655L158.691 191.831C159.251 192.231 159.931 192.551 160.731 192.791C161.531 193.031 162.339 193.151 163.155 193.151C165.171 193.151 166.179 192.575 166.179 191.423C166.179 191.039 166.043 190.735 165.771 190.511C165.499 190.287 165.155 190.127 164.739 190.031C164.339 189.919 163.763 189.799 163.011 189.671C161.987 189.511 161.147 189.327 160.491 189.119C159.851 188.911 159.299 188.559 158.835 188.063C158.371 187.567 158.139 186.871 158.139 185.975C158.139 184.823 158.619 183.903 159.579 183.215C160.539 182.511 161.827 182.159 163.443 182.159C164.291 182.159 165.139 182.263 165.987 182.471C166.835 182.679 167.531 182.959 168.075 183.311L167.091 185.135C166.051 184.463 164.827 184.127 163.419 184.127C162.443 184.127 161.699 184.287 161.187 184.607C160.675 184.927 160.419 185.351 160.419 185.879C160.419 186.295 160.563 186.623 160.851 186.863C161.139 187.103 161.491 187.279 161.907 187.391C162.339 187.503 162.939 187.631 163.707 187.775C164.731 187.951 165.555 188.143 166.179 188.351C166.819 188.543 167.363 188.879 167.811 189.359C168.259 189.839 168.483 190.511 168.483 191.375C168.483 192.527 167.987 193.447 166.995 194.135C166.019 194.807 164.683 195.143 162.987 195.143ZM182.44 182.159C184.2 182.159 185.544 182.591 186.472 183.455C187.416 184.319 187.888 185.607 187.888 187.319V194.999H185.704V193.319C185.32 193.911 184.768 194.367 184.048 194.687C183.344 194.991 182.504 195.143 181.528 195.143C180.104 195.143 178.96 194.799 178.096 194.111C177.248 193.423 176.824 192.519 176.824 191.399C176.824 190.279 177.232 189.383 178.048 188.711C178.864 188.023 180.16 187.679 181.936 187.679H185.584V187.223C185.584 186.231 185.296 185.471 184.72 184.943C184.144 184.415 183.296 184.151 182.176 184.151C181.424 184.151 180.688 184.279 179.968 184.535C179.248 184.775 178.64 185.103 178.144 185.519L177.184 183.791C177.84 183.263 178.624 182.863 179.536 182.591C180.448 182.303 181.416 182.159 182.44 182.159ZM181.912 193.367C182.792 193.367 183.552 193.175 184.192 192.791C184.832 192.391 185.296 191.831 185.584 191.111V189.335H182.032C180.08 189.335 179.104 189.991 179.104 191.303C179.104 191.943 179.352 192.447 179.848 192.815C180.344 193.183 181.032 193.367 181.912 193.367ZM199.304 194.255C198.968 194.543 198.552 194.767 198.056 194.927C197.56 195.071 197.048 195.143 196.52 195.143C195.24 195.143 194.248 194.799 193.544 194.111C192.84 193.423 192.488 192.439 192.488 191.159V184.175H190.328V182.279H192.488V179.495H194.792V182.279H198.44V184.175H194.792V191.063C194.792 191.751 194.96 192.279 195.296 192.647C195.648 193.015 196.144 193.199 196.784 193.199C197.488 193.199 198.088 192.999 198.584 192.599L199.304 194.255ZM204.297 184.415C204.697 183.679 205.289 183.119 206.073 182.735C206.857 182.351 207.809 182.159 208.929 182.159V184.391C208.801 184.375 208.625 184.367 208.401 184.367C207.153 184.367 206.169 184.743 205.449 185.495C204.745 186.231 204.393 187.287 204.393 188.663V194.999H202.089V182.279H204.297V184.415ZM216.378 182.159C218.138 182.159 219.482 182.591 220.41 183.455C221.354 184.319 221.826 185.607 221.826 187.319V194.999H219.642V193.319C219.258 193.911 218.706 194.367 217.986 194.687C217.282 194.991 216.442 195.143 215.466 195.143C214.042 195.143 212.898 194.799 212.034 194.111C211.186 193.423 210.762 192.519 210.762 191.399C210.762 190.279 211.17 189.383 211.986 188.711C212.802 188.023 214.098 187.679 215.874 187.679H219.522V187.223C219.522 186.231 219.234 185.471 218.658 184.943C218.082 184.415 217.234 184.151 216.114 184.151C215.362 184.151 214.626 184.279 213.906 184.535C213.186 184.775 212.578 185.103 212.082 185.519L211.122 183.791C211.778 183.263 212.562 182.863 213.474 182.591C214.386 182.303 215.354 182.159 216.378 182.159ZM215.85 193.367C216.73 193.367 217.49 193.175 218.13 192.791C218.77 192.391 219.234 191.831 219.522 191.111V189.335H215.97C214.018 189.335 213.042 189.991 213.042 191.303C213.042 191.943 213.29 192.447 213.786 192.815C214.282 193.183 214.97 193.367 215.85 193.367ZM237.111 182.279L231.543 194.999H229.191L223.623 182.279H226.023L230.391 192.479L234.855 182.279H237.111ZM250.406 188.711C250.406 188.887 250.39 189.119 250.358 189.407H240.038C240.182 190.527 240.67 191.431 241.502 192.119C242.35 192.791 243.398 193.127 244.646 193.127C246.166 193.127 247.39 192.615 248.318 191.591L249.59 193.079C249.014 193.751 248.294 194.263 247.43 194.615C246.582 194.967 245.63 195.143 244.574 195.143C243.23 195.143 242.038 194.871 240.998 194.327C239.958 193.767 239.15 192.991 238.574 191.999C238.014 191.007 237.734 189.887 237.734 188.639C237.734 187.407 238.006 186.295 238.55 185.303C239.11 184.311 239.87 183.543 240.83 182.999C241.806 182.439 242.902 182.159 244.118 182.159C245.334 182.159 246.414 182.439 247.358 182.999C248.318 183.543 249.062 184.311 249.59 185.303C250.134 186.295 250.406 187.431 250.406 188.711ZM244.118 184.103C243.014 184.103 242.086 184.439 241.334 185.111C240.598 185.783 240.166 186.663 240.038 187.751H248.198C248.07 186.679 247.63 185.807 246.878 185.135C246.142 184.447 245.222 184.103 244.118 184.103ZM245.558 177.311H248.486L244.454 180.431H242.294L245.558 177.311ZM257.253 195.143C256.213 195.143 255.213 195.007 254.253 194.735C253.293 194.447 252.541 194.087 251.997 193.655L252.957 191.831C253.517 192.231 254.197 192.551 254.997 192.791C255.797 193.031 256.605 193.151 257.421 193.151C259.437 193.151 260.445 192.575 260.445 191.423C260.445 191.039 260.309 190.735 260.037 190.511C259.765 190.287 259.421 190.127 259.005 190.031C258.605 189.919 258.029 189.799 257.277 189.671C256.253 189.511 255.413 189.327 254.757 189.119C254.117 188.911 253.565 188.559 253.101 188.063C252.637 187.567 252.405 186.871 252.405 185.975C252.405 184.823 252.885 183.903 253.845 183.215C254.805 182.511 256.093 182.159 257.709 182.159C258.557 182.159 259.405 182.263 260.253 182.471C261.101 182.679 261.797 182.959 262.341 183.311L261.357 185.135C260.317 184.463 259.093 184.127 257.685 184.127C256.709 184.127 255.965 184.287 255.453 184.607C254.941 184.927 254.685 185.351 254.685 185.879C254.685 186.295 254.829 186.623 255.117 186.863C255.405 187.103 255.757 187.279 256.173 187.391C256.605 187.503 257.205 187.631 257.973 187.775C258.997 187.951 259.821 188.143 260.445 188.351C261.085 188.543 261.629 188.879 262.077 189.359C262.525 189.839 262.749 190.511 262.749 191.375C262.749 192.527 262.253 193.447 261.261 194.135C260.285 194.807 258.949 195.143 257.253 195.143ZM284.074 177.191V194.999H281.866V192.983C281.354 193.687 280.706 194.223 279.922 194.591C279.138 194.959 278.274 195.143 277.33 195.143C276.098 195.143 274.994 194.871 274.018 194.327C273.042 193.783 272.274 193.023 271.714 192.047C271.17 191.055 270.898 189.919 270.898 188.639C270.898 187.359 271.17 186.231 271.714 185.255C272.274 184.279 273.042 183.519 274.018 182.975C274.994 182.431 276.098 182.159 277.33 182.159C278.242 182.159 279.082 182.335 279.85 182.687C280.618 183.023 281.258 183.527 281.77 184.199V177.191H284.074ZM277.522 193.127C278.322 193.127 279.05 192.943 279.706 192.575C280.362 192.191 280.874 191.663 281.242 190.991C281.61 190.303 281.794 189.519 281.794 188.639C281.794 187.759 281.61 186.983 281.242 186.311C280.874 185.623 280.362 185.095 279.706 184.727C279.05 184.359 278.322 184.175 277.522 184.175C276.706 184.175 275.97 184.359 275.314 184.727C274.674 185.095 274.162 185.623 273.778 186.311C273.41 186.983 273.226 187.759 273.226 188.639C273.226 189.519 273.41 190.303 273.778 190.991C274.162 191.663 274.674 192.191 275.314 192.575C275.97 192.943 276.706 193.127 277.522 193.127ZM293.881 195.143C292.617 195.143 291.481 194.863 290.473 194.303C289.465 193.743 288.673 192.975 288.097 191.999C287.537 191.007 287.257 189.887 287.257 188.639C287.257 187.391 287.537 186.279 288.097 185.303C288.673 184.311 289.465 183.543 290.473 182.999C291.481 182.439 292.617 182.159 293.881 182.159C295.145 182.159 296.273 182.439 297.265 182.999C298.273 183.543 299.057 184.311 299.617 185.303C300.193 186.279 300.481 187.391 300.481 188.639C300.481 189.887 300.193 191.007 299.617 191.999C299.057 192.975 298.273 193.743 297.265 194.303C296.273 194.863 295.145 195.143 293.881 195.143ZM293.881 193.127C294.697 193.127 295.425 192.943 296.065 192.575C296.721 192.191 297.233 191.663 297.601 190.991C297.969 190.303 298.153 189.519 298.153 188.639C298.153 187.759 297.969 186.983 297.601 186.311C297.233 185.623 296.721 185.095 296.065 184.727C295.425 184.359 294.697 184.175 293.881 184.175C293.065 184.175 292.329 184.359 291.673 184.727C291.033 185.095 290.521 185.623 290.137 186.311C289.769 186.983 289.585 187.759 289.585 188.639C289.585 189.519 289.769 190.303 290.137 190.991C290.521 191.663 291.033 192.191 291.673 192.575C292.329 192.943 293.065 193.127 293.881 193.127ZM317.265 194.255C316.929 194.543 316.513 194.767 316.017 194.927C315.521 195.071 315.009 195.143 314.481 195.143C313.201 195.143 312.209 194.799 311.505 194.111C310.801 193.423 310.449 192.439 310.449 191.159V184.175H308.289V182.279H310.449V179.495H312.753V182.279H316.401V184.175H312.753V191.063C312.753 191.751 312.921 192.279 313.257 192.647C313.609 193.015 314.105 193.199 314.745 193.199C315.449 193.199 316.049 192.999 316.545 192.599L317.265 194.255ZM322.258 184.415C322.658 183.679 323.25 183.119 324.034 182.735C324.818 182.351 325.77 182.159 326.89 182.159V184.391C326.762 184.375 326.586 184.367 326.362 184.367C325.114 184.367 324.13 184.743 323.41 185.495C322.706 186.231 322.354 187.287 322.354 188.663V194.999H320.05V182.279H322.258V184.415ZM334.338 182.159C336.098 182.159 337.442 182.591 338.37 183.455C339.314 184.319 339.786 185.607 339.786 187.319V194.999H337.602V193.319C337.218 193.911 336.666 194.367 335.946 194.687C335.242 194.991 334.402 195.143 333.426 195.143C332.002 195.143 330.858 194.799 329.994 194.111C329.146 193.423 328.722 192.519 328.722 191.399C328.722 190.279 329.13 189.383 329.946 188.711C330.762 188.023 332.058 187.679 333.834 187.679H337.482V187.223C337.482 186.231 337.194 185.471 336.618 184.943C336.042 184.415 335.194 184.151 334.074 184.151C333.322 184.151 332.586 184.279 331.866 184.535C331.146 184.775 330.538 185.103 330.042 185.519L329.082 183.791C329.738 183.263 330.522 182.863 331.434 182.591C332.346 182.303 333.314 182.159 334.338 182.159ZM333.81 193.367C334.69 193.367 335.45 193.175 336.09 192.791C336.73 192.391 337.194 191.831 337.482 191.111V189.335H333.93C331.978 189.335 331.002 189.991 331.002 191.303C331.002 191.943 331.25 192.447 331.746 192.815C332.242 193.183 332.93 193.367 333.81 193.367ZM335.97 177.311H338.898L334.866 180.431H332.706L335.97 177.311ZM348.706 178.943C347.33 178.943 346.642 179.687 346.642 181.175V182.279H350.338V184.175H346.69V194.999H344.386V184.175H342.226V182.279H344.386V181.151C344.386 179.887 344.754 178.887 345.49 178.151C346.226 177.415 347.258 177.047 348.586 177.047C349.098 177.047 349.578 177.111 350.026 177.239C350.474 177.367 350.858 177.551 351.178 177.791L350.482 179.543C349.954 179.143 349.362 178.943 348.706 178.943ZM363.82 188.711C363.82 188.887 363.804 189.119 363.772 189.407H353.452C353.596 190.527 354.084 191.431 354.916 192.119C355.764 192.791 356.812 193.127 358.06 193.127C359.58 193.127 360.804 192.615 361.732 191.591L363.004 193.079C362.428 193.751 361.708 194.263 360.844 194.615C359.996 194.967 359.044 195.143 357.988 195.143C356.644 195.143 355.452 194.871 354.412 194.327C353.372 193.767 352.564 192.991 351.988 191.999C351.428 191.007 351.148 189.887 351.148 188.639C351.148 187.407 351.42 186.295 351.964 185.303C352.524 184.311 353.284 183.543 354.244 182.999C355.22 182.439 356.316 182.159 357.532 182.159C358.748 182.159 359.828 182.439 360.772 182.999C361.732 183.543 362.476 184.311 363.004 185.303C363.548 186.295 363.82 187.431 363.82 188.711ZM357.532 184.103C356.428 184.103 355.5 184.439 354.748 185.111C354.012 185.783 353.58 186.663 353.452 187.751H361.612C361.484 186.679 361.044 185.807 360.292 185.135C359.556 184.447 358.636 184.103 357.532 184.103ZM379.187 182.279V193.271C379.187 195.495 378.635 197.135 377.531 198.191C376.427 199.263 374.779 199.799 372.587 199.799C371.387 199.799 370.243 199.631 369.155 199.295C368.067 198.975 367.187 198.511 366.515 197.903L367.619 196.127C368.211 196.639 368.939 197.039 369.803 197.327C370.683 197.631 371.587 197.783 372.515 197.783C374.003 197.783 375.099 197.431 375.803 196.727C376.523 196.023 376.883 194.951 376.883 193.511V192.503C376.339 193.159 375.667 193.655 374.867 193.991C374.083 194.311 373.227 194.471 372.299 194.471C371.083 194.471 369.979 194.215 368.987 193.703C368.011 193.175 367.243 192.447 366.683 191.519C366.123 190.575 365.843 189.503 365.843 188.303C365.843 187.103 366.123 186.039 366.683 185.111C367.243 184.167 368.011 183.439 368.987 182.927C369.979 182.415 371.083 182.159 372.299 182.159C373.259 182.159 374.147 182.335 374.963 182.687C375.795 183.039 376.475 183.559 377.003 184.247V182.279H379.187ZM372.563 192.455C373.395 192.455 374.139 192.279 374.795 191.927C375.467 191.575 375.987 191.087 376.355 190.463C376.739 189.823 376.931 189.103 376.931 188.303C376.931 187.071 376.523 186.079 375.707 185.327C374.891 184.559 373.843 184.175 372.563 184.175C371.267 184.175 370.211 184.559 369.395 185.327C368.579 186.079 368.171 187.071 368.171 188.303C368.171 189.103 368.355 189.823 368.723 190.463C369.107 191.087 369.627 191.575 370.283 191.927C370.955 192.279 371.715 192.455 372.563 192.455ZM389.037 195.143C387.773 195.143 386.637 194.863 385.629 194.303C384.621 193.743 383.829 192.975 383.253 191.999C382.693 191.007 382.413 189.887 382.413 188.639C382.413 187.391 382.693 186.279 383.253 185.303C383.829 184.311 384.621 183.543 385.629 182.999C386.637 182.439 387.773 182.159 389.037 182.159C390.301 182.159 391.429 182.439 392.421 182.999C393.429 183.543 394.213 184.311 394.773 185.303C395.349 186.279 395.637 187.391 395.637 188.639C395.637 189.887 395.349 191.007 394.773 191.999C394.213 192.975 393.429 193.743 392.421 194.303C391.429 194.863 390.301 195.143 389.037 195.143ZM389.037 193.127C389.853 193.127 390.581 192.943 391.221 192.575C391.877 192.191 392.389 191.663 392.757 190.991C393.125 190.303 393.309 189.519 393.309 188.639C393.309 187.759 393.125 186.983 392.757 186.311C392.389 185.623 391.877 185.095 391.221 184.727C390.581 184.359 389.853 184.175 389.037 184.175C388.221 184.175 387.485 184.359 386.829 184.727C386.189 185.095 385.677 185.623 385.293 186.311C384.925 186.983 384.741 187.759 384.741 188.639C384.741 189.519 384.925 190.303 385.293 190.991C385.677 191.663 386.189 192.191 386.829 192.575C387.485 192.943 388.221 193.127 389.037 193.127ZM28.927 218.159C30.159 218.159 31.263 218.431 32.239 218.975C33.215 219.519 33.975 220.279 34.519 221.255C35.079 222.231 35.359 223.359 35.359 224.639C35.359 225.919 35.079 227.055 34.519 228.047C33.975 229.023 33.215 229.783 32.239 230.327C31.263 230.871 30.159 231.143 28.927 231.143C28.015 231.143 27.175 230.967 26.407 230.615C25.655 230.263 25.015 229.751 24.487 229.079V235.655H22.183V218.279H24.391V220.295C24.903 219.591 25.551 219.063 26.335 218.711C27.119 218.343 27.983 218.159 28.927 218.159ZM28.735 229.127C29.551 229.127 30.279 228.943 30.919 228.575C31.575 228.191 32.087 227.663 32.455 226.991C32.839 226.303 33.031 225.519 33.031 224.639C33.031 223.759 32.839 222.983 32.455 222.311C32.087 221.623 31.575 221.095 30.919 220.727C30.279 220.359 29.551 220.175 28.735 220.175C27.935 220.175 27.207 220.367 26.551 220.751C25.911 221.119 25.399 221.639 25.015 222.311C24.647 222.983 24.463 223.759 24.463 224.639C24.463 225.519 24.647 226.303 25.015 226.991C25.383 227.663 25.895 228.191 26.551 228.575C27.207 228.943 27.935 229.127 28.735 229.127ZM43.0572 218.159C44.8172 218.159 46.1612 218.591 47.0892 219.455C48.0332 220.319 48.5052 221.607 48.5052 223.319V230.999H46.3212V229.319C45.9372 229.911 45.3852 230.367 44.6652 230.687C43.9612 230.991 43.1212 231.143 42.1452 231.143C40.7212 231.143 39.5772 230.799 38.7132 230.111C37.8652 229.423 37.4412 228.519 37.4412 227.399C37.4412 226.279 37.8492 225.383 38.6652 224.711C39.4812 224.023 40.7772 223.679 42.5532 223.679H46.2012V223.223C46.2012 222.231 45.9132 221.471 45.3372 220.943C44.7612 220.415 43.9132 220.151 42.7932 220.151C42.0412 220.151 41.3052 220.279 40.5852 220.535C39.8652 220.775 39.2572 221.103 38.7612 221.519L37.8012 219.791C38.4572 219.263 39.2412 218.863 40.1532 218.591C41.0652 218.303 42.0332 218.159 43.0572 218.159ZM42.5292 229.367C43.4092 229.367 44.1692 229.175 44.8092 228.791C45.4492 228.391 45.9132 227.831 46.2012 227.111V225.335H42.6492C40.6972 225.335 39.7212 225.991 39.7212 227.303C39.7212 227.943 39.9692 228.447 40.4652 228.815C40.9612 229.183 41.6492 229.367 42.5292 229.367ZM65.0073 218.279V229.271C65.0073 231.495 64.4553 233.135 63.3513 234.191C62.2473 235.263 60.5993 235.799 58.4073 235.799C57.2073 235.799 56.0633 235.631 54.9753 235.295C53.8873 234.975 53.0073 234.511 52.3353 233.903L53.4393 232.127C54.0313 232.639 54.7593 233.039 55.6233 233.327C56.5033 233.631 57.4073 233.783 58.3353 233.783C59.8233 233.783 60.9193 233.431 61.6233 232.727C62.3433 232.023 62.7033 230.951 62.7033 229.511V228.503C62.1593 229.159 61.4873 229.655 60.6873 229.991C59.9033 230.311 59.0473 230.471 58.1193 230.471C56.9033 230.471 55.7993 230.215 54.8073 229.703C53.8313 229.175 53.0633 228.447 52.5033 227.519C51.9433 226.575 51.6633 225.503 51.6633 224.303C51.6633 223.103 51.9433 222.039 52.5033 221.111C53.0633 220.167 53.8313 219.439 54.8073 218.927C55.7993 218.415 56.9033 218.159 58.1193 218.159C59.0793 218.159 59.9673 218.335 60.7833 218.687C61.6153 219.039 62.2953 219.559 62.8233 220.247V218.279H65.0073ZM58.3833 228.455C59.2153 228.455 59.9593 228.279 60.6153 227.927C61.2873 227.575 61.8073 227.087 62.1753 226.463C62.5593 225.823 62.7513 225.103 62.7513 224.303C62.7513 223.071 62.3433 222.079 61.5273 221.327C60.7113 220.559 59.6633 220.175 58.3833 220.175C57.0873 220.175 56.0313 220.559 55.2153 221.327C54.3993 222.079 53.9913 223.071 53.9913 224.303C53.9913 225.103 54.1753 225.823 54.5433 226.463C54.9273 227.087 55.4473 227.575 56.1033 227.927C56.7753 228.279 57.5353 228.455 58.3833 228.455ZM74.8576 231.143C73.5936 231.143 72.4576 230.863 71.4496 230.303C70.4416 229.743 69.6496 228.975 69.0736 227.999C68.5136 227.007 68.2336 225.887 68.2336 224.639C68.2336 223.391 68.5136 222.279 69.0736 221.303C69.6496 220.311 70.4416 219.543 71.4496 218.999C72.4576 218.439 73.5936 218.159 74.8576 218.159C76.1216 218.159 77.2496 218.439 78.2416 218.999C79.2496 219.543 80.0336 220.311 80.5936 221.303C81.1696 222.279 81.4576 223.391 81.4576 224.639C81.4576 225.887 81.1696 227.007 80.5936 227.999C80.0336 228.975 79.2496 229.743 78.2416 230.303C77.2496 230.863 76.1216 231.143 74.8576 231.143ZM74.8576 229.127C75.6736 229.127 76.4016 228.943 77.0416 228.575C77.6976 228.191 78.2096 227.663 78.5776 226.991C78.9456 226.303 79.1296 225.519 79.1296 224.639C79.1296 223.759 78.9456 222.983 78.5776 222.311C78.2096 221.623 77.6976 221.095 77.0416 220.727C76.4016 220.359 75.6736 220.175 74.8576 220.175C74.0416 220.175 73.3056 220.359 72.6496 220.727C72.0096 221.095 71.4976 221.623 71.1136 222.311C70.7456 222.983 70.5616 223.759 70.5616 224.639C70.5616 225.519 70.7456 226.303 71.1136 226.991C71.4976 227.663 72.0096 228.191 72.6496 228.575C73.3056 228.943 74.0416 229.127 74.8576 229.127ZM84.9147 231.143C84.4667 231.143 84.0827 230.991 83.7627 230.687C83.4427 230.367 83.2827 229.967 83.2827 229.487C83.2827 229.023 83.4427 228.639 83.7627 228.335C84.0827 228.015 84.4667 227.855 84.9147 227.855C85.3627 227.855 85.7387 228.007 86.0427 228.311C86.3467 228.615 86.4987 229.007 86.4987 229.487C86.4987 229.967 86.3387 230.367 86.0187 230.687C85.7147 230.991 85.3467 231.143 84.9147 231.143Z" fill="#838383"/>
<rect x="19.999" y="39.999" width="82" height="81" rx="15" fill="url(#paint0_linear_177_65)" fill-opacity="0.15"/>
<rect x="19.999" y="39.999" width="82" height="81" rx="15" fill="black" fill-opacity="0.2"/>
<path d="M47.7143 80.5258H38.0995C36.6056 80.5241 35.9664 79.8678 36.0011 78.38C36.1401 72.663 40.7052 67.835 46.5209 67.2534C52.5591 66.6492 57.8972 70.4756 59.2122 76.3835C59.3671 77.1457 59.4537 77.9201 59.471 78.6977C59.5127 79.7793 58.7987 80.498 57.7026 80.5189C56.5336 80.5414 55.3645 80.5189 54.1954 80.5189L47.7143 80.5258Z" fill="white"/>
<path d="M75.2143 104.998H65.4866C64.1559 104.998 63.5028 104.326 63.5254 102.991C63.6261 96.6576 69.0528 91.5118 75.4523 91.6785C81.2681 91.8295 85.7932 95.6888 86.8459 101.413C86.9412 101.971 86.9923 102.536 86.9988 103.102C87.03 104.286 86.3265 104.996 85.1418 104.996C81.8355 105.001 78.5264 105.001 75.2143 104.998Z" fill="white"/>
<path d="M53.6691 59.9323C53.6663 61.1033 53.3161 62.2471 52.6626 63.219C52.0092 64.191 51.0819 64.9474 49.9982 65.3925C48.9145 65.8376 47.723 65.9514 46.5746 65.7195C45.4261 65.4876 44.3723 64.9204 43.5465 64.0897C42.7207 63.259 42.16 62.2022 41.9354 61.0529C41.7108 59.9037 41.8324 58.7136 42.2847 57.6335C42.737 56.5533 43.4998 55.6315 44.4766 54.9847C45.4533 54.3379 46.6 53.9952 47.7717 54C49.3393 54.0101 50.8392 54.6396 51.9441 55.751C53.049 56.8624 53.6691 58.3655 53.6691 59.9323Z" fill="white"/>
<path d="M69.3412 84.3921C69.3464 83.2203 69.6994 82.0765 70.3555 81.1054C71.0116 80.1343 71.9413 79.3796 73.0268 78.9369C74.1124 78.4943 75.305 78.3835 76.4535 78.6187C77.6021 78.8539 78.655 79.4244 79.4789 80.2581C80.3028 81.0917 80.8607 82.151 81.0818 83.3017C81.3029 84.4525 81.1774 85.6429 80.7211 86.7223C80.2648 87.8016 79.4983 88.7214 78.5186 89.3651C77.539 90.0088 76.3902 90.3475 75.2178 90.3382C73.6524 90.3195 72.1575 89.6847 71.0574 88.5715C69.9573 87.4584 69.3406 85.9567 69.3412 84.3921Z" fill="white"/>
<path d="M58.4548 100.331H43.1909V85.4303H48.0166V95.5083H58.4548V100.331Z" fill="white"/>
<path d="M78.1795 73.8609H73.3539V63.7829H62.9157V58.9601H78.1795V73.8609Z" fill="white"/>
<defs>
<linearGradient id="paint0_linear_177_65" x1="19.999" y1="120.999" x2="102.978" y2="41.0149" gradientUnits="userSpaceOnUse">
<stop stop-color="#111111"/>
<stop offset="1" stop-color="white"/>
</linearGradient>
</defs>
</svg>
