<svg width="468" height="280" viewBox="0 0 468 280" fill="none" xmlns="http://www.w3.org/2000/svg">
<rect x="0.5" y="0.5" width="467" height="279" rx="14.5" fill="#161616" stroke="#FCA628"/>
<path d="M36.968 142.2V159H35L24.92 146.472V159H22.52V142.2H24.488L34.568 154.728V142.2H36.968ZM46.2926 146.16C48.0526 146.16 49.3966 146.592 50.3246 147.456C51.2686 148.32 51.7406 149.608 51.7406 151.32V159H49.5566V157.32C49.1726 157.912 48.6206 158.368 47.9006 158.688C47.1966 158.992 46.3566 159.144 45.3806 159.144C43.9566 159.144 42.8126 158.8 41.9486 158.112C41.1006 157.424 40.6766 156.52 40.6766 155.4C40.6766 154.28 41.0846 153.384 41.9006 152.712C42.7166 152.024 44.0126 151.68 45.7886 151.68H49.4366V151.224C49.4366 150.232 49.1486 149.472 48.5726 148.944C47.9966 148.416 47.1486 148.152 46.0286 148.152C45.2766 148.152 44.5406 148.28 43.8206 148.536C43.1006 148.776 42.4926 149.104 41.9966 149.52L41.0366 147.792C41.6926 147.264 42.4766 146.864 43.3886 146.592C44.3006 146.304 45.2686 146.16 46.2926 146.16ZM45.7646 157.368C46.6446 157.368 47.4046 157.176 48.0446 156.792C48.6846 156.392 49.1486 155.832 49.4366 155.112V153.336H45.8846C43.9326 153.336 42.9566 153.992 42.9566 155.304C42.9566 155.944 43.2046 156.448 43.7006 156.816C44.1966 157.184 44.8846 157.368 45.7646 157.368ZM48.1406 144.36C47.7566 144.36 47.4206 144.28 47.1326 144.12C46.8606 143.96 46.5166 143.72 46.1006 143.4C45.8606 143.176 45.6526 143.016 45.4766 142.92C45.3006 142.808 45.1246 142.752 44.9486 142.752C44.5966 142.752 44.3086 142.888 44.0846 143.16C43.8606 143.416 43.7406 143.776 43.7246 144.24H42.4286C42.4606 143.344 42.6846 142.632 43.1006 142.104C43.5326 141.576 44.0926 141.312 44.7806 141.312C45.1646 141.312 45.5006 141.4 45.7886 141.576C46.0926 141.736 46.4366 141.976 46.8206 142.296C47.0926 142.52 47.3086 142.688 47.4686 142.8C47.6286 142.896 47.7966 142.944 47.9726 142.944C48.3246 142.944 48.6126 142.816 48.8366 142.56C49.0606 142.304 49.1806 141.952 49.1966 141.504H50.4926C50.4606 142.368 50.2286 143.064 49.7966 143.592C49.3806 144.104 48.8286 144.36 48.1406 144.36ZM61.5226 159.144C60.2586 159.144 59.1226 158.864 58.1146 158.304C57.1066 157.744 56.3146 156.976 55.7386 156C55.1786 155.008 54.8986 153.888 54.8986 152.64C54.8986 151.392 55.1786 150.28 55.7386 149.304C56.3146 148.312 57.1066 147.544 58.1146 147C59.1226 146.44 60.2586 146.16 61.5226 146.16C62.7866 146.16 63.9146 146.44 64.9066 147C65.9146 147.544 66.6986 148.312 67.2586 149.304C67.8346 150.28 68.1226 151.392 68.1226 152.64C68.1226 153.888 67.8346 155.008 67.2586 156C66.6986 156.976 65.9146 157.744 64.9066 158.304C63.9146 158.864 62.7866 159.144 61.5226 159.144ZM61.5226 157.128C62.3386 157.128 63.0666 156.944 63.7066 156.576C64.3626 156.192 64.8746 155.664 65.2426 154.992C65.6106 154.304 65.7946 153.52 65.7946 152.64C65.7946 151.76 65.6106 150.984 65.2426 150.312C64.8746 149.624 64.3626 149.096 63.7066 148.728C63.0666 148.36 62.3386 148.176 61.5226 148.176C60.7066 148.176 59.9706 148.36 59.3146 148.728C58.6746 149.096 58.1626 149.624 57.7786 150.312C57.4106 150.984 57.2266 151.76 57.2266 152.64C57.2266 153.52 57.4106 154.304 57.7786 154.992C58.1626 155.664 58.6746 156.192 59.3146 156.576C59.9706 156.944 60.7066 157.128 61.5226 157.128ZM81.4023 159.144C80.3623 159.144 79.3623 159.008 78.4023 158.736C77.4423 158.448 76.6903 158.088 76.1463 157.656L77.1063 155.832C77.6663 156.232 78.3463 156.552 79.1463 156.792C79.9463 157.032 80.7543 157.152 81.5703 157.152C83.5863 157.152 84.5943 156.576 84.5943 155.424C84.5943 155.04 84.4583 154.736 84.1863 154.512C83.9143 154.288 83.5703 154.128 83.1543 154.032C82.7543 153.92 82.1783 153.8 81.4263 153.672C80.4023 153.512 79.5623 153.328 78.9063 153.12C78.2663 152.912 77.7143 152.56 77.2503 152.064C76.7863 151.568 76.5543 150.872 76.5543 149.976C76.5543 148.824 77.0343 147.904 77.9943 147.216C78.9543 146.512 80.2423 146.16 81.8583 146.16C82.7063 146.16 83.5543 146.264 84.4023 146.472C85.2503 146.68 85.9463 146.96 86.4903 147.312L85.5063 149.136C84.4663 148.464 83.2423 148.128 81.8343 148.128C80.8583 148.128 80.1143 148.288 79.6023 148.608C79.0903 148.928 78.8343 149.352 78.8343 149.88C78.8343 150.296 78.9783 150.624 79.2663 150.864C79.5543 151.104 79.9063 151.28 80.3223 151.392C80.7543 151.504 81.3543 151.632 82.1223 151.776C83.1463 151.952 83.9703 152.144 84.5943 152.352C85.2343 152.544 85.7783 152.88 86.2263 153.36C86.6743 153.84 86.8983 154.512 86.8983 155.376C86.8983 156.528 86.4023 157.448 85.4103 158.136C84.4343 158.808 83.0983 159.144 81.4023 159.144ZM94.4098 146.16C96.1698 146.16 97.5138 146.592 98.4418 147.456C99.3858 148.32 99.8578 149.608 99.8578 151.32V159H97.6738V157.32C97.2898 157.912 96.7378 158.368 96.0178 158.688C95.3138 158.992 94.4738 159.144 93.4978 159.144C92.0738 159.144 90.9298 158.8 90.0658 158.112C89.2178 157.424 88.7938 156.52 88.7938 155.4C88.7938 154.28 89.2018 153.384 90.0178 152.712C90.8338 152.024 92.1298 151.68 93.9058 151.68H97.5538V151.224C97.5538 150.232 97.2658 149.472 96.6898 148.944C96.1138 148.416 95.2658 148.152 94.1458 148.152C93.3938 148.152 92.6578 148.28 91.9378 148.536C91.2178 148.776 90.6098 149.104 90.1138 149.52L89.1538 147.792C89.8098 147.264 90.5938 146.864 91.5058 146.592C92.4178 146.304 93.3858 146.16 94.4098 146.16ZM93.8818 157.368C94.7618 157.368 95.5218 157.176 96.1618 156.792C96.8018 156.392 97.2658 155.832 97.5538 155.112V153.336H94.0018C92.0498 153.336 91.0738 153.992 91.0738 155.304C91.0738 155.944 91.3218 156.448 91.8178 156.816C92.3138 157.184 93.0018 157.368 93.8818 157.368ZM110.866 146.16C112.098 146.16 113.202 146.432 114.178 146.976C115.154 147.52 115.914 148.28 116.458 149.256C117.018 150.232 117.298 151.36 117.298 152.64C117.298 153.92 117.018 155.056 116.458 156.048C115.914 157.024 115.154 157.784 114.178 158.328C113.202 158.872 112.098 159.144 110.866 159.144C109.922 159.144 109.058 158.96 108.273 158.592C107.49 158.224 106.842 157.688 106.33 156.984V159H104.122V141.192H106.426V148.2C106.938 147.528 107.578 147.024 108.346 146.688C109.114 146.336 109.954 146.16 110.866 146.16ZM110.674 157.128C111.49 157.128 112.218 156.944 112.858 156.576C113.514 156.192 114.026 155.664 114.394 154.992C114.778 154.304 114.97 153.52 114.97 152.64C114.97 151.76 114.778 150.984 114.394 150.312C114.026 149.624 113.514 149.096 112.858 148.728C112.218 148.36 111.49 148.176 110.674 148.176C109.874 148.176 109.146 148.36 108.49 148.728C107.834 149.096 107.322 149.624 106.954 150.312C106.586 150.984 106.402 151.76 106.402 152.64C106.402 153.52 106.586 154.304 106.954 154.992C107.322 155.664 107.834 156.192 108.49 156.576C109.146 156.944 109.874 157.128 110.674 157.128ZM131.977 152.712C131.977 152.888 131.961 153.12 131.929 153.408H121.609C121.753 154.528 122.241 155.432 123.073 156.12C123.921 156.792 124.969 157.128 126.217 157.128C127.737 157.128 128.961 156.616 129.889 155.592L131.161 157.08C130.585 157.752 129.865 158.264 129.001 158.616C128.153 158.968 127.201 159.144 126.145 159.144C124.801 159.144 123.609 158.872 122.569 158.328C121.529 157.768 120.721 156.992 120.145 156C119.585 155.008 119.305 153.888 119.305 152.64C119.305 151.408 119.577 150.296 120.121 149.304C120.681 148.312 121.441 147.544 122.401 147C123.377 146.44 124.473 146.16 125.689 146.16C126.905 146.16 127.985 146.44 128.929 147C129.889 147.544 130.633 148.312 131.161 149.304C131.705 150.296 131.977 151.432 131.977 152.712ZM125.689 148.104C124.585 148.104 123.657 148.44 122.905 149.112C122.169 149.784 121.737 150.664 121.609 151.752H129.769C129.641 150.68 129.201 149.808 128.449 149.136C127.713 148.448 126.793 148.104 125.689 148.104ZM151.088 146.16C152.688 146.16 153.952 146.624 154.88 147.552C155.824 148.48 156.296 149.856 156.296 151.68V159H153.992V151.944C153.992 150.712 153.704 149.784 153.128 149.16C152.568 148.536 151.76 148.224 150.704 148.224C149.536 148.224 148.608 148.592 147.92 149.328C147.232 150.048 146.888 151.088 146.888 152.448V159H144.584V151.944C144.584 150.712 144.296 149.784 143.72 149.16C143.16 148.536 142.352 148.224 141.296 148.224C140.128 148.224 139.2 148.592 138.512 149.328C137.824 150.048 137.48 151.088 137.48 152.448V159H135.176V146.28H137.384V148.176C137.848 147.52 138.456 147.024 139.208 146.688C139.96 146.336 140.816 146.16 141.776 146.16C142.768 146.16 143.648 146.36 144.416 146.76C145.184 147.16 145.776 147.744 146.192 148.512C146.672 147.776 147.336 147.2 148.184 146.784C149.048 146.368 150.016 146.16 151.088 146.16ZM178.477 152.712C178.477 152.888 178.461 153.12 178.429 153.408H168.109C168.253 154.528 168.741 155.432 169.573 156.12C170.421 156.792 171.469 157.128 172.717 157.128C174.237 157.128 175.461 156.616 176.389 155.592L177.661 157.08C177.085 157.752 176.365 158.264 175.501 158.616C174.653 158.968 173.701 159.144 172.645 159.144C171.301 159.144 170.109 158.872 169.069 158.328C168.029 157.768 167.221 156.992 166.645 156C166.085 155.008 165.805 153.888 165.805 152.64C165.805 151.408 166.077 150.296 166.621 149.304C167.181 148.312 167.941 147.544 168.901 147C169.877 146.44 170.973 146.16 172.189 146.16C173.405 146.16 174.485 146.44 175.429 147C176.389 147.544 177.133 148.312 177.661 149.304C178.205 150.296 178.477 151.432 178.477 152.712ZM172.189 148.104C171.085 148.104 170.157 148.44 169.405 149.112C168.669 149.784 168.237 150.664 168.109 151.752H176.269C176.141 150.68 175.701 149.808 174.949 149.136C174.213 148.448 173.293 148.104 172.189 148.104ZM185.324 159.144C184.284 159.144 183.284 159.008 182.324 158.736C181.364 158.448 180.612 158.088 180.068 157.656L181.028 155.832C181.588 156.232 182.268 156.552 183.068 156.792C183.868 157.032 184.676 157.152 185.492 157.152C187.508 157.152 188.516 156.576 188.516 155.424C188.516 155.04 188.38 154.736 188.108 154.512C187.836 154.288 187.492 154.128 187.076 154.032C186.676 153.92 186.1 153.8 185.348 153.672C184.324 153.512 183.484 153.328 182.828 153.12C182.188 152.912 181.636 152.56 181.172 152.064C180.708 151.568 180.476 150.872 180.476 149.976C180.476 148.824 180.956 147.904 181.916 147.216C182.876 146.512 184.164 146.16 185.78 146.16C186.628 146.16 187.476 146.264 188.324 146.472C189.172 146.68 189.868 146.96 190.412 147.312L189.428 149.136C188.388 148.464 187.164 148.128 185.756 148.128C184.78 148.128 184.036 148.288 183.524 148.608C183.012 148.928 182.756 149.352 182.756 149.88C182.756 150.296 182.9 150.624 183.188 150.864C183.476 151.104 183.828 151.28 184.244 151.392C184.676 151.504 185.276 151.632 186.044 151.776C187.068 151.952 187.892 152.144 188.516 152.352C189.156 152.544 189.7 152.88 190.148 153.36C190.596 153.84 190.82 154.512 190.82 155.376C190.82 156.528 190.324 157.448 189.332 158.136C188.356 158.808 187.02 159.144 185.324 159.144ZM200.852 158.256C200.516 158.544 200.1 158.768 199.604 158.928C199.108 159.072 198.596 159.144 198.068 159.144C196.788 159.144 195.796 158.8 195.092 158.112C194.388 157.424 194.036 156.44 194.036 155.16V148.176H191.876V146.28H194.036V143.496H196.34V146.28H199.988V148.176H196.34V155.064C196.34 155.752 196.508 156.28 196.844 156.648C197.196 157.016 197.692 157.2 198.332 157.2C199.036 157.2 199.636 157 200.132 156.6L200.852 158.256ZM205.845 148.416C206.245 147.68 206.837 147.12 207.621 146.736C208.405 146.352 209.357 146.16 210.477 146.16V148.392C210.349 148.376 210.173 148.368 209.949 148.368C208.701 148.368 207.717 148.744 206.997 149.496C206.293 150.232 205.941 151.288 205.941 152.664V159H203.637V146.28H205.845V148.416ZM225.337 146.28V159H223.153V157.08C222.689 157.736 222.073 158.248 221.305 158.616C220.553 158.968 219.729 159.144 218.833 159.144C217.137 159.144 215.801 158.68 214.825 157.752C213.849 156.808 213.361 155.424 213.361 153.6V146.28H215.665V153.336C215.665 154.568 215.961 155.504 216.553 156.144C217.145 156.768 217.993 157.08 219.097 157.08C220.313 157.08 221.273 156.712 221.977 155.976C222.681 155.24 223.033 154.2 223.033 152.856V146.28H225.337ZM236.875 158.256C236.539 158.544 236.123 158.768 235.627 158.928C235.131 159.072 234.619 159.144 234.091 159.144C232.811 159.144 231.819 158.8 231.115 158.112C230.411 157.424 230.059 156.44 230.059 155.16V148.176H227.899V146.28H230.059V143.496H232.363V146.28H236.011V148.176H232.363V155.064C232.363 155.752 232.531 156.28 232.867 156.648C233.219 157.016 233.715 157.2 234.355 157.2C235.059 157.2 235.659 157 236.155 156.6L236.875 158.256ZM251.517 146.28V159H249.333V157.08C248.869 157.736 248.253 158.248 247.485 158.616C246.733 158.968 245.909 159.144 245.013 159.144C243.317 159.144 241.981 158.68 241.005 157.752C240.029 156.808 239.541 155.424 239.541 153.6V146.28H241.845V153.336C241.845 154.568 242.141 155.504 242.733 156.144C243.325 156.768 244.173 157.08 245.277 157.08C246.493 157.08 247.453 156.712 248.157 155.976C248.861 155.24 249.213 154.2 249.213 152.856V146.28H251.517ZM258.111 148.416C258.511 147.68 259.103 147.12 259.887 146.736C260.671 146.352 261.623 146.16 262.743 146.16V148.392C262.615 148.376 262.439 148.368 262.215 148.368C260.967 148.368 259.983 148.744 259.263 149.496C258.559 150.232 258.207 151.288 258.207 152.664V159H255.903V146.28H258.111V148.416ZM270.191 146.16C271.951 146.16 273.295 146.592 274.223 147.456C275.167 148.32 275.639 149.608 275.639 151.32V159H273.455V157.32C273.071 157.912 272.519 158.368 271.799 158.688C271.095 158.992 270.255 159.144 269.279 159.144C267.855 159.144 266.711 158.8 265.847 158.112C264.999 157.424 264.575 156.52 264.575 155.4C264.575 154.28 264.983 153.384 265.799 152.712C266.615 152.024 267.911 151.68 269.687 151.68H273.335V151.224C273.335 150.232 273.047 149.472 272.471 148.944C271.895 148.416 271.047 148.152 269.927 148.152C269.175 148.152 268.439 148.28 267.719 148.536C266.999 148.776 266.391 149.104 265.895 149.52L264.935 147.792C265.591 147.264 266.375 146.864 267.287 146.592C268.199 146.304 269.167 146.16 270.191 146.16ZM269.663 157.368C270.543 157.368 271.303 157.176 271.943 156.792C272.583 156.392 273.047 155.832 273.335 155.112V153.336H269.783C267.831 153.336 266.855 153.992 266.855 155.304C266.855 155.944 267.103 156.448 267.599 156.816C268.095 157.184 268.783 157.368 269.663 157.368ZM282.111 148.416C282.511 147.68 283.103 147.12 283.887 146.736C284.671 146.352 285.623 146.16 286.743 146.16V148.392C286.615 148.376 286.439 148.368 286.215 148.368C284.967 148.368 283.983 148.744 283.263 149.496C282.559 150.232 282.207 151.288 282.207 152.664V159H279.903V146.28H282.111V148.416ZM308.048 146.28V159H305.864V157.08C305.4 157.736 304.784 158.248 304.016 158.616C303.264 158.968 302.44 159.144 301.544 159.144C299.848 159.144 298.512 158.68 297.536 157.752C296.56 156.808 296.072 155.424 296.072 153.6V146.28H298.376V153.336C298.376 154.568 298.672 155.504 299.264 156.144C299.856 156.768 300.704 157.08 301.808 157.08C303.024 157.08 303.984 156.712 304.688 155.976C305.392 155.24 305.744 154.2 305.744 152.856V146.28H308.048ZM328.346 146.16C329.946 146.16 331.21 146.624 332.138 147.552C333.082 148.48 333.554 149.856 333.554 151.68V159H331.25V151.944C331.25 150.712 330.962 149.784 330.386 149.16C329.826 148.536 329.018 148.224 327.962 148.224C326.794 148.224 325.866 148.592 325.178 149.328C324.49 150.048 324.146 151.088 324.146 152.448V159H321.842V151.944C321.842 150.712 321.554 149.784 320.978 149.16C320.418 148.536 319.61 148.224 318.554 148.224C317.386 148.224 316.458 148.592 315.77 149.328C315.082 150.048 314.738 151.088 314.738 152.448V159H312.434V146.28H314.642V148.176C315.106 147.52 315.714 147.024 316.466 146.688C317.218 146.336 318.074 146.16 319.034 146.16C320.026 146.16 320.906 146.36 321.674 146.76C322.442 147.16 323.034 147.744 323.45 148.512C323.93 147.776 324.594 147.2 325.442 146.784C326.306 146.368 327.274 146.16 328.346 146.16ZM28.928 182.16C30.16 182.16 31.264 182.432 32.24 182.976C33.216 183.52 33.976 184.28 34.52 185.256C35.08 186.232 35.36 187.36 35.36 188.64C35.36 189.92 35.08 191.056 34.52 192.048C33.976 193.024 33.216 193.784 32.24 194.328C31.264 194.872 30.16 195.144 28.928 195.144C28.016 195.144 27.176 194.968 26.408 194.616C25.656 194.264 25.016 193.752 24.488 193.08V199.656H22.184V182.28H24.392V184.296C24.904 183.592 25.552 183.064 26.336 182.712C27.12 182.344 27.984 182.16 28.928 182.16ZM28.736 193.128C29.552 193.128 30.28 192.944 30.92 192.576C31.576 192.192 32.088 191.664 32.456 190.992C32.84 190.304 33.032 189.52 33.032 188.64C33.032 187.76 32.84 186.984 32.456 186.312C32.088 185.624 31.576 185.096 30.92 184.728C30.28 184.36 29.552 184.176 28.736 184.176C27.936 184.176 27.208 184.368 26.552 184.752C25.912 185.12 25.4 185.64 25.016 186.312C24.648 186.984 24.464 187.76 24.464 188.64C24.464 189.52 24.648 190.304 25.016 190.992C25.384 191.664 25.896 192.192 26.552 192.576C27.208 192.944 27.936 193.128 28.736 193.128ZM40.7514 184.416C41.1514 183.68 41.7434 183.12 42.5274 182.736C43.3114 182.352 44.2634 182.16 45.3834 182.16V184.392C45.2554 184.376 45.0794 184.368 44.8554 184.368C43.6074 184.368 42.6234 184.744 41.9034 185.496C41.1994 186.232 40.8474 187.288 40.8474 188.664V195H38.5434V182.28H40.7514V184.416ZM53.5539 195.144C52.2899 195.144 51.1539 194.864 50.1459 194.304C49.1379 193.744 48.3459 192.976 47.7699 192C47.2099 191.008 46.9299 189.888 46.9299 188.64C46.9299 187.392 47.2099 186.28 47.7699 185.304C48.3459 184.312 49.1379 183.544 50.1459 183C51.1539 182.44 52.2899 182.16 53.5539 182.16C54.8179 182.16 55.9459 182.44 56.9379 183C57.9459 183.544 58.7299 184.312 59.2899 185.304C59.8659 186.28 60.1539 187.392 60.1539 188.64C60.1539 189.888 59.8659 191.008 59.2899 192C58.7299 192.976 57.9459 193.744 56.9379 194.304C55.9459 194.864 54.8179 195.144 53.5539 195.144ZM53.5539 193.128C54.3699 193.128 55.0979 192.944 55.7379 192.576C56.3939 192.192 56.9059 191.664 57.2739 190.992C57.6419 190.304 57.8259 189.52 57.8259 188.64C57.8259 187.76 57.6419 186.984 57.2739 186.312C56.9059 185.624 56.3939 185.096 55.7379 184.728C55.0979 184.36 54.3699 184.176 53.5539 184.176C52.7379 184.176 52.0019 184.36 51.3459 184.728C50.7059 185.096 50.1939 185.624 49.8099 186.312C49.4419 186.984 49.2579 187.76 49.2579 188.64C49.2579 189.52 49.4419 190.304 49.8099 190.992C50.1939 191.664 50.7059 192.192 51.3459 192.576C52.0019 192.944 52.7379 193.128 53.5539 193.128ZM68.8843 195.144C67.5883 195.144 66.4283 194.864 65.4043 194.304C64.3963 193.744 63.6043 192.976 63.0283 192C62.4523 191.008 62.1643 189.888 62.1643 188.64C62.1643 187.392 62.4523 186.28 63.0283 185.304C63.6043 184.312 64.3963 183.544 65.4043 183C66.4283 182.44 67.5883 182.16 68.8843 182.16C70.0363 182.16 71.0603 182.392 71.9563 182.856C72.8683 183.32 73.5723 183.992 74.0683 184.872L72.3163 186C71.9163 185.392 71.4203 184.936 70.8283 184.632C70.2363 184.328 69.5803 184.176 68.8603 184.176C68.0283 184.176 67.2763 184.36 66.6043 184.728C65.9483 185.096 65.4283 185.624 65.0443 186.312C64.6763 186.984 64.4923 187.76 64.4923 188.64C64.4923 189.536 64.6763 190.328 65.0443 191.016C65.4283 191.688 65.9483 192.208 66.6043 192.576C67.2763 192.944 68.0283 193.128 68.8603 193.128C69.5803 193.128 70.2363 192.976 70.8283 192.672C71.4203 192.368 71.9163 191.912 72.3163 191.304L74.0683 192.408C73.5723 193.288 72.8683 193.968 71.9563 194.448C71.0603 194.912 70.0363 195.144 68.8843 195.144ZM88.3597 188.712C88.3597 188.888 88.3437 189.12 88.3117 189.408H77.9917C78.1357 190.528 78.6237 191.432 79.4557 192.12C80.3037 192.792 81.3517 193.128 82.5997 193.128C84.1197 193.128 85.3437 192.616 86.2717 191.592L87.5437 193.08C86.9677 193.752 86.2477 194.264 85.3837 194.616C84.5357 194.968 83.5837 195.144 82.5277 195.144C81.1837 195.144 79.9917 194.872 78.9517 194.328C77.9117 193.768 77.1037 192.992 76.5277 192C75.9677 191.008 75.6877 189.888 75.6877 188.64C75.6877 187.408 75.9597 186.296 76.5037 185.304C77.0637 184.312 77.8237 183.544 78.7837 183C79.7597 182.44 80.8557 182.16 82.0717 182.16C83.2877 182.16 84.3677 182.44 85.3117 183C86.2717 183.544 87.0157 184.312 87.5437 185.304C88.0877 186.296 88.3597 187.432 88.3597 188.712ZM82.0717 184.104C80.9677 184.104 80.0397 184.44 79.2877 185.112C78.5517 185.784 78.1197 186.664 77.9917 187.752H86.1517C86.0237 186.68 85.5837 185.808 84.8317 185.136C84.0957 184.448 83.1757 184.104 82.0717 184.104ZM95.207 195.144C94.167 195.144 93.167 195.008 92.207 194.736C91.247 194.448 90.495 194.088 89.951 193.656L90.911 191.832C91.471 192.232 92.151 192.552 92.951 192.792C93.751 193.032 94.559 193.152 95.375 193.152C97.391 193.152 98.399 192.576 98.399 191.424C98.399 191.04 98.263 190.736 97.991 190.512C97.719 190.288 97.375 190.128 96.959 190.032C96.559 189.92 95.983 189.8 95.231 189.672C94.207 189.512 93.367 189.328 92.711 189.12C92.071 188.912 91.519 188.56 91.055 188.064C90.591 187.568 90.359 186.872 90.359 185.976C90.359 184.824 90.839 183.904 91.799 183.216C92.759 182.512 94.047 182.16 95.663 182.16C96.511 182.16 97.359 182.264 98.207 182.472C99.055 182.68 99.751 182.96 100.295 183.312L99.311 185.136C98.271 184.464 97.047 184.128 95.639 184.128C94.663 184.128 93.919 184.288 93.407 184.608C92.895 184.928 92.639 185.352 92.639 185.88C92.639 186.296 92.783 186.624 93.071 186.864C93.359 187.104 93.711 187.28 94.127 187.392C94.559 187.504 95.159 187.632 95.927 187.776C96.951 187.952 97.775 188.144 98.399 188.352C99.039 188.544 99.583 188.88 100.031 189.36C100.479 189.84 100.703 190.512 100.703 191.376C100.703 192.528 100.207 193.448 99.215 194.136C98.239 194.808 96.903 195.144 95.207 195.144ZM107.23 195.144C106.19 195.144 105.19 195.008 104.23 194.736C103.27 194.448 102.518 194.088 101.974 193.656L102.934 191.832C103.494 192.232 104.174 192.552 104.974 192.792C105.774 193.032 106.582 193.152 107.398 193.152C109.414 193.152 110.422 192.576 110.422 191.424C110.422 191.04 110.286 190.736 110.014 190.512C109.742 190.288 109.398 190.128 108.982 190.032C108.582 189.92 108.006 189.8 107.254 189.672C106.23 189.512 105.39 189.328 104.734 189.12C104.094 188.912 103.542 188.56 103.078 188.064C102.614 187.568 102.382 186.872 102.382 185.976C102.382 184.824 102.862 183.904 103.822 183.216C104.782 182.512 106.07 182.16 107.686 182.16C108.534 182.16 109.382 182.264 110.23 182.472C111.078 182.68 111.774 182.96 112.318 183.312L111.334 185.136C110.294 184.464 109.07 184.128 107.662 184.128C106.686 184.128 105.942 184.288 105.43 184.608C104.918 184.928 104.662 185.352 104.662 185.88C104.662 186.296 104.806 186.624 105.094 186.864C105.382 187.104 105.734 187.28 106.15 187.392C106.582 187.504 107.182 187.632 107.95 187.776C108.974 187.952 109.798 188.144 110.422 188.352C111.062 188.544 111.606 188.88 112.054 189.36C112.502 189.84 112.726 190.512 112.726 191.376C112.726 192.528 112.23 193.448 111.238 194.136C110.262 194.808 108.926 195.144 107.23 195.144ZM121.054 195.144C119.79 195.144 118.654 194.864 117.646 194.304C116.638 193.744 115.846 192.976 115.27 192C114.71 191.008 114.43 189.888 114.43 188.64C114.43 187.392 114.71 186.28 115.27 185.304C115.846 184.312 116.638 183.544 117.646 183C118.654 182.44 119.79 182.16 121.054 182.16C122.318 182.16 123.446 182.44 124.438 183C125.446 183.544 126.23 184.312 126.79 185.304C127.366 186.28 127.654 187.392 127.654 188.64C127.654 189.888 127.366 191.008 126.79 192C126.23 192.976 125.446 193.744 124.438 194.304C123.446 194.864 122.318 195.144 121.054 195.144ZM121.054 193.128C121.87 193.128 122.598 192.944 123.238 192.576C123.894 192.192 124.406 191.664 124.774 190.992C125.142 190.304 125.326 189.52 125.326 188.64C125.326 187.76 125.142 186.984 124.774 186.312C124.406 185.624 123.894 185.096 123.238 184.728C122.598 184.36 121.87 184.176 121.054 184.176C120.238 184.176 119.502 184.36 118.846 184.728C118.206 185.096 117.694 185.624 117.31 186.312C116.942 186.984 116.758 187.76 116.758 188.64C116.758 189.52 116.942 190.304 117.31 190.992C117.694 191.664 118.206 192.192 118.846 192.576C119.502 192.944 120.238 193.128 121.054 193.128ZM142.83 195.144C141.534 195.144 140.374 194.864 139.35 194.304C138.342 193.744 137.55 192.976 136.974 192C136.398 191.008 136.11 189.888 136.11 188.64C136.11 187.392 136.398 186.28 136.974 185.304C137.55 184.312 138.342 183.544 139.35 183C140.374 182.44 141.534 182.16 142.83 182.16C143.982 182.16 145.006 182.392 145.902 182.856C146.814 183.32 147.518 183.992 148.014 184.872L146.262 186C145.862 185.392 145.366 184.936 144.774 184.632C144.182 184.328 143.526 184.176 142.806 184.176C141.974 184.176 141.222 184.36 140.55 184.728C139.894 185.096 139.374 185.624 138.99 186.312C138.622 186.984 138.438 187.76 138.438 188.64C138.438 189.536 138.622 190.328 138.99 191.016C139.374 191.688 139.894 192.208 140.55 192.576C141.222 192.944 141.974 193.128 142.806 193.128C143.526 193.128 144.182 192.976 144.774 192.672C145.366 192.368 145.862 191.912 146.262 191.304L148.014 192.408C147.518 193.288 146.814 193.968 145.902 194.448C145.006 194.912 143.982 195.144 142.83 195.144ZM156.257 195.144C154.993 195.144 153.857 194.864 152.849 194.304C151.841 193.744 151.049 192.976 150.473 192C149.913 191.008 149.633 189.888 149.633 188.64C149.633 187.392 149.913 186.28 150.473 185.304C151.049 184.312 151.841 183.544 152.849 183C153.857 182.44 154.993 182.16 156.257 182.16C157.521 182.16 158.649 182.44 159.641 183C160.649 183.544 161.433 184.312 161.993 185.304C162.569 186.28 162.857 187.392 162.857 188.64C162.857 189.888 162.569 191.008 161.993 192C161.433 192.976 160.649 193.744 159.641 194.304C158.649 194.864 157.521 195.144 156.257 195.144ZM156.257 193.128C157.073 193.128 157.801 192.944 158.441 192.576C159.097 192.192 159.609 191.664 159.977 190.992C160.345 190.304 160.529 189.52 160.529 188.64C160.529 187.76 160.345 186.984 159.977 186.312C159.609 185.624 159.097 185.096 158.441 184.728C157.801 184.36 157.073 184.176 156.257 184.176C155.441 184.176 154.705 184.36 154.049 184.728C153.409 185.096 152.897 185.624 152.513 186.312C152.145 186.984 151.961 187.76 151.961 188.64C151.961 189.52 152.145 190.304 152.513 190.992C152.897 191.664 153.409 192.192 154.049 192.576C154.705 192.944 155.441 193.128 156.257 193.128ZM181.955 182.16C183.555 182.16 184.819 182.624 185.747 183.552C186.691 184.48 187.163 185.856 187.163 187.68V195H184.859V187.944C184.859 186.712 184.571 185.784 183.995 185.16C183.435 184.536 182.627 184.224 181.571 184.224C180.403 184.224 179.475 184.592 178.787 185.328C178.099 186.048 177.755 187.088 177.755 188.448V195H175.451V187.944C175.451 186.712 175.163 185.784 174.587 185.16C174.027 184.536 173.219 184.224 172.163 184.224C170.995 184.224 170.067 184.592 169.379 185.328C168.691 186.048 168.347 187.088 168.347 188.448V195H166.043V182.28H168.251V184.176C168.715 183.52 169.323 183.024 170.075 182.688C170.827 182.336 171.683 182.16 172.643 182.16C173.635 182.16 174.515 182.36 175.283 182.76C176.051 183.16 176.643 183.744 177.059 184.512C177.539 183.776 178.203 183.2 179.051 182.784C179.915 182.368 180.883 182.16 181.955 182.16ZM202.969 188.712C202.969 188.888 202.953 189.12 202.921 189.408H192.601C192.745 190.528 193.233 191.432 194.065 192.12C194.913 192.792 195.961 193.128 197.209 193.128C198.729 193.128 199.953 192.616 200.881 191.592L202.153 193.08C201.577 193.752 200.857 194.264 199.993 194.616C199.145 194.968 198.193 195.144 197.137 195.144C195.793 195.144 194.601 194.872 193.561 194.328C192.521 193.768 191.713 192.992 191.137 192C190.577 191.008 190.297 189.888 190.297 188.64C190.297 187.408 190.569 186.296 191.113 185.304C191.673 184.312 192.433 183.544 193.393 183C194.369 182.44 195.465 182.16 196.681 182.16C197.897 182.16 198.977 182.44 199.921 183C200.881 183.544 201.625 184.312 202.153 185.304C202.697 186.296 202.969 187.432 202.969 188.712ZM196.681 184.104C195.577 184.104 194.649 184.44 193.897 185.112C193.161 185.784 192.729 186.664 192.601 187.752H200.761C200.633 186.68 200.193 185.808 199.441 185.136C198.705 184.448 197.785 184.104 196.681 184.104ZM208.376 184.416C208.776 183.68 209.368 183.12 210.152 182.736C210.936 182.352 211.888 182.16 213.008 182.16V184.392C212.88 184.376 212.704 184.368 212.48 184.368C211.232 184.368 210.248 184.744 209.528 185.496C208.824 186.232 208.472 187.288 208.472 188.664V195H206.168V182.28H208.376V184.416ZM221.275 195.144C219.979 195.144 218.819 194.864 217.795 194.304C216.787 193.744 215.995 192.976 215.419 192C214.843 191.008 214.555 189.888 214.555 188.64C214.555 187.392 214.843 186.28 215.419 185.304C215.995 184.312 216.787 183.544 217.795 183C218.819 182.44 219.979 182.16 221.275 182.16C222.427 182.16 223.451 182.392 224.347 182.856C225.259 183.32 225.963 183.992 226.459 184.872L224.707 186C224.307 185.392 223.811 184.936 223.219 184.632C222.627 184.328 221.971 184.176 221.251 184.176C220.419 184.176 219.667 184.36 218.995 184.728C218.339 185.096 217.819 185.624 217.435 186.312C217.067 186.984 216.883 187.76 216.883 188.64C216.883 189.536 217.067 190.328 217.435 191.016C217.819 191.688 218.339 192.208 218.995 192.576C219.667 192.944 220.419 193.128 221.251 193.128C221.971 193.128 222.627 192.976 223.219 192.672C223.811 192.368 224.307 191.912 224.707 191.304L226.459 192.408C225.963 193.288 225.259 193.968 224.347 194.448C223.451 194.912 222.427 195.144 221.275 195.144ZM229.442 182.28H231.746V195H229.442V182.28ZM230.594 179.832C230.146 179.832 229.77 179.688 229.466 179.4C229.178 179.112 229.034 178.76 229.034 178.344C229.034 177.928 229.178 177.576 229.466 177.288C229.77 176.984 230.146 176.832 230.594 176.832C231.042 176.832 231.41 176.976 231.698 177.264C232.002 177.536 232.154 177.88 232.154 178.296C232.154 178.728 232.002 179.096 231.698 179.4C231.41 179.688 231.042 179.832 230.594 179.832ZM240.777 182.16C242.537 182.16 243.881 182.592 244.809 183.456C245.753 184.32 246.225 185.608 246.225 187.32V195H244.041V193.32C243.657 193.912 243.105 194.368 242.385 194.688C241.681 194.992 240.841 195.144 239.865 195.144C238.441 195.144 237.297 194.8 236.433 194.112C235.585 193.424 235.161 192.52 235.161 191.4C235.161 190.28 235.569 189.384 236.385 188.712C237.201 188.024 238.497 187.68 240.273 187.68H243.921V187.224C243.921 186.232 243.633 185.472 243.057 184.944C242.481 184.416 241.633 184.152 240.513 184.152C239.761 184.152 239.025 184.28 238.305 184.536C237.585 184.776 236.977 185.104 236.481 185.52L235.521 183.792C236.177 183.264 236.961 182.864 237.873 182.592C238.785 182.304 239.753 182.16 240.777 182.16ZM240.249 193.368C241.129 193.368 241.889 193.176 242.529 192.792C243.169 192.392 243.633 191.832 243.921 191.112V189.336H240.369C238.417 189.336 237.441 189.992 237.441 191.304C237.441 191.944 237.689 192.448 238.185 192.816C238.681 193.184 239.369 193.368 240.249 193.368ZM250.489 177.192H252.793V195H250.489V177.192ZM275.637 182.28V199.656H273.333V193.08C272.805 193.752 272.157 194.264 271.389 194.616C270.637 194.968 269.805 195.144 268.893 195.144C267.661 195.144 266.557 194.872 265.581 194.328C264.605 193.784 263.837 193.024 263.277 192.048C262.733 191.056 262.461 189.92 262.461 188.64C262.461 187.36 262.733 186.232 263.277 185.256C263.837 184.28 264.605 183.52 265.581 182.976C266.557 182.432 267.661 182.16 268.893 182.16C269.837 182.16 270.701 182.344 271.485 182.712C272.269 183.064 272.917 183.592 273.429 184.296V182.28H275.637ZM269.085 193.128C269.885 193.128 270.613 192.944 271.269 192.576C271.925 192.192 272.437 191.664 272.805 190.992C273.173 190.304 273.357 189.52 273.357 188.64C273.357 187.76 273.165 186.984 272.781 186.312C272.413 185.64 271.901 185.12 271.245 184.752C270.605 184.368 269.885 184.176 269.085 184.176C268.269 184.176 267.533 184.36 266.877 184.728C266.237 185.096 265.725 185.624 265.341 186.312C264.973 186.984 264.789 187.76 264.789 188.64C264.789 189.52 264.973 190.304 265.341 190.992C265.725 191.664 266.237 192.192 266.877 192.576C267.533 192.944 268.269 193.128 269.085 193.128ZM291.853 182.28V195H289.669V193.08C289.205 193.736 288.589 194.248 287.821 194.616C287.069 194.968 286.245 195.144 285.349 195.144C283.653 195.144 282.317 194.68 281.34 193.752C280.365 192.808 279.877 191.424 279.877 189.6V182.28H282.181V189.336C282.181 190.568 282.477 191.504 283.069 192.144C283.661 192.768 284.509 193.08 285.613 193.08C286.829 193.08 287.789 192.712 288.493 191.976C289.197 191.24 289.549 190.2 289.549 188.856V182.28H291.853ZM307.735 188.712C307.735 188.888 307.719 189.12 307.687 189.408H297.367C297.511 190.528 297.999 191.432 298.831 192.12C299.679 192.792 300.727 193.128 301.975 193.128C303.495 193.128 304.719 192.616 305.647 191.592L306.919 193.08C306.343 193.752 305.623 194.264 304.759 194.616C303.911 194.968 302.959 195.144 301.903 195.144C300.559 195.144 299.367 194.872 298.327 194.328C297.287 193.768 296.479 192.992 295.903 192C295.343 191.008 295.063 189.888 295.063 188.64C295.063 187.408 295.335 186.296 295.879 185.304C296.439 184.312 297.199 183.544 298.159 183C299.135 182.44 300.231 182.16 301.447 182.16C302.663 182.16 303.743 182.44 304.687 183C305.647 183.544 306.391 184.312 306.919 185.304C307.463 186.296 307.735 187.432 307.735 188.712ZM301.447 184.104C300.343 184.104 299.415 184.44 298.663 185.112C297.927 185.784 297.495 186.664 297.367 187.752H305.527C305.399 186.68 304.959 185.808 304.207 185.136C303.471 184.448 302.551 184.104 301.447 184.104ZM324.531 194.256C324.195 194.544 323.779 194.768 323.283 194.928C322.787 195.072 322.275 195.144 321.747 195.144C320.467 195.144 319.475 194.8 318.771 194.112C318.067 193.424 317.715 192.44 317.715 191.16V184.176H315.555V182.28H317.715V179.496H320.019V182.28H323.667V184.176H320.019V191.064C320.019 191.752 320.187 192.28 320.523 192.648C320.875 193.016 321.371 193.2 322.011 193.2C322.715 193.2 323.315 193 323.811 192.6L324.531 194.256ZM329.525 184.416C329.925 183.68 330.517 183.12 331.301 182.736C332.085 182.352 333.037 182.16 334.157 182.16V184.392C334.029 184.376 333.853 184.368 333.629 184.368C332.381 184.368 331.397 184.744 330.677 185.496C329.973 186.232 329.621 187.288 329.621 188.664V195H327.317V182.28H329.525V184.416ZM341.605 182.16C343.365 182.16 344.709 182.592 345.637 183.456C346.581 184.32 347.053 185.608 347.053 187.32V195H344.869V193.32C344.485 193.912 343.933 194.368 343.213 194.688C342.509 194.992 341.669 195.144 340.693 195.144C339.269 195.144 338.125 194.8 337.261 194.112C336.413 193.424 335.989 192.52 335.989 191.4C335.989 190.28 336.397 189.384 337.213 188.712C338.029 188.024 339.325 187.68 341.101 187.68H344.749V187.224C344.749 186.232 344.461 185.472 343.885 184.944C343.309 184.416 342.461 184.152 341.341 184.152C340.589 184.152 339.853 184.28 339.133 184.536C338.413 184.776 337.805 185.104 337.309 185.52L336.349 183.792C337.005 183.264 337.789 182.864 338.701 182.592C339.613 182.304 340.581 182.16 341.605 182.16ZM341.077 193.368C341.957 193.368 342.717 193.176 343.357 192.792C343.997 192.392 344.461 191.832 344.749 191.112V189.336H341.197C339.245 189.336 338.269 189.992 338.269 191.304C338.269 191.944 338.517 192.448 339.013 192.816C339.509 193.184 340.197 193.368 341.077 193.368ZM363.555 182.28V193.272C363.555 195.496 363.003 197.136 361.899 198.192C360.795 199.264 359.147 199.8 356.955 199.8C355.755 199.8 354.611 199.632 353.523 199.296C352.435 198.976 351.555 198.512 350.883 197.904L351.987 196.128C352.579 196.64 353.307 197.04 354.171 197.328C355.051 197.632 355.955 197.784 356.883 197.784C358.371 197.784 359.467 197.432 360.171 196.728C360.891 196.024 361.251 194.952 361.251 193.512V192.504C360.707 193.16 360.035 193.656 359.235 193.992C358.451 194.312 357.595 194.472 356.667 194.472C355.451 194.472 354.347 194.216 353.355 193.704C352.379 193.176 351.611 192.448 351.051 191.52C350.491 190.576 350.211 189.504 350.211 188.304C350.211 187.104 350.491 186.04 351.051 185.112C351.611 184.168 352.379 183.44 353.355 182.928C354.347 182.416 355.451 182.16 356.667 182.16C357.627 182.16 358.515 182.336 359.331 182.688C360.163 183.04 360.843 183.56 361.371 184.248V182.28H363.555ZM356.931 192.456C357.763 192.456 358.507 192.28 359.163 191.928C359.835 191.576 360.355 191.088 360.723 190.464C361.107 189.824 361.299 189.104 361.299 188.304C361.299 187.072 360.891 186.08 360.075 185.328C359.259 184.56 358.211 184.176 356.931 184.176C355.635 184.176 354.579 184.56 353.763 185.328C352.947 186.08 352.539 187.072 352.539 188.304C352.539 189.104 352.723 189.824 353.091 190.464C353.475 191.088 353.995 191.576 354.651 191.928C355.323 192.28 356.083 192.456 356.931 192.456ZM372.589 182.16C374.349 182.16 375.693 182.592 376.621 183.456C377.565 184.32 378.037 185.608 378.037 187.32V195H375.853V193.32C375.469 193.912 374.917 194.368 374.197 194.688C373.493 194.992 372.653 195.144 371.677 195.144C370.253 195.144 369.109 194.8 368.245 194.112C367.397 193.424 366.973 192.52 366.973 191.4C366.973 190.28 367.381 189.384 368.197 188.712C369.013 188.024 370.309 187.68 372.085 187.68H375.733V187.224C375.733 186.232 375.445 185.472 374.869 184.944C374.293 184.416 373.445 184.152 372.325 184.152C371.573 184.152 370.837 184.28 370.117 184.536C369.397 184.776 368.789 185.104 368.293 185.52L367.333 183.792C367.989 183.264 368.773 182.864 369.685 182.592C370.597 182.304 371.565 182.16 372.589 182.16ZM372.061 193.368C372.941 193.368 373.701 193.176 374.341 192.792C374.981 192.392 375.445 191.832 375.733 191.112V189.336H372.181C370.229 189.336 369.253 189.992 369.253 191.304C369.253 191.944 369.501 192.448 369.997 192.816C370.493 193.184 371.181 193.368 372.061 193.368ZM400.603 182.28V195H398.419V193.08C397.955 193.736 397.339 194.248 396.571 194.616C395.819 194.968 394.995 195.144 394.099 195.144C392.403 195.144 391.067 194.68 390.09 193.752C389.115 192.808 388.627 191.424 388.627 189.6V182.28H390.931V189.336C390.931 190.568 391.227 191.504 391.819 192.144C392.411 192.768 393.259 193.08 394.363 193.08C395.579 193.08 396.539 192.712 397.243 191.976C397.947 191.24 398.299 190.2 398.299 188.856V182.28H400.603ZM420.901 182.16C422.501 182.16 423.765 182.624 424.693 183.552C425.637 184.48 426.109 185.856 426.109 187.68V195H423.805V187.944C423.805 186.712 423.517 185.784 422.941 185.16C422.381 184.536 421.573 184.224 420.517 184.224C419.349 184.224 418.421 184.592 417.733 185.328C417.045 186.048 416.701 187.088 416.701 188.448V195H414.397V187.944C414.397 186.712 414.109 185.784 413.533 185.16C412.973 184.536 412.165 184.224 411.109 184.224C409.941 184.224 409.013 184.592 408.325 185.328C407.637 186.048 407.293 187.088 407.293 188.448V195H404.989V182.28H407.197V184.176C407.661 183.52 408.269 183.024 409.021 182.688C409.773 182.336 410.629 182.16 411.589 182.16C412.581 182.16 413.461 182.36 414.229 182.76C414.997 183.16 415.589 183.744 416.005 184.512C416.485 183.776 417.149 183.2 417.997 182.784C418.861 182.368 419.829 182.16 420.901 182.16ZM434.98 182.16C436.74 182.16 438.084 182.592 439.012 183.456C439.956 184.32 440.428 185.608 440.428 187.32V195H438.244V193.32C437.86 193.912 437.308 194.368 436.588 194.688C435.884 194.992 435.044 195.144 434.068 195.144C432.644 195.144 431.5 194.8 430.636 194.112C429.788 193.424 429.364 192.52 429.364 191.4C429.364 190.28 429.772 189.384 430.588 188.712C431.404 188.024 432.7 187.68 434.476 187.68H438.124V187.224C438.124 186.232 437.836 185.472 437.26 184.944C436.684 184.416 435.836 184.152 434.716 184.152C433.964 184.152 433.228 184.28 432.508 184.536C431.788 184.776 431.18 185.104 430.684 185.52L429.724 183.792C430.38 183.264 431.164 182.864 432.076 182.592C432.988 182.304 433.956 182.16 434.98 182.16ZM434.452 193.368C435.332 193.368 436.092 193.176 436.732 192.792C437.372 192.392 437.836 191.832 438.124 191.112V189.336H434.572C432.62 189.336 431.644 189.992 431.644 191.304C431.644 191.944 431.892 192.448 432.388 192.816C432.884 193.184 433.572 193.368 434.452 193.368ZM24.392 220.416C24.792 219.68 25.384 219.12 26.168 218.736C26.952 218.352 27.904 218.16 29.024 218.16V220.392C28.896 220.376 28.72 220.368 28.496 220.368C27.248 220.368 26.264 220.744 25.544 221.496C24.84 222.232 24.488 223.288 24.488 224.664V231H22.184V218.28H24.392V220.416ZM43.2425 224.712C43.2425 224.888 43.2265 225.12 43.1945 225.408H32.8745C33.0185 226.528 33.5065 227.432 34.3385 228.12C35.1865 228.792 36.2345 229.128 37.4825 229.128C39.0025 229.128 40.2265 228.616 41.1545 227.592L42.4265 229.08C41.8505 229.752 41.1305 230.264 40.2665 230.616C39.4185 230.968 38.4665 231.144 37.4105 231.144C36.0665 231.144 34.8745 230.872 33.8345 230.328C32.7945 229.768 31.9865 228.992 31.4105 228C30.8505 227.008 30.5705 225.888 30.5705 224.64C30.5705 223.408 30.8425 222.296 31.3865 221.304C31.9465 220.312 32.7065 219.544 33.6665 219C34.6425 218.44 35.7385 218.16 36.9545 218.16C38.1705 218.16 39.2505 218.44 40.1945 219C41.1545 219.544 41.8985 220.312 42.4265 221.304C42.9705 222.296 43.2425 223.432 43.2425 224.712ZM36.9545 220.104C35.8505 220.104 34.9225 220.44 34.1705 221.112C33.4345 221.784 33.0025 222.664 32.8745 223.752H41.0345C40.9065 222.68 40.4665 221.808 39.7145 221.136C38.9785 220.448 38.0585 220.104 36.9545 220.104ZM51.9858 231.144C50.6898 231.144 49.5298 230.864 48.5058 230.304C47.4978 229.744 46.7058 228.976 46.1298 228C45.5538 227.008 45.2658 225.888 45.2658 224.64C45.2658 223.392 45.5538 222.28 46.1298 221.304C46.7058 220.312 47.4978 219.544 48.5058 219C49.5298 218.44 50.6898 218.16 51.9858 218.16C53.1378 218.16 54.1618 218.392 55.0578 218.856C55.9698 219.32 56.6738 219.992 57.1698 220.872L55.4178 222C55.0178 221.392 54.5218 220.936 53.9298 220.632C53.3378 220.328 52.6818 220.176 51.9618 220.176C51.1298 220.176 50.3778 220.36 49.7058 220.728C49.0498 221.096 48.5298 221.624 48.1458 222.312C47.7778 222.984 47.5938 223.76 47.5938 224.64C47.5938 225.536 47.7778 226.328 48.1458 227.016C48.5298 227.688 49.0498 228.208 49.7058 228.576C50.3778 228.944 51.1298 229.128 51.9618 229.128C52.6818 229.128 53.3378 228.976 53.9298 228.672C54.5218 228.368 55.0178 227.912 55.4178 227.304L57.1698 228.408C56.6738 229.288 55.9698 229.968 55.0578 230.448C54.1618 230.912 53.1378 231.144 51.9858 231.144ZM71.4613 224.712C71.4613 224.888 71.4453 225.12 71.4133 225.408H61.0933C61.2373 226.528 61.7253 227.432 62.5573 228.12C63.4053 228.792 64.4533 229.128 65.7013 229.128C67.2213 229.128 68.4453 228.616 69.3733 227.592L70.6453 229.08C70.0693 229.752 69.3493 230.264 68.4853 230.616C67.6373 230.968 66.6853 231.144 65.6293 231.144C64.2853 231.144 63.0933 230.872 62.0533 230.328C61.0133 229.768 60.2053 228.992 59.6293 228C59.0693 227.008 58.7893 225.888 58.7893 224.64C58.7893 223.408 59.0613 222.296 59.6053 221.304C60.1653 220.312 60.9253 219.544 61.8853 219C62.8613 218.44 63.9573 218.16 65.1733 218.16C66.3893 218.16 67.4693 218.44 68.4133 219C69.3733 219.544 70.1173 220.312 70.6453 221.304C71.1893 222.296 71.4613 223.432 71.4613 224.712ZM65.1733 220.104C64.0693 220.104 63.1413 220.44 62.3893 221.112C61.6533 221.784 61.2213 222.664 61.0933 223.752H69.2533C69.1253 222.68 68.6853 221.808 67.9333 221.136C67.1973 220.448 66.2773 220.104 65.1733 220.104ZM74.6606 218.28H76.9646V231H74.6606V218.28ZM75.8126 215.832C75.3646 215.832 74.9886 215.688 74.6846 215.4C74.3966 215.112 74.2526 214.76 74.2526 214.344C74.2526 213.928 74.3966 213.576 74.6846 213.288C74.9886 212.984 75.3646 212.832 75.8126 212.832C76.2606 212.832 76.6286 212.976 76.9166 213.264C77.2206 213.536 77.3726 213.88 77.3726 214.296C77.3726 214.728 77.2206 215.096 76.9166 215.4C76.6286 215.688 76.2606 215.832 75.8126 215.832ZM88.5157 230.256C88.1797 230.544 87.7637 230.768 87.2677 230.928C86.7717 231.072 86.2597 231.144 85.7317 231.144C84.4517 231.144 83.4597 230.8 82.7557 230.112C82.0517 229.424 81.6997 228.44 81.6997 227.16V220.176H79.5397V218.28H81.6997V215.496H84.0037V218.28H87.6517V220.176H84.0037V227.064C84.0037 227.752 84.1717 228.28 84.5077 228.648C84.8597 229.016 85.3557 229.2 85.9957 229.2C86.6997 229.2 87.2997 229 87.7957 228.6L88.5157 230.256ZM95.9332 218.16C97.6932 218.16 99.0372 218.592 99.9652 219.456C100.909 220.32 101.381 221.608 101.381 223.32V231H99.1972V229.32C98.8132 229.912 98.2612 230.368 97.5412 230.688C96.8372 230.992 95.9972 231.144 95.0212 231.144C93.5972 231.144 92.4532 230.8 91.5892 230.112C90.7412 229.424 90.3172 228.52 90.3172 227.4C90.3172 226.28 90.7252 225.384 91.5412 224.712C92.3572 224.024 93.6532 223.68 95.4292 223.68H99.0772V223.224C99.0772 222.232 98.7892 221.472 98.2132 220.944C97.6372 220.416 96.7892 220.152 95.6692 220.152C94.9172 220.152 94.1812 220.28 93.4612 220.536C92.7412 220.776 92.1332 221.104 91.6372 221.52L90.6772 219.792C91.3332 219.264 92.1172 218.864 93.0292 218.592C93.9412 218.304 94.9092 218.16 95.9332 218.16ZM95.4052 229.368C96.2852 229.368 97.0452 229.176 97.6852 228.792C98.3252 228.392 98.7892 227.832 99.0772 227.112V225.336H95.5252C93.5732 225.336 92.5972 225.992 92.5972 227.304C92.5972 227.944 92.8452 228.448 93.3412 228.816C93.8372 229.184 94.5252 229.368 95.4052 229.368ZM118.834 218.16C120.066 218.16 121.17 218.432 122.146 218.976C123.122 219.52 123.882 220.28 124.426 221.256C124.986 222.232 125.266 223.36 125.266 224.64C125.266 225.92 124.986 227.056 124.426 228.048C123.882 229.024 123.122 229.784 122.146 230.328C121.17 230.872 120.066 231.144 118.834 231.144C117.922 231.144 117.082 230.968 116.314 230.616C115.562 230.264 114.922 229.752 114.394 229.08V235.656H112.09V218.28H114.298V220.296C114.81 219.592 115.458 219.064 116.242 218.712C117.026 218.344 117.89 218.16 118.834 218.16ZM118.642 229.128C119.458 229.128 120.186 228.944 120.826 228.576C121.482 228.192 121.994 227.664 122.362 226.992C122.746 226.304 122.938 225.52 122.938 224.64C122.938 223.76 122.746 222.984 122.362 222.312C121.994 221.624 121.482 221.096 120.826 220.728C120.186 220.36 119.458 220.176 118.642 220.176C117.842 220.176 117.114 220.368 116.458 220.752C115.818 221.12 115.306 221.64 114.922 222.312C114.554 222.984 114.37 223.76 114.37 224.64C114.37 225.52 114.554 226.304 114.922 226.992C115.29 227.664 115.802 228.192 116.458 228.576C117.114 228.944 117.842 229.128 118.642 229.128ZM130.658 220.416C131.058 219.68 131.65 219.12 132.434 218.736C133.218 218.352 134.17 218.16 135.29 218.16V220.392C135.162 220.376 134.986 220.368 134.762 220.368C133.514 220.368 132.53 220.744 131.81 221.496C131.106 222.232 130.754 223.288 130.754 224.664V231H128.45V218.28H130.658V220.416ZM149.508 224.712C149.508 224.888 149.492 225.12 149.46 225.408H139.14C139.284 226.528 139.772 227.432 140.604 228.12C141.452 228.792 142.5 229.128 143.748 229.128C145.268 229.128 146.492 228.616 147.42 227.592L148.692 229.08C148.116 229.752 147.396 230.264 146.532 230.616C145.684 230.968 144.732 231.144 143.676 231.144C142.332 231.144 141.14 230.872 140.1 230.328C139.06 229.768 138.252 228.992 137.676 228C137.116 227.008 136.836 225.888 136.836 224.64C136.836 223.408 137.108 222.296 137.652 221.304C138.212 220.312 138.972 219.544 139.932 219C140.908 218.44 142.004 218.16 143.22 218.16C144.436 218.16 145.516 218.44 146.46 219C147.42 219.544 148.164 220.312 148.692 221.304C149.236 222.296 149.508 223.432 149.508 224.712ZM143.22 220.104C142.116 220.104 141.188 220.44 140.436 221.112C139.7 221.784 139.268 222.664 139.14 223.752H147.3C147.172 222.68 146.732 221.808 145.98 221.136C145.244 220.448 144.324 220.104 143.22 220.104ZM163.729 218.28L158.161 231H155.809L150.241 218.28H152.641L157.009 228.48L161.473 218.28H163.729ZM165.879 218.28H168.183V231H165.879V218.28ZM167.031 215.832C166.583 215.832 166.207 215.688 165.903 215.4C165.615 215.112 165.471 214.76 165.471 214.344C165.471 213.928 165.615 213.576 165.903 213.288C166.207 212.984 166.583 212.832 167.031 212.832C167.479 212.832 167.847 212.976 168.135 213.264C168.439 213.536 168.591 213.88 168.591 214.296C168.591 214.728 168.439 215.096 168.135 215.4C167.847 215.688 167.479 215.832 167.031 215.832ZM176.23 231.144C175.19 231.144 174.19 231.008 173.23 230.736C172.27 230.448 171.518 230.088 170.974 229.656L171.934 227.832C172.494 228.232 173.174 228.552 173.974 228.792C174.774 229.032 175.582 229.152 176.398 229.152C178.414 229.152 179.422 228.576 179.422 227.424C179.422 227.04 179.286 226.736 179.014 226.512C178.742 226.288 178.398 226.128 177.982 226.032C177.582 225.92 177.006 225.8 176.254 225.672C175.23 225.512 174.39 225.328 173.734 225.12C173.094 224.912 172.542 224.56 172.078 224.064C171.614 223.568 171.382 222.872 171.382 221.976C171.382 220.824 171.862 219.904 172.822 219.216C173.782 218.512 175.07 218.16 176.686 218.16C177.534 218.16 178.382 218.264 179.23 218.472C180.078 218.68 180.774 218.96 181.318 219.312L180.334 221.136C179.294 220.464 178.07 220.128 176.662 220.128C175.686 220.128 174.942 220.288 174.43 220.608C173.918 220.928 173.662 221.352 173.662 221.88C173.662 222.296 173.806 222.624 174.094 222.864C174.382 223.104 174.734 223.28 175.15 223.392C175.582 223.504 176.182 223.632 176.95 223.776C177.974 223.952 178.798 224.144 179.422 224.352C180.062 224.544 180.606 224.88 181.054 225.36C181.502 225.84 181.726 226.512 181.726 227.376C181.726 228.528 181.23 229.448 180.238 230.136C179.262 230.808 177.926 231.144 176.23 231.144ZM184.606 218.28H186.91V231H184.606V218.28ZM187.222 213.312H190.15L186.118 216.432H183.958L187.222 213.312ZM202.565 218.28L196.997 231H194.645L189.077 218.28H191.477L195.845 228.48L200.309 218.28H202.565ZM215.86 224.712C215.86 224.888 215.844 225.12 215.812 225.408H205.492C205.636 226.528 206.124 227.432 206.956 228.12C207.804 228.792 208.852 229.128 210.1 229.128C211.62 229.128 212.844 228.616 213.772 227.592L215.044 229.08C214.468 229.752 213.748 230.264 212.884 230.616C212.036 230.968 211.084 231.144 210.028 231.144C208.684 231.144 207.492 230.872 206.452 230.328C205.412 229.768 204.604 228.992 204.028 228C203.468 227.008 203.188 225.888 203.188 224.64C203.188 223.408 203.46 222.296 204.004 221.304C204.564 220.312 205.324 219.544 206.284 219C207.26 218.44 208.356 218.16 209.572 218.16C210.788 218.16 211.868 218.44 212.812 219C213.772 219.544 214.516 220.312 215.044 221.304C215.588 222.296 215.86 223.432 215.86 224.712ZM209.572 220.104C208.468 220.104 207.54 220.44 206.788 221.112C206.052 221.784 205.62 222.664 205.492 223.752H213.652C213.524 222.68 213.084 221.808 212.332 221.136C211.596 220.448 210.676 220.104 209.572 220.104ZM219.059 213.192H221.363V231H219.059V213.192ZM243.703 224.712C243.703 224.888 243.687 225.12 243.655 225.408H233.335C233.479 226.528 233.967 227.432 234.799 228.12C235.647 228.792 236.695 229.128 237.943 229.128C239.463 229.128 240.687 228.616 241.615 227.592L242.887 229.08C242.311 229.752 241.591 230.264 240.727 230.616C239.879 230.968 238.927 231.144 237.871 231.144C236.527 231.144 235.335 230.872 234.295 230.328C233.255 229.768 232.447 228.992 231.871 228C231.311 227.008 231.031 225.888 231.031 224.64C231.031 223.408 231.303 222.296 231.847 221.304C232.407 220.312 233.167 219.544 234.127 219C235.103 218.44 236.199 218.16 237.415 218.16C238.631 218.16 239.711 218.44 240.655 219C241.615 219.544 242.359 220.312 242.887 221.304C243.431 222.296 243.703 223.432 243.703 224.712ZM237.415 220.104C236.311 220.104 235.383 220.44 234.631 221.112C233.895 221.784 233.463 222.664 233.335 223.752H241.495C241.367 222.68 240.927 221.808 240.175 221.136C239.439 220.448 238.519 220.104 237.415 220.104ZM255.556 220.416C255.956 219.68 256.548 219.12 257.332 218.736C258.116 218.352 259.068 218.16 260.188 218.16V220.392C260.06 220.376 259.884 220.368 259.66 220.368C258.412 220.368 257.428 220.744 256.708 221.496C256.004 222.232 255.652 223.288 255.652 224.664V231H253.348V218.28H255.556V220.416ZM274.407 224.712C274.407 224.888 274.391 225.12 274.359 225.408H264.039C264.183 226.528 264.671 227.432 265.503 228.12C266.351 228.792 267.399 229.128 268.647 229.128C270.167 229.128 271.391 228.616 272.319 227.592L273.591 229.08C273.015 229.752 272.295 230.264 271.431 230.616C270.583 230.968 269.631 231.144 268.575 231.144C267.231 231.144 266.039 230.872 264.999 230.328C263.959 229.768 263.151 228.992 262.575 228C262.015 227.008 261.735 225.888 261.735 224.64C261.735 223.408 262.007 222.296 262.551 221.304C263.111 220.312 263.871 219.544 264.831 219C265.807 218.44 266.903 218.16 268.119 218.16C269.335 218.16 270.415 218.44 271.359 219C272.319 219.544 273.063 220.312 273.591 221.304C274.135 222.296 274.407 223.432 274.407 224.712ZM268.119 220.104C267.015 220.104 266.087 220.44 265.335 221.112C264.599 221.784 264.167 222.664 264.039 223.752H272.199C272.071 222.68 271.631 221.808 270.879 221.136C270.143 220.448 269.223 220.104 268.119 220.104ZM283.15 231.144C281.854 231.144 280.694 230.864 279.67 230.304C278.662 229.744 277.87 228.976 277.294 228C276.718 227.008 276.43 225.888 276.43 224.64C276.43 223.392 276.718 222.28 277.294 221.304C277.87 220.312 278.662 219.544 279.67 219C280.694 218.44 281.854 218.16 283.15 218.16C284.302 218.16 285.326 218.392 286.222 218.856C287.134 219.32 287.838 219.992 288.334 220.872L286.582 222C286.182 221.392 285.686 220.936 285.094 220.632C284.502 220.328 283.846 220.176 283.126 220.176C282.294 220.176 281.542 220.36 280.87 220.728C280.214 221.096 279.694 221.624 279.31 222.312C278.942 222.984 278.758 223.76 278.758 224.64C278.758 225.536 278.942 226.328 279.31 227.016C279.694 227.688 280.214 228.208 280.87 228.576C281.542 228.944 282.294 229.128 283.126 229.128C283.846 229.128 284.502 228.976 285.094 228.672C285.686 228.368 286.182 227.912 286.582 227.304L288.334 228.408C287.838 229.288 287.134 229.968 286.222 230.448C285.326 230.912 284.302 231.144 283.15 231.144ZM296.577 231.144C295.313 231.144 294.177 230.864 293.169 230.304C292.161 229.744 291.369 228.976 290.793 228C290.233 227.008 289.953 225.888 289.953 224.64C289.953 223.392 290.233 222.28 290.793 221.304C291.369 220.312 292.161 219.544 293.169 219C294.177 218.44 295.313 218.16 296.577 218.16C297.841 218.16 298.969 218.44 299.961 219C300.969 219.544 301.753 220.312 302.313 221.304C302.889 222.28 303.177 223.392 303.177 224.64C303.177 225.888 302.889 227.008 302.313 228C301.753 228.976 300.969 229.744 299.961 230.304C298.969 230.864 297.841 231.144 296.577 231.144ZM296.577 229.128C297.393 229.128 298.121 228.944 298.761 228.576C299.417 228.192 299.929 227.664 300.297 226.992C300.665 226.304 300.849 225.52 300.849 224.64C300.849 223.76 300.665 222.984 300.297 222.312C299.929 221.624 299.417 221.096 298.761 220.728C298.121 220.36 297.393 220.176 296.577 220.176C295.761 220.176 295.025 220.36 294.369 220.728C293.729 221.096 293.217 221.624 292.833 222.312C292.465 222.984 292.281 223.76 292.281 224.64C292.281 225.52 292.465 226.304 292.833 226.992C293.217 227.664 293.729 228.192 294.369 228.576C295.025 228.944 295.761 229.128 296.577 229.128ZM308.572 220.416C308.972 219.68 309.564 219.12 310.348 218.736C311.132 218.352 312.084 218.16 313.204 218.16V220.392C313.076 220.376 312.9 220.368 312.676 220.368C311.428 220.368 310.444 220.744 309.724 221.496C309.02 222.232 308.668 223.288 308.668 224.664V231H306.364V218.28H308.572V220.416ZM318.251 220.416C318.651 219.68 319.243 219.12 320.027 218.736C320.811 218.352 321.763 218.16 322.883 218.16V220.392C322.755 220.376 322.579 220.368 322.355 220.368C321.107 220.368 320.123 220.744 319.403 221.496C318.699 222.232 318.347 223.288 318.347 224.664V231H316.043V218.28H318.251V220.416ZM337.102 224.712C337.102 224.888 337.086 225.12 337.054 225.408H326.734C326.878 226.528 327.366 227.432 328.198 228.12C329.046 228.792 330.094 229.128 331.342 229.128C332.862 229.128 334.086 228.616 335.014 227.592L336.286 229.08C335.71 229.752 334.99 230.264 334.126 230.616C333.278 230.968 332.326 231.144 331.27 231.144C329.926 231.144 328.734 230.872 327.694 230.328C326.654 229.768 325.846 228.992 325.27 228C324.71 227.008 324.43 225.888 324.43 224.64C324.43 223.408 324.702 222.296 325.246 221.304C325.806 220.312 326.566 219.544 327.526 219C328.502 218.44 329.598 218.16 330.814 218.16C332.03 218.16 333.11 218.44 334.054 219C335.014 219.544 335.758 220.312 336.286 221.304C336.83 222.296 337.102 223.432 337.102 224.712ZM330.814 220.104C329.71 220.104 328.782 220.44 328.03 221.112C327.294 221.784 326.862 222.664 326.734 223.752H334.894C334.766 222.68 334.326 221.808 333.574 221.136C332.838 220.448 331.918 220.104 330.814 220.104ZM347.093 218.16C348.709 218.16 349.989 218.632 350.933 219.576C351.893 220.504 352.373 221.872 352.373 223.68V231H350.069V223.944C350.069 222.712 349.773 221.784 349.181 221.16C348.589 220.536 347.741 220.224 346.637 220.224C345.389 220.224 344.405 220.592 343.685 221.328C342.965 222.048 342.605 223.088 342.605 224.448V231H340.301V218.28H342.509V220.2C342.973 219.544 343.597 219.04 344.381 218.688C345.181 218.336 346.085 218.16 347.093 218.16ZM363.789 230.256C363.453 230.544 363.037 230.768 362.541 230.928C362.045 231.072 361.533 231.144 361.005 231.144C359.725 231.144 358.733 230.8 358.029 230.112C357.325 229.424 356.973 228.44 356.973 227.16V220.176H354.813V218.28H356.973V215.496H359.277V218.28H362.925V220.176H359.277V227.064C359.277 227.752 359.445 228.28 359.781 228.648C360.133 229.016 360.629 229.2 361.269 229.2C361.973 229.2 362.573 229 363.069 228.6L363.789 230.256ZM377.649 224.712C377.649 224.888 377.633 225.12 377.601 225.408H367.281C367.425 226.528 367.913 227.432 368.745 228.12C369.593 228.792 370.641 229.128 371.889 229.128C373.409 229.128 374.633 228.616 375.561 227.592L376.833 229.08C376.257 229.752 375.537 230.264 374.673 230.616C373.825 230.968 372.873 231.144 371.817 231.144C370.473 231.144 369.281 230.872 368.241 230.328C367.201 229.768 366.393 228.992 365.817 228C365.257 227.008 364.977 225.888 364.977 224.64C364.977 223.408 365.249 222.296 365.793 221.304C366.353 220.312 367.113 219.544 368.073 219C369.049 218.44 370.145 218.16 371.361 218.16C372.577 218.16 373.657 218.44 374.601 219C375.561 219.544 376.305 220.312 376.833 221.304C377.377 222.296 377.649 223.432 377.649 224.712ZM371.361 220.104C370.257 220.104 369.329 220.44 368.577 221.112C367.841 221.784 367.409 222.664 367.281 223.752H375.441C375.313 222.68 374.873 221.808 374.121 221.136C373.385 220.448 372.465 220.104 371.361 220.104ZM381.4 231.144C380.952 231.144 380.568 230.992 380.248 230.688C379.928 230.368 379.768 229.968 379.768 229.488C379.768 229.024 379.928 228.64 380.248 228.336C380.568 228.016 380.952 227.856 381.4 227.856C381.848 227.856 382.224 228.008 382.528 228.312C382.832 228.616 382.984 229.008 382.984 229.488C382.984 229.968 382.824 230.368 382.504 230.688C382.2 230.992 381.832 231.144 381.4 231.144Z" fill="#838383"/>
<path d="M129.504 88.392C128.141 88.392 126.779 88.224 125.416 87.888C124.072 87.552 122.896 87.076 121.888 86.46L123.904 82.288C124.688 82.8107 125.556 83.212 126.508 83.492C127.479 83.772 128.421 83.912 129.336 83.912C130.288 83.912 131.044 83.7347 131.604 83.38C132.164 83.0253 132.444 82.5213 132.444 81.868C132.444 81.2893 132.211 80.832 131.744 80.496C131.277 80.1413 130.512 79.964 129.448 79.964H127.124V76.464L132.388 70.78L132.92 72.684H122.896V68.4H137.064V71.872L131.8 77.556L129.084 76.016H130.596C133.041 76.016 134.889 76.5667 136.14 77.668C137.409 78.7507 138.044 80.1507 138.044 81.868C138.044 82.988 137.736 84.0427 137.12 85.032C136.523 86.0213 135.599 86.8333 134.348 87.468C133.097 88.084 131.483 88.392 129.504 88.392ZM142.819 88.252C141.923 88.252 141.167 87.9533 140.551 87.356C139.935 86.7587 139.627 86.0027 139.627 85.088C139.627 84.136 139.935 83.38 140.551 82.82C141.167 82.2413 141.923 81.952 142.819 81.952C143.715 81.952 144.471 82.2413 145.087 82.82C145.703 83.38 146.011 84.136 146.011 85.088C146.011 86.0027 145.703 86.7587 145.087 87.356C144.471 87.9533 143.715 88.252 142.819 88.252Z" fill="#FCA628"/>
<path d="M156.909 88V68.4H161.473L172.281 81.448H170.125V68.4H175.557V88H170.993L160.185 74.952H162.341V88H156.909ZM177.116 88L185.768 68.4H191.228L199.908 88H194.14L187.364 71.116H189.548L182.772 88H177.116ZM181.848 84.192L183.276 80.104H192.852L194.28 84.192H181.848ZM190.696 67C190.192 67 189.744 66.916 189.352 66.748C188.978 66.5613 188.633 66.356 188.316 66.132C187.998 65.908 187.709 65.712 187.448 65.544C187.186 65.3573 186.925 65.264 186.664 65.264C186.29 65.264 185.992 65.3947 185.768 65.656C185.544 65.9173 185.413 66.2813 185.376 66.748H182.772C182.809 65.3853 183.136 64.3027 183.752 63.5C184.386 62.6973 185.245 62.296 186.328 62.296C186.832 62.296 187.28 62.38 187.672 62.548C188.064 62.716 188.409 62.9213 188.708 63.164C189.025 63.388 189.314 63.584 189.576 63.752C189.856 63.92 190.117 64.004 190.36 64.004C190.733 64.004 191.032 63.8827 191.256 63.64C191.498 63.3787 191.629 63.0333 191.648 62.604H194.252C194.233 63.9107 193.906 64.9747 193.272 65.796C192.637 66.5987 191.778 67 190.696 67ZM211.09 88.392C209.522 88.392 208.075 88.14 206.75 87.636C205.425 87.132 204.267 86.4227 203.278 85.508C202.307 84.5747 201.551 83.492 201.01 82.26C200.469 81.028 200.198 79.6747 200.198 78.2C200.198 76.7253 200.469 75.372 201.01 74.14C201.551 72.908 202.307 71.8347 203.278 70.92C204.267 69.9867 205.425 69.268 206.75 68.764C208.075 68.26 209.522 68.008 211.09 68.008C212.677 68.008 214.123 68.26 215.43 68.764C216.755 69.268 217.903 69.9867 218.874 70.92C219.845 71.8347 220.601 72.908 221.142 74.14C221.702 75.372 221.982 76.7253 221.982 78.2C221.982 79.6747 221.702 81.0373 221.142 82.288C220.601 83.52 219.845 84.5933 218.874 85.508C217.903 86.4227 216.755 87.132 215.43 87.636C214.123 88.14 212.677 88.392 211.09 88.392ZM211.09 83.8C211.837 83.8 212.527 83.6693 213.162 83.408C213.815 83.1467 214.375 82.7733 214.842 82.288C215.327 81.784 215.701 81.1867 215.962 80.496C216.242 79.8053 216.382 79.04 216.382 78.2C216.382 77.3413 216.242 76.576 215.962 75.904C215.701 75.2133 215.327 74.6253 214.842 74.14C214.375 73.636 213.815 73.2533 213.162 72.992C212.527 72.7307 211.837 72.6 211.09 72.6C210.343 72.6 209.643 72.7307 208.99 72.992C208.355 73.2533 207.795 73.636 207.31 74.14C206.843 74.6253 206.47 75.2133 206.19 75.904C205.929 76.576 205.798 77.3413 205.798 78.2C205.798 79.04 205.929 79.8053 206.19 80.496C206.47 81.1867 206.843 81.784 207.31 82.288C207.795 82.7733 208.355 83.1467 208.99 83.408C209.643 83.6693 210.343 83.8 211.09 83.8ZM242.918 88.392C241.35 88.392 239.904 88.14 238.578 87.636C237.253 87.132 236.096 86.4227 235.106 85.508C234.136 84.5747 233.38 83.492 232.838 82.26C232.297 81.028 232.026 79.6747 232.026 78.2C232.026 76.7253 232.297 75.372 232.838 74.14C233.38 72.908 234.136 71.8347 235.106 70.92C236.096 69.9867 237.253 69.268 238.578 68.764C239.904 68.26 241.35 68.008 242.918 68.008C244.505 68.008 245.952 68.26 247.258 68.764C248.584 69.268 249.732 69.9867 250.702 70.92C251.673 71.8347 252.429 72.908 252.97 74.14C253.53 75.372 253.81 76.7253 253.81 78.2C253.81 79.6747 253.53 81.0373 252.97 82.288C252.429 83.52 251.673 84.5933 250.702 85.508C249.732 86.4227 248.584 87.132 247.258 87.636C245.952 88.14 244.505 88.392 242.918 88.392ZM242.918 83.8C243.665 83.8 244.356 83.6693 244.99 83.408C245.644 83.1467 246.204 82.7733 246.67 82.288C247.156 81.784 247.529 81.1867 247.79 80.496C248.07 79.8053 248.21 79.04 248.21 78.2C248.21 77.3413 248.07 76.576 247.79 75.904C247.529 75.2133 247.156 74.6253 246.67 74.14C246.204 73.636 245.644 73.2533 244.99 72.992C244.356 72.7307 243.665 72.6 242.918 72.6C242.172 72.6 241.472 72.7307 240.818 72.992C240.184 73.2533 239.624 73.636 239.138 74.14C238.672 74.6253 238.298 75.2133 238.018 75.904C237.757 76.576 237.626 77.3413 237.626 78.2C237.626 79.04 237.757 79.8053 238.018 80.496C238.298 81.1867 238.672 81.784 239.138 82.288C239.624 82.7733 240.184 83.1467 240.818 83.408C241.472 83.6693 242.172 83.8 242.918 83.8ZM256.714 88V68.4H265.674C267.466 68.4 269.006 68.6893 270.294 69.268C271.601 69.8467 272.609 70.6867 273.318 71.788C274.027 72.8707 274.382 74.1587 274.382 75.652C274.382 77.1267 274.027 78.4053 273.318 79.488C272.609 80.552 271.601 81.3733 270.294 81.952C269.006 82.512 267.466 82.792 265.674 82.792H259.794L262.258 80.468V88H256.714ZM268.838 88L263.966 80.86H269.874L274.774 88H268.838ZM262.258 81.056L259.794 78.508H265.338C266.495 78.508 267.354 78.256 267.914 77.752C268.493 77.248 268.782 76.548 268.782 75.652C268.782 74.7373 268.493 74.028 267.914 73.524C267.354 73.02 266.495 72.768 265.338 72.768H259.794L262.258 70.22V81.056ZM287.24 88.392C285.691 88.392 284.254 88.1493 282.928 87.664C281.603 87.16 280.455 86.4507 279.484 85.536C278.532 84.6213 277.786 83.548 277.244 82.316C276.703 81.0653 276.432 79.6933 276.432 78.2C276.432 76.7067 276.703 75.344 277.244 74.112C277.786 72.8613 278.542 71.7787 279.512 70.864C280.483 69.9493 281.631 69.2493 282.956 68.764C284.3 68.26 285.766 68.008 287.352 68.008C289.2 68.008 290.852 68.316 292.308 68.932C293.764 69.548 294.968 70.4347 295.92 71.592L292.392 74.784C291.72 74.056 290.992 73.5147 290.208 73.16C289.443 72.7867 288.584 72.6 287.632 72.6C286.792 72.6 286.027 72.7307 285.336 72.992C284.646 73.2533 284.058 73.636 283.572 74.14C283.087 74.6253 282.704 75.2133 282.424 75.904C282.163 76.576 282.032 77.3413 282.032 78.2C282.032 79.0213 282.163 79.7773 282.424 80.468C282.704 81.1587 283.087 81.756 283.572 82.26C284.058 82.7453 284.636 83.128 285.308 83.408C285.999 83.6693 286.755 83.8 287.576 83.8C288.398 83.8 289.2 83.6693 289.984 83.408C290.768 83.128 291.562 82.6613 292.364 82.008L295.472 85.9C294.352 86.7027 293.055 87.3187 291.58 87.748C290.106 88.1773 288.659 88.392 287.24 88.392ZM290.572 85.172V77.78H295.472V85.9L290.572 85.172ZM296.635 88L305.287 68.4H310.747L319.427 88H313.659L306.883 71.116H309.067L302.291 88H296.635ZM301.367 84.192L302.795 80.104H312.371L313.799 84.192H301.367ZM320.999 88V68.4H325.563L336.371 81.448H334.215V68.4H339.647V88H335.083L324.275 74.952H326.431V88H320.999ZM343.558 88V68.4H349.102V88H343.558ZM352.066 88V84.528L363.602 70.836L364.274 72.796H352.318V68.4H369.202V71.872L357.666 85.564L356.994 83.604H369.622V88H352.066ZM369.698 88L378.35 68.4H383.81L392.49 88H386.722L379.946 71.116H382.13L375.354 88H369.698ZM374.43 84.192L375.858 80.104H385.434L386.862 84.192H374.43ZM394.062 88V68.4H398.626L406.746 81.728H404.338L412.234 68.4H416.798L416.854 88H411.758L411.702 76.156H412.57L406.662 86.068H404.198L398.122 76.156H399.186V88H394.062Z" fill="white"/>
<rect x="20" y="40" width="82" height="81" rx="15" fill="url(#paint0_linear_215_56)" fill-opacity="0.15"/>
<rect x="20" y="40" width="82" height="81" rx="15" fill="black" fill-opacity="0.2"/>
<path d="M67.8662 83.1986L80.0007 95.6354L75.6366 100.001C75.5255 99.8962 75.3944 99.7805 75.2725 99.6572C71.348 95.7408 67.4271 91.8202 63.5098 87.8956C63.2444 87.6289 63.0639 87.6042 62.7384 87.7831C58.4637 90.0953 54.0271 90.5069 49.5642 88.4998C44.4133 86.1799 41.4791 82.1026 41.0503 76.4823C40.6214 70.862 42.9878 66.404 47.7223 63.3657C54.82 58.809 64.0913 61.0457 68.1516 68.2862C70.6631 72.7688 70.6908 77.4226 68.5249 82.081C68.3444 82.4618 68.0961 82.8086 67.8662 83.1986Z" fill="white"/>
<defs>
<linearGradient id="paint0_linear_215_56" x1="20" y1="121" x2="102.979" y2="41.0159" gradientUnits="userSpaceOnUse">
<stop stop-color="#111111"/>
<stop offset="1" stop-color="white"/>
</linearGradient>
</defs>
</svg>
