<svg width="468" height="280" viewBox="0 0 468 280" fill="none" xmlns="http://www.w3.org/2000/svg">
<rect x="0.5" y="0.5" width="467" height="279" rx="14.5" fill="#161616" stroke="#FCA628"/>
<path d="M132.688 69.6V92H126.352V74.496H122.192V69.6H132.688ZM139.481 92.288C138.457 92.288 137.593 91.9467 136.889 91.264C136.185 90.5813 135.833 89.7173 135.833 88.672C135.833 87.6053 136.174 86.7413 136.857 86.08C137.561 85.4187 138.435 85.088 139.481 85.088C140.547 85.088 141.422 85.4187 142.105 86.08C142.787 86.7413 143.129 87.6053 143.129 88.672C143.129 89.7173 142.777 90.5813 142.073 91.264C141.39 91.9467 140.526 92.288 139.481 92.288Z" fill="#FCA628"/>
<path d="M176.896 69.6V92H171.68L161.792 80.064V92H155.584V69.6H160.8L170.688 81.536V69.6H176.896ZM196.373 87.648H186.901L185.141 92H178.677L188.565 69.6H194.805L204.725 92H198.133L196.373 87.648ZM194.517 82.976L191.637 75.808L188.757 82.976H194.517ZM194.197 68C193.621 68 193.098 67.8933 192.629 67.68C192.181 67.4453 191.68 67.136 191.125 66.752C190.72 66.4747 190.41 66.2827 190.197 66.176C190.005 66.0693 189.802 66.016 189.589 66.016C189.162 66.016 188.821 66.1653 188.565 66.464C188.309 66.7627 188.16 67.1787 188.117 67.712H185.141C185.184 66.1547 185.568 64.9173 186.293 64C187.018 63.0827 187.989 62.624 189.205 62.624C189.781 62.624 190.293 62.7307 190.741 62.944C191.189 63.1573 191.701 63.456 192.277 63.84C192.682 64.1173 192.981 64.3093 193.173 64.416C193.386 64.5227 193.6 64.576 193.813 64.576C194.24 64.576 194.581 64.4373 194.837 64.16C195.093 63.8613 195.242 63.4667 195.285 62.976H198.261C198.218 64.4907 197.834 65.7067 197.109 66.624C196.384 67.5413 195.413 68 194.197 68ZM217.505 92.448C215.137 92.448 213.003 91.9467 211.105 90.944C209.227 89.9413 207.745 88.5547 206.657 86.784C205.59 85.0133 205.057 83.0187 205.057 80.8C205.057 78.5813 205.59 76.5867 206.657 74.816C207.745 73.0453 209.227 71.6587 211.105 70.656C213.003 69.6533 215.137 69.152 217.505 69.152C219.873 69.152 221.995 69.6533 223.873 70.656C225.771 71.6587 227.254 73.0453 228.321 74.816C229.409 76.5867 229.953 78.5813 229.953 80.8C229.953 83.0187 229.409 85.0133 228.321 86.784C227.254 88.5547 225.771 89.9413 223.873 90.944C221.995 91.9467 219.873 92.448 217.505 92.448ZM217.505 87.2C218.635 87.2 219.659 86.9333 220.577 86.4C221.494 85.8667 222.219 85.12 222.753 84.16C223.286 83.1787 223.553 82.0587 223.553 80.8C223.553 79.5413 223.286 78.432 222.753 77.472C222.219 76.4907 221.494 75.7333 220.577 75.2C219.659 74.6667 218.635 74.4 217.505 74.4C216.374 74.4 215.35 74.6667 214.433 75.2C213.515 75.7333 212.79 76.4907 212.257 77.472C211.723 78.432 211.457 79.5413 211.457 80.8C211.457 82.0587 211.723 83.1787 212.257 84.16C212.79 85.12 213.515 85.8667 214.433 86.4C215.35 86.9333 216.374 87.2 217.505 87.2ZM252.824 69.6C254.85 69.6 256.61 69.9413 258.104 70.624C259.597 71.2853 260.749 72.2453 261.56 73.504C262.37 74.7413 262.776 76.2027 262.776 77.888C262.776 79.5733 262.37 81.0347 261.56 82.272C260.749 83.5093 259.597 84.4693 258.104 85.152C256.61 85.8133 254.85 86.144 252.824 86.144H248.92V92H242.584V69.6H252.824ZM252.44 81.152C253.741 81.152 254.722 80.8747 255.384 80.32C256.045 79.744 256.376 78.9333 256.376 77.888C256.376 76.8427 256.045 76.032 255.384 75.456C254.722 74.88 253.741 74.592 252.44 74.592H248.92V81.152H252.44ZM265.865 69.6H272.201V86.976H282.889V92H265.865V69.6ZM300.654 87.648H291.182L289.422 92H282.958L292.846 69.6H299.086L309.006 92H302.414L300.654 87.648ZM298.798 82.976L295.918 75.808L293.038 82.976H298.798ZM332.115 69.6V92H326.899L317.01 80.064V92H310.803V69.6H316.019L325.907 81.536V69.6H332.115ZM354.568 87.104V92H336.584V69.6H354.152V74.496H342.856V78.272H352.808V83.008H342.856V87.104H354.568ZM362.98 92.448C361.337 92.448 359.844 92.1707 358.5 91.616C357.156 91.04 356.057 90.2187 355.204 89.152L358.66 85.056C359.854 86.6133 361.145 87.392 362.532 87.392C363.449 87.392 364.142 87.1147 364.612 86.56C365.102 86.0053 365.348 85.1947 365.348 84.128V74.496H357.604V69.6H371.62V83.744C371.62 86.6453 370.884 88.8213 369.412 90.272C367.961 91.7227 365.817 92.448 362.98 92.448ZM390.436 87.648H380.964L379.204 92H372.739L382.628 69.6H388.868L398.788 92H392.196L390.436 87.648ZM388.58 82.976L385.7 75.808L382.82 82.976H388.58ZM420.808 92L420.744 80.128L414.984 89.792H412.168L406.44 80.448V92H400.584V69.6H405.8L413.672 82.528L421.352 69.6H426.568L426.632 92H420.808Z" fill="white"/>
<path d="M36.968 142.2V159H35L24.92 146.472V159H22.52V142.2H24.488L34.568 154.728V142.2H36.968ZM46.2926 146.16C48.0526 146.16 49.3966 146.592 50.3246 147.456C51.2686 148.32 51.7406 149.608 51.7406 151.32V159H49.5566V157.32C49.1726 157.912 48.6206 158.368 47.9006 158.688C47.1966 158.992 46.3566 159.144 45.3806 159.144C43.9566 159.144 42.8126 158.8 41.9486 158.112C41.1006 157.424 40.6766 156.52 40.6766 155.4C40.6766 154.28 41.0846 153.384 41.9006 152.712C42.7166 152.024 44.0126 151.68 45.7886 151.68H49.4366V151.224C49.4366 150.232 49.1486 149.472 48.5726 148.944C47.9966 148.416 47.1486 148.152 46.0286 148.152C45.2766 148.152 44.5406 148.28 43.8206 148.536C43.1006 148.776 42.4926 149.104 41.9966 149.52L41.0366 147.792C41.6926 147.264 42.4766 146.864 43.3886 146.592C44.3006 146.304 45.2686 146.16 46.2926 146.16ZM45.7646 157.368C46.6446 157.368 47.4046 157.176 48.0446 156.792C48.6846 156.392 49.1486 155.832 49.4366 155.112V153.336H45.8846C43.9326 153.336 42.9566 153.992 42.9566 155.304C42.9566 155.944 43.2046 156.448 43.7006 156.816C44.1966 157.184 44.8846 157.368 45.7646 157.368ZM48.1406 144.36C47.7566 144.36 47.4206 144.28 47.1326 144.12C46.8606 143.96 46.5166 143.72 46.1006 143.4C45.8606 143.176 45.6526 143.016 45.4766 142.92C45.3006 142.808 45.1246 142.752 44.9486 142.752C44.5966 142.752 44.3086 142.888 44.0846 143.16C43.8606 143.416 43.7406 143.776 43.7246 144.24H42.4286C42.4606 143.344 42.6846 142.632 43.1006 142.104C43.5326 141.576 44.0926 141.312 44.7806 141.312C45.1646 141.312 45.5006 141.4 45.7886 141.576C46.0926 141.736 46.4366 141.976 46.8206 142.296C47.0926 142.52 47.3086 142.688 47.4686 142.8C47.6286 142.896 47.7966 142.944 47.9726 142.944C48.3246 142.944 48.6126 142.816 48.8366 142.56C49.0606 142.304 49.1806 141.952 49.1966 141.504H50.4926C50.4606 142.368 50.2286 143.064 49.7966 143.592C49.3806 144.104 48.8286 144.36 48.1406 144.36ZM61.5226 159.144C60.2586 159.144 59.1226 158.864 58.1146 158.304C57.1066 157.744 56.3146 156.976 55.7386 156C55.1786 155.008 54.8986 153.888 54.8986 152.64C54.8986 151.392 55.1786 150.28 55.7386 149.304C56.3146 148.312 57.1066 147.544 58.1146 147C59.1226 146.44 60.2586 146.16 61.5226 146.16C62.7866 146.16 63.9146 146.44 64.9066 147C65.9146 147.544 66.6986 148.312 67.2586 149.304C67.8346 150.28 68.1226 151.392 68.1226 152.64C68.1226 153.888 67.8346 155.008 67.2586 156C66.6986 156.976 65.9146 157.744 64.9066 158.304C63.9146 158.864 62.7866 159.144 61.5226 159.144ZM61.5226 157.128C62.3386 157.128 63.0666 156.944 63.7066 156.576C64.3626 156.192 64.8746 155.664 65.2426 154.992C65.6106 154.304 65.7946 153.52 65.7946 152.64C65.7946 151.76 65.6106 150.984 65.2426 150.312C64.8746 149.624 64.3626 149.096 63.7066 148.728C63.0666 148.36 62.3386 148.176 61.5226 148.176C60.7066 148.176 59.9706 148.36 59.3146 148.728C58.6746 149.096 58.1626 149.624 57.7786 150.312C57.4106 150.984 57.2266 151.76 57.2266 152.64C57.2266 153.52 57.4106 154.304 57.7786 154.992C58.1626 155.664 58.6746 156.192 59.3146 156.576C59.9706 156.944 60.7066 157.128 61.5226 157.128ZM81.4023 159.144C80.3623 159.144 79.3623 159.008 78.4023 158.736C77.4423 158.448 76.6903 158.088 76.1463 157.656L77.1063 155.832C77.6663 156.232 78.3463 156.552 79.1463 156.792C79.9463 157.032 80.7543 157.152 81.5703 157.152C83.5863 157.152 84.5943 156.576 84.5943 155.424C84.5943 155.04 84.4583 154.736 84.1863 154.512C83.9143 154.288 83.5703 154.128 83.1543 154.032C82.7543 153.92 82.1783 153.8 81.4263 153.672C80.4023 153.512 79.5623 153.328 78.9063 153.12C78.2663 152.912 77.7143 152.56 77.2503 152.064C76.7863 151.568 76.5543 150.872 76.5543 149.976C76.5543 148.824 77.0343 147.904 77.9943 147.216C78.9543 146.512 80.2423 146.16 81.8583 146.16C82.7063 146.16 83.5543 146.264 84.4023 146.472C85.2503 146.68 85.9463 146.96 86.4903 147.312L85.5063 149.136C84.4663 148.464 83.2423 148.128 81.8343 148.128C80.8583 148.128 80.1143 148.288 79.6023 148.608C79.0903 148.928 78.8343 149.352 78.8343 149.88C78.8343 150.296 78.9783 150.624 79.2663 150.864C79.5543 151.104 79.9063 151.28 80.3223 151.392C80.7543 151.504 81.3543 151.632 82.1223 151.776C83.1463 151.952 83.9703 152.144 84.5943 152.352C85.2343 152.544 85.7783 152.88 86.2263 153.36C86.6743 153.84 86.8983 154.512 86.8983 155.376C86.8983 156.528 86.4023 157.448 85.4103 158.136C84.4343 158.808 83.0983 159.144 81.4023 159.144ZM94.4098 146.16C96.1698 146.16 97.5138 146.592 98.4418 147.456C99.3858 148.32 99.8578 149.608 99.8578 151.32V159H97.6738V157.32C97.2898 157.912 96.7378 158.368 96.0178 158.688C95.3138 158.992 94.4738 159.144 93.4978 159.144C92.0738 159.144 90.9298 158.8 90.0658 158.112C89.2178 157.424 88.7938 156.52 88.7938 155.4C88.7938 154.28 89.2018 153.384 90.0178 152.712C90.8338 152.024 92.1298 151.68 93.9058 151.68H97.5538V151.224C97.5538 150.232 97.2658 149.472 96.6898 148.944C96.1138 148.416 95.2658 148.152 94.1458 148.152C93.3938 148.152 92.6578 148.28 91.9378 148.536C91.2178 148.776 90.6098 149.104 90.1138 149.52L89.1538 147.792C89.8098 147.264 90.5938 146.864 91.5058 146.592C92.4178 146.304 93.3858 146.16 94.4098 146.16ZM93.8818 157.368C94.7618 157.368 95.5218 157.176 96.1618 156.792C96.8018 156.392 97.2658 155.832 97.5538 155.112V153.336H94.0018C92.0498 153.336 91.0738 153.992 91.0738 155.304C91.0738 155.944 91.3218 156.448 91.8178 156.816C92.3138 157.184 93.0018 157.368 93.8818 157.368ZM110.866 146.16C112.098 146.16 113.202 146.432 114.178 146.976C115.154 147.52 115.914 148.28 116.458 149.256C117.018 150.232 117.298 151.36 117.298 152.64C117.298 153.92 117.018 155.056 116.458 156.048C115.914 157.024 115.154 157.784 114.178 158.328C113.202 158.872 112.098 159.144 110.866 159.144C109.922 159.144 109.058 158.96 108.273 158.592C107.49 158.224 106.842 157.688 106.33 156.984V159H104.122V141.192H106.426V148.2C106.938 147.528 107.578 147.024 108.346 146.688C109.114 146.336 109.954 146.16 110.866 146.16ZM110.674 157.128C111.49 157.128 112.218 156.944 112.858 156.576C113.514 156.192 114.026 155.664 114.394 154.992C114.778 154.304 114.97 153.52 114.97 152.64C114.97 151.76 114.778 150.984 114.394 150.312C114.026 149.624 113.514 149.096 112.858 148.728C112.218 148.36 111.49 148.176 110.674 148.176C109.874 148.176 109.146 148.36 108.49 148.728C107.834 149.096 107.322 149.624 106.954 150.312C106.586 150.984 106.402 151.76 106.402 152.64C106.402 153.52 106.586 154.304 106.954 154.992C107.322 155.664 107.834 156.192 108.49 156.576C109.146 156.944 109.874 157.128 110.674 157.128ZM131.977 152.712C131.977 152.888 131.961 153.12 131.929 153.408H121.609C121.753 154.528 122.241 155.432 123.073 156.12C123.921 156.792 124.969 157.128 126.217 157.128C127.737 157.128 128.961 156.616 129.889 155.592L131.161 157.08C130.585 157.752 129.865 158.264 129.001 158.616C128.153 158.968 127.201 159.144 126.145 159.144C124.801 159.144 123.609 158.872 122.569 158.328C121.529 157.768 120.721 156.992 120.145 156C119.585 155.008 119.305 153.888 119.305 152.64C119.305 151.408 119.577 150.296 120.121 149.304C120.681 148.312 121.441 147.544 122.401 147C123.377 146.44 124.473 146.16 125.689 146.16C126.905 146.16 127.985 146.44 128.929 147C129.889 147.544 130.633 148.312 131.161 149.304C131.705 150.296 131.977 151.432 131.977 152.712ZM125.689 148.104C124.585 148.104 123.657 148.44 122.905 149.112C122.169 149.784 121.737 150.664 121.609 151.752H129.769C129.641 150.68 129.201 149.808 128.449 149.136C127.713 148.448 126.793 148.104 125.689 148.104ZM151.088 146.16C152.688 146.16 153.952 146.624 154.88 147.552C155.824 148.48 156.296 149.856 156.296 151.68V159H153.992V151.944C153.992 150.712 153.704 149.784 153.128 149.16C152.568 148.536 151.76 148.224 150.704 148.224C149.536 148.224 148.608 148.592 147.92 149.328C147.232 150.048 146.888 151.088 146.888 152.448V159H144.584V151.944C144.584 150.712 144.296 149.784 143.72 149.16C143.16 148.536 142.352 148.224 141.296 148.224C140.128 148.224 139.2 148.592 138.512 149.328C137.824 150.048 137.48 151.088 137.48 152.448V159H135.176V146.28H137.384V148.176C137.848 147.52 138.456 147.024 139.208 146.688C139.96 146.336 140.816 146.16 141.776 146.16C142.768 146.16 143.648 146.36 144.416 146.76C145.184 147.16 145.776 147.744 146.192 148.512C146.672 147.776 147.336 147.2 148.184 146.784C149.048 146.368 150.016 146.16 151.088 146.16ZM172.525 159.144C171.229 159.144 170.069 158.864 169.045 158.304C168.037 157.744 167.245 156.976 166.669 156C166.093 155.008 165.805 153.888 165.805 152.64C165.805 151.392 166.093 150.28 166.669 149.304C167.245 148.312 168.037 147.544 169.045 147C170.069 146.44 171.229 146.16 172.525 146.16C173.677 146.16 174.701 146.392 175.597 146.856C176.509 147.32 177.213 147.992 177.709 148.872L175.957 150C175.557 149.392 175.061 148.936 174.469 148.632C173.877 148.328 173.221 148.176 172.501 148.176C171.669 148.176 170.917 148.36 170.245 148.728C169.589 149.096 169.069 149.624 168.685 150.312C168.317 150.984 168.133 151.76 168.133 152.64C168.133 153.536 168.317 154.328 168.685 155.016C169.069 155.688 169.589 156.208 170.245 156.576C170.917 156.944 171.669 157.128 172.501 157.128C173.221 157.128 173.877 156.976 174.469 156.672C175.061 156.368 175.557 155.912 175.957 155.304L177.709 156.408C177.213 157.288 176.509 157.968 175.597 158.448C174.701 158.912 173.677 159.144 172.525 159.144ZM185.952 159.144C184.688 159.144 183.552 158.864 182.544 158.304C181.536 157.744 180.744 156.976 180.168 156C179.608 155.008 179.328 153.888 179.328 152.64C179.328 151.392 179.608 150.28 180.168 149.304C180.744 148.312 181.536 147.544 182.544 147C183.552 146.44 184.688 146.16 185.952 146.16C187.216 146.16 188.344 146.44 189.336 147C190.344 147.544 191.128 148.312 191.688 149.304C192.264 150.28 192.552 151.392 192.552 152.64C192.552 153.888 192.264 155.008 191.688 156C191.128 156.976 190.344 157.744 189.336 158.304C188.344 158.864 187.216 159.144 185.952 159.144ZM185.952 157.128C186.768 157.128 187.496 156.944 188.136 156.576C188.792 156.192 189.304 155.664 189.672 154.992C190.04 154.304 190.224 153.52 190.224 152.64C190.224 151.76 190.04 150.984 189.672 150.312C189.304 149.624 188.792 149.096 188.136 148.728C187.496 148.36 186.768 148.176 185.952 148.176C185.136 148.176 184.4 148.36 183.744 148.728C183.104 149.096 182.592 149.624 182.208 150.312C181.84 150.984 181.656 151.76 181.656 152.64C181.656 153.52 181.84 154.304 182.208 154.992C182.592 155.664 183.104 156.192 183.744 156.576C184.4 156.944 185.136 157.128 185.952 157.128ZM211.651 146.16C213.251 146.16 214.515 146.624 215.443 147.552C216.387 148.48 216.859 149.856 216.859 151.68V159H214.555V151.944C214.555 150.712 214.267 149.784 213.691 149.16C213.131 148.536 212.323 148.224 211.267 148.224C210.099 148.224 209.171 148.592 208.483 149.328C207.795 150.048 207.451 151.088 207.451 152.448V159H205.147V151.944C205.147 150.712 204.859 149.784 204.283 149.16C203.723 148.536 202.915 148.224 201.859 148.224C200.691 148.224 199.763 148.592 199.075 149.328C198.387 150.048 198.043 151.088 198.043 152.448V159H195.739V146.28H197.947V148.176C198.411 147.52 199.019 147.024 199.771 146.688C200.523 146.336 201.379 146.16 202.339 146.16C203.331 146.16 204.211 146.36 204.979 146.76C205.747 147.16 206.339 147.744 206.755 148.512C207.235 147.776 207.899 147.2 208.747 146.784C209.611 146.368 210.579 146.16 211.651 146.16ZM226.616 159.144C225.352 159.144 224.216 158.864 223.208 158.304C222.2 157.744 221.408 156.976 220.832 156C220.272 155.008 219.992 153.888 219.992 152.64C219.992 151.392 220.272 150.28 220.832 149.304C221.408 148.312 222.2 147.544 223.208 147C224.216 146.44 225.352 146.16 226.616 146.16C227.88 146.16 229.008 146.44 230 147C231.008 147.544 231.792 148.312 232.352 149.304C232.928 150.28 233.216 151.392 233.216 152.64C233.216 153.888 232.928 155.008 232.352 156C231.792 156.976 231.008 157.744 230 158.304C229.008 158.864 227.88 159.144 226.616 159.144ZM226.616 157.128C227.432 157.128 228.16 156.944 228.8 156.576C229.456 156.192 229.968 155.664 230.336 154.992C230.704 154.304 230.888 153.52 230.888 152.64C230.888 151.76 230.704 150.984 230.336 150.312C229.968 149.624 229.456 149.096 228.8 148.728C228.16 148.36 227.432 148.176 226.616 148.176C225.8 148.176 225.064 148.36 224.408 148.728C223.768 149.096 223.256 149.624 222.872 150.312C222.504 150.984 222.32 151.76 222.32 152.64C222.32 153.52 222.504 154.304 222.872 154.992C223.256 155.664 223.768 156.192 224.408 156.576C225.064 156.944 225.8 157.128 226.616 157.128ZM248.392 159.144C247.096 159.144 245.936 158.864 244.912 158.304C243.904 157.744 243.112 156.976 242.536 156C241.96 155.008 241.672 153.888 241.672 152.64C241.672 151.392 241.96 150.28 242.536 149.304C243.112 148.312 243.904 147.544 244.912 147C245.936 146.44 247.096 146.16 248.392 146.16C249.544 146.16 250.568 146.392 251.464 146.856C252.376 147.32 253.08 147.992 253.576 148.872L251.824 150C251.424 149.392 250.928 148.936 250.336 148.632C249.744 148.328 249.088 148.176 248.368 148.176C247.536 148.176 246.784 148.36 246.112 148.728C245.456 149.096 244.936 149.624 244.552 150.312C244.184 150.984 244 151.76 244 152.64C244 153.536 244.184 154.328 244.552 155.016C244.936 155.688 245.456 156.208 246.112 156.576C246.784 156.944 247.536 157.128 248.368 157.128C249.088 157.128 249.744 156.976 250.336 156.672C250.928 156.368 251.424 155.912 251.824 155.304L253.576 156.408C253.08 157.288 252.376 157.968 251.464 158.448C250.568 158.912 249.544 159.144 248.392 159.144ZM261.82 159.144C260.556 159.144 259.42 158.864 258.412 158.304C257.404 157.744 256.612 156.976 256.036 156C255.476 155.008 255.196 153.888 255.196 152.64C255.196 151.392 255.476 150.28 256.036 149.304C256.612 148.312 257.404 147.544 258.412 147C259.42 146.44 260.556 146.16 261.82 146.16C263.084 146.16 264.212 146.44 265.204 147C266.212 147.544 266.996 148.312 267.556 149.304C268.132 150.28 268.42 151.392 268.42 152.64C268.42 153.888 268.132 155.008 267.556 156C266.996 156.976 266.212 157.744 265.204 158.304C264.212 158.864 263.084 159.144 261.82 159.144ZM261.82 157.128C262.636 157.128 263.364 156.944 264.004 156.576C264.66 156.192 265.172 155.664 265.54 154.992C265.908 154.304 266.092 153.52 266.092 152.64C266.092 151.76 265.908 150.984 265.54 150.312C265.172 149.624 264.66 149.096 264.004 148.728C263.364 148.36 262.636 148.176 261.82 148.176C261.004 148.176 260.268 148.36 259.612 148.728C258.972 149.096 258.46 149.624 258.076 150.312C257.708 150.984 257.524 151.76 257.524 152.64C257.524 153.52 257.708 154.304 258.076 154.992C258.46 155.664 258.972 156.192 259.612 156.576C260.268 156.944 261.004 157.128 261.82 157.128ZM278.398 146.16C280.014 146.16 281.294 146.632 282.238 147.576C283.198 148.504 283.678 149.872 283.678 151.68V159H281.374V151.944C281.374 150.712 281.078 149.784 280.486 149.16C279.894 148.536 279.046 148.224 277.942 148.224C276.694 148.224 275.71 148.592 274.99 149.328C274.27 150.048 273.91 151.088 273.91 152.448V159H271.606V146.28H273.814V148.2C274.278 147.544 274.902 147.04 275.686 146.688C276.486 146.336 277.39 146.16 278.398 146.16ZM291.59 159.144C290.55 159.144 289.55 159.008 288.59 158.736C287.63 158.448 286.878 158.088 286.334 157.656L287.294 155.832C287.854 156.232 288.534 156.552 289.334 156.792C290.134 157.032 290.942 157.152 291.758 157.152C293.774 157.152 294.782 156.576 294.782 155.424C294.782 155.04 294.646 154.736 294.374 154.512C294.102 154.288 293.758 154.128 293.342 154.032C292.942 153.92 292.366 153.8 291.614 153.672C290.59 153.512 289.75 153.328 289.094 153.12C288.454 152.912 287.902 152.56 287.438 152.064C286.974 151.568 286.742 150.872 286.742 149.976C286.742 148.824 287.222 147.904 288.182 147.216C289.142 146.512 290.43 146.16 292.046 146.16C292.894 146.16 293.742 146.264 294.59 146.472C295.438 146.68 296.134 146.96 296.678 147.312L295.694 149.136C294.654 148.464 293.43 148.128 292.022 148.128C291.046 148.128 290.302 148.288 289.79 148.608C289.278 148.928 289.022 149.352 289.022 149.88C289.022 150.296 289.166 150.624 289.454 150.864C289.742 151.104 290.094 151.28 290.51 151.392C290.942 151.504 291.542 151.632 292.31 151.776C293.334 151.952 294.158 152.144 294.782 152.352C295.422 152.544 295.966 152.88 296.414 153.36C296.862 153.84 297.086 154.512 297.086 155.376C297.086 156.528 296.59 157.448 295.598 158.136C294.622 158.808 293.286 159.144 291.59 159.144ZM307.117 158.256C306.781 158.544 306.365 158.768 305.869 158.928C305.373 159.072 304.861 159.144 304.333 159.144C303.053 159.144 302.061 158.8 301.357 158.112C300.653 157.424 300.301 156.44 300.301 155.16V148.176H298.141V146.28H300.301V143.496H302.605V146.28H306.253V148.176H302.605V155.064C302.605 155.752 302.773 156.28 303.109 156.648C303.461 157.016 303.957 157.2 304.597 157.2C305.301 157.2 305.901 157 306.397 156.6L307.117 158.256ZM312.111 148.416C312.511 147.68 313.103 147.12 313.887 146.736C314.671 146.352 315.623 146.16 316.743 146.16V148.392C316.615 148.376 316.439 148.368 316.215 148.368C314.967 148.368 313.983 148.744 313.263 149.496C312.559 150.232 312.207 151.288 312.207 152.664V159H309.903V146.28H312.111V148.416ZM331.603 146.28V159H329.419V157.08C328.955 157.736 328.339 158.248 327.571 158.616C326.819 158.968 325.995 159.144 325.099 159.144C323.403 159.144 322.067 158.68 321.09 157.752C320.115 156.808 319.627 155.424 319.627 153.6V146.28H321.931V153.336C321.931 154.568 322.227 155.504 322.819 156.144C323.411 156.768 324.259 157.08 325.363 157.08C326.579 157.08 327.539 156.712 328.243 155.976C328.947 155.24 329.299 154.2 329.299 152.856V146.28H331.603ZM335.989 146.28H338.293V159H335.989V146.28ZM337.141 143.832C336.693 143.832 336.317 143.688 336.013 143.4C335.725 143.112 335.581 142.76 335.581 142.344C335.581 141.928 335.725 141.576 336.013 141.288C336.317 140.984 336.693 140.832 337.141 140.832C337.589 140.832 337.957 140.976 338.245 141.264C338.549 141.536 338.701 141.88 338.701 142.296C338.701 142.728 338.549 143.096 338.245 143.4C337.957 143.688 337.589 143.832 337.141 143.832ZM344.9 148.416C345.3 147.68 345.892 147.12 346.676 146.736C347.46 146.352 348.412 146.16 349.532 146.16V148.392C349.404 148.376 349.228 148.368 349.004 148.368C347.756 148.368 346.772 148.744 346.052 149.496C345.348 150.232 344.996 151.288 344.996 152.664V159H342.692V146.28H344.9V148.416ZM370.837 146.28V159H368.653V157.08C368.189 157.736 367.573 158.248 366.805 158.616C366.053 158.968 365.229 159.144 364.333 159.144C362.637 159.144 361.301 158.68 360.325 157.752C359.349 156.808 358.861 155.424 358.861 153.6V146.28H361.165V153.336C361.165 154.568 361.461 155.504 362.053 156.144C362.645 156.768 363.493 157.08 364.597 157.08C365.813 157.08 366.773 156.712 367.477 155.976C368.181 155.24 368.533 154.2 368.533 152.856V146.28H370.837ZM391.135 146.16C392.735 146.16 393.999 146.624 394.927 147.552C395.871 148.48 396.343 149.856 396.343 151.68V159H394.039V151.944C394.039 150.712 393.751 149.784 393.175 149.16C392.615 148.536 391.807 148.224 390.751 148.224C389.583 148.224 388.655 148.592 387.967 149.328C387.279 150.048 386.935 151.088 386.935 152.448V159H384.631V151.944C384.631 150.712 384.343 149.784 383.767 149.16C383.207 148.536 382.399 148.224 381.343 148.224C380.175 148.224 379.247 148.592 378.559 149.328C377.871 150.048 377.527 151.088 377.527 152.448V159H375.223V146.28H377.431V148.176C377.895 147.52 378.503 147.024 379.255 146.688C380.007 146.336 380.863 146.16 381.823 146.16C382.815 146.16 383.695 146.36 384.463 146.76C385.231 147.16 385.823 147.744 386.239 148.512C386.719 147.776 387.383 147.2 388.231 146.784C389.095 146.368 390.063 146.16 391.135 146.16ZM28.928 182.16C30.16 182.16 31.264 182.432 32.24 182.976C33.216 183.52 33.976 184.28 34.52 185.256C35.08 186.232 35.36 187.36 35.36 188.64C35.36 189.92 35.08 191.056 34.52 192.048C33.976 193.024 33.216 193.784 32.24 194.328C31.264 194.872 30.16 195.144 28.928 195.144C28.016 195.144 27.176 194.968 26.408 194.616C25.656 194.264 25.016 193.752 24.488 193.08V199.656H22.184V182.28H24.392V184.296C24.904 183.592 25.552 183.064 26.336 182.712C27.12 182.344 27.984 182.16 28.928 182.16ZM28.736 193.128C29.552 193.128 30.28 192.944 30.92 192.576C31.576 192.192 32.088 191.664 32.456 190.992C32.84 190.304 33.032 189.52 33.032 188.64C33.032 187.76 32.84 186.984 32.456 186.312C32.088 185.624 31.576 185.096 30.92 184.728C30.28 184.36 29.552 184.176 28.736 184.176C27.936 184.176 27.208 184.368 26.552 184.752C25.912 185.12 25.4 185.64 25.016 186.312C24.648 186.984 24.464 187.76 24.464 188.64C24.464 189.52 24.648 190.304 25.016 190.992C25.384 191.664 25.896 192.192 26.552 192.576C27.208 192.944 27.936 193.128 28.736 193.128ZM50.3994 182.28V195H48.2154V193.08C47.7514 193.736 47.1354 194.248 46.3674 194.616C45.6154 194.968 44.7914 195.144 43.8954 195.144C42.1994 195.144 40.8634 194.68 39.8874 193.752C38.9114 192.808 38.4234 191.424 38.4234 189.6V182.28H40.7274V189.336C40.7274 190.568 41.0234 191.504 41.6154 192.144C42.2074 192.768 43.0554 193.08 44.1594 193.08C45.3754 193.08 46.3354 192.712 47.0394 191.976C47.7434 191.24 48.0954 190.2 48.0954 188.856V182.28H50.3994ZM45.8874 177.312H48.8154L44.7834 180.432H42.6234L45.8874 177.312ZM61.5296 182.16C62.7616 182.16 63.8656 182.432 64.8416 182.976C65.8176 183.52 66.5776 184.28 67.1216 185.256C67.6816 186.232 67.9616 187.36 67.9616 188.64C67.9616 189.92 67.6816 191.056 67.1216 192.048C66.5776 193.024 65.8176 193.784 64.8416 194.328C63.8656 194.872 62.7616 195.144 61.5296 195.144C60.5856 195.144 59.7216 194.96 58.9376 194.592C58.1536 194.224 57.5056 193.688 56.9936 192.984V195H54.7856V177.192H57.0896V184.2C57.6016 183.528 58.2416 183.024 59.0096 182.688C59.7776 182.336 60.6176 182.16 61.5296 182.16ZM61.3376 193.128C62.1536 193.128 62.8816 192.944 63.5216 192.576C64.1776 192.192 64.6896 191.664 65.0576 190.992C65.4416 190.304 65.6336 189.52 65.6336 188.64C65.6336 187.76 65.4416 186.984 65.0576 186.312C64.6896 185.624 64.1776 185.096 63.5216 184.728C62.8816 184.36 62.1536 184.176 61.3376 184.176C60.5376 184.176 59.8096 184.36 59.1536 184.728C58.4976 185.096 57.9856 185.624 57.6176 186.312C57.2496 186.984 57.0656 187.76 57.0656 188.64C57.0656 189.52 57.2496 190.304 57.6176 190.992C57.9856 191.664 58.4976 192.192 59.1536 192.576C59.8096 192.944 60.5376 193.128 61.3376 193.128ZM71.1449 177.192H73.4489V195H71.1449V177.192ZM77.8481 182.28H80.1521V195H77.8481V182.28ZM79.0001 179.832C78.5521 179.832 78.1761 179.688 77.8721 179.4C77.5841 179.112 77.4401 178.76 77.4401 178.344C77.4401 177.928 77.5841 177.576 77.8721 177.288C78.1761 176.984 78.5521 176.832 79.0001 176.832C79.4481 176.832 79.8161 176.976 80.1041 177.264C80.4081 177.536 80.5601 177.88 80.5601 178.296C80.5601 178.728 80.4081 179.096 80.1041 179.4C79.8161 179.688 79.4481 179.832 79.0001 179.832ZM90.0952 195.144C88.7992 195.144 87.6392 194.864 86.6152 194.304C85.6072 193.744 84.8152 192.976 84.2392 192C83.6632 191.008 83.3752 189.888 83.3752 188.64C83.3752 187.392 83.6632 186.28 84.2392 185.304C84.8152 184.312 85.6072 183.544 86.6152 183C87.6392 182.44 88.7992 182.16 90.0952 182.16C91.2472 182.16 92.2712 182.392 93.1672 182.856C94.0792 183.32 94.7832 183.992 95.2792 184.872L93.5272 186C93.1272 185.392 92.6312 184.936 92.0392 184.632C91.4472 184.328 90.7912 184.176 90.0712 184.176C89.2392 184.176 88.4872 184.36 87.8152 184.728C87.1592 185.096 86.6392 185.624 86.2552 186.312C85.8872 186.984 85.7032 187.76 85.7032 188.64C85.7032 189.536 85.8872 190.328 86.2552 191.016C86.6392 191.688 87.1592 192.208 87.8152 192.576C88.4872 192.944 89.2392 193.128 90.0712 193.128C90.7912 193.128 91.4472 192.976 92.0392 192.672C92.6312 192.368 93.1272 191.912 93.5272 191.304L95.2792 192.408C94.7832 193.288 94.0792 193.968 93.1672 194.448C92.2712 194.912 91.2472 195.144 90.0952 195.144ZM103.523 195.144C102.259 195.144 101.123 194.864 100.115 194.304C99.1066 193.744 98.3146 192.976 97.7386 192C97.1786 191.008 96.8986 189.888 96.8986 188.64C96.8986 187.392 97.1786 186.28 97.7386 185.304C98.3146 184.312 99.1066 183.544 100.115 183C101.123 182.44 102.259 182.16 103.523 182.16C104.787 182.16 105.915 182.44 106.907 183C107.915 183.544 108.699 184.312 109.259 185.304C109.835 186.28 110.123 187.392 110.123 188.64C110.123 189.888 109.835 191.008 109.259 192C108.699 192.976 107.915 193.744 106.907 194.304C105.915 194.864 104.787 195.144 103.523 195.144ZM103.523 193.128C104.339 193.128 105.067 192.944 105.707 192.576C106.363 192.192 106.875 191.664 107.243 190.992C107.611 190.304 107.795 189.52 107.795 188.64C107.795 187.76 107.611 186.984 107.243 186.312C106.875 185.624 106.363 185.096 105.707 184.728C105.067 184.36 104.339 184.176 103.523 184.176C102.707 184.176 101.971 184.36 101.315 184.728C100.675 185.096 100.163 185.624 99.7786 186.312C99.4106 186.984 99.2266 187.76 99.2266 188.64C99.2266 189.52 99.4106 190.304 99.7786 190.992C100.163 191.664 100.675 192.192 101.315 192.576C101.971 192.944 102.707 193.128 103.523 193.128ZM124.41 178.944C123.034 178.944 122.346 179.688 122.346 181.176V182.28H126.042V184.176H122.394V195H120.09V184.176H117.93V182.28H120.09V181.152C120.09 179.888 120.458 178.888 121.194 178.152C121.93 177.416 122.962 177.048 124.29 177.048C124.802 177.048 125.282 177.112 125.73 177.24C126.178 177.368 126.562 177.552 126.882 177.792L126.186 179.544C125.658 179.144 125.066 178.944 124.41 178.944ZM130.146 182.28H132.45V195H130.146V182.28ZM131.298 179.832C130.85 179.832 130.474 179.688 130.17 179.4C129.882 179.112 129.738 178.76 129.738 178.344C129.738 177.928 129.882 177.576 130.17 177.288C130.474 176.984 130.85 176.832 131.298 176.832C131.746 176.832 132.114 176.976 132.402 177.264C132.706 177.536 132.858 177.88 132.858 178.296C132.858 178.728 132.706 179.096 132.402 179.4C132.114 179.688 131.746 179.832 131.298 179.832ZM148.336 188.712C148.336 188.888 148.32 189.12 148.288 189.408H137.968C138.112 190.528 138.6 191.432 139.432 192.12C140.28 192.792 141.328 193.128 142.576 193.128C144.096 193.128 145.32 192.616 146.248 191.592L147.52 193.08C146.944 193.752 146.224 194.264 145.36 194.616C144.512 194.968 143.56 195.144 142.504 195.144C141.16 195.144 139.968 194.872 138.928 194.328C137.888 193.768 137.08 192.992 136.504 192C135.944 191.008 135.664 189.888 135.664 188.64C135.664 187.408 135.936 186.296 136.48 185.304C137.04 184.312 137.8 183.544 138.76 183C139.736 182.44 140.832 182.16 142.048 182.16C143.264 182.16 144.344 182.44 145.288 183C146.248 183.544 146.992 184.312 147.52 185.304C148.064 186.296 148.336 187.432 148.336 188.712ZM142.048 184.104C140.944 184.104 140.016 184.44 139.264 185.112C138.528 185.784 138.096 186.664 137.968 187.752H146.128C146 186.68 145.56 185.808 144.808 185.136C144.072 184.448 143.152 184.104 142.048 184.104ZM151.536 177.192H153.84V195H151.536V177.192ZM176.684 182.28V199.656H174.38V193.08C173.852 193.752 173.204 194.264 172.436 194.616C171.684 194.968 170.852 195.144 169.94 195.144C168.708 195.144 167.604 194.872 166.628 194.328C165.652 193.784 164.884 193.024 164.324 192.048C163.78 191.056 163.508 189.92 163.508 188.64C163.508 187.36 163.78 186.232 164.324 185.256C164.884 184.28 165.652 183.52 166.628 182.976C167.604 182.432 168.708 182.16 169.94 182.16C170.884 182.16 171.748 182.344 172.532 182.712C173.316 183.064 173.964 183.592 174.476 184.296V182.28H176.684ZM170.132 193.128C170.932 193.128 171.66 192.944 172.316 192.576C172.972 192.192 173.484 191.664 173.852 190.992C174.22 190.304 174.404 189.52 174.404 188.64C174.404 187.76 174.212 186.984 173.828 186.312C173.46 185.64 172.948 185.12 172.292 184.752C171.652 184.368 170.932 184.176 170.132 184.176C169.316 184.176 168.58 184.36 167.924 184.728C167.284 185.096 166.772 185.624 166.388 186.312C166.02 186.984 165.836 187.76 165.836 188.64C165.836 189.52 166.02 190.304 166.388 190.992C166.772 191.664 167.284 192.192 167.924 192.576C168.58 192.944 169.316 193.128 170.132 193.128ZM192.899 182.28V195H190.715V193.08C190.251 193.736 189.635 194.248 188.867 194.616C188.115 194.968 187.291 195.144 186.395 195.144C184.699 195.144 183.363 194.68 182.387 193.752C181.411 192.808 180.923 191.424 180.923 189.6V182.28H183.227V189.336C183.227 190.568 183.523 191.504 184.115 192.144C184.707 192.768 185.555 193.08 186.659 193.08C187.875 193.08 188.835 192.712 189.539 191.976C190.243 191.24 190.595 190.2 190.595 188.856V182.28H192.899ZM208.782 188.712C208.782 188.888 208.766 189.12 208.734 189.408H198.414C198.558 190.528 199.046 191.432 199.878 192.12C200.726 192.792 201.774 193.128 203.022 193.128C204.542 193.128 205.766 192.616 206.694 191.592L207.966 193.08C207.39 193.752 206.67 194.264 205.806 194.616C204.958 194.968 204.006 195.144 202.95 195.144C201.606 195.144 200.414 194.872 199.374 194.328C198.334 193.768 197.526 192.992 196.95 192C196.39 191.008 196.11 189.888 196.11 188.64C196.11 187.408 196.382 186.296 196.926 185.304C197.486 184.312 198.246 183.544 199.206 183C200.182 182.44 201.278 182.16 202.494 182.16C203.71 182.16 204.79 182.44 205.734 183C206.694 183.544 207.438 184.312 207.966 185.304C208.51 186.296 208.782 187.432 208.782 188.712ZM202.494 184.104C201.39 184.104 200.462 184.44 199.71 185.112C198.974 185.784 198.542 186.664 198.414 187.752H206.574C206.446 186.68 206.006 185.808 205.254 185.136C204.518 184.448 203.598 184.104 202.494 184.104ZM229.682 182.28L224.114 195H221.762L216.194 182.28H218.594L222.962 192.48L227.426 182.28H229.682ZM236.066 182.16C237.826 182.16 239.17 182.592 240.098 183.456C241.042 184.32 241.514 185.608 241.514 187.32V195H239.33V193.32C238.946 193.912 238.394 194.368 237.674 194.688C236.97 194.992 236.13 195.144 235.154 195.144C233.73 195.144 232.586 194.8 231.722 194.112C230.874 193.424 230.45 192.52 230.45 191.4C230.45 190.28 230.858 189.384 231.674 188.712C232.49 188.024 233.786 187.68 235.562 187.68H239.21V187.224C239.21 186.232 238.922 185.472 238.346 184.944C237.77 184.416 236.922 184.152 235.802 184.152C235.05 184.152 234.314 184.28 233.594 184.536C232.874 184.776 232.266 185.104 231.77 185.52L230.81 183.792C231.466 183.264 232.25 182.864 233.162 182.592C234.074 182.304 235.042 182.16 236.066 182.16ZM235.538 193.368C236.418 193.368 237.178 193.176 237.818 192.792C238.458 192.392 238.922 191.832 239.21 191.112V189.336H235.658C233.706 189.336 232.73 189.992 232.73 191.304C232.73 191.944 232.978 192.448 233.474 192.816C233.97 193.184 234.658 193.368 235.538 193.368ZM245.778 182.28H248.082V195H245.778V182.28ZM246.93 179.832C246.482 179.832 246.106 179.688 245.802 179.4C245.514 179.112 245.37 178.76 245.37 178.344C245.37 177.928 245.514 177.576 245.802 177.288C246.106 176.984 246.482 176.832 246.93 176.832C247.378 176.832 247.746 176.976 248.034 177.264C248.338 177.536 248.49 177.88 248.49 178.296C248.49 178.728 248.338 179.096 248.034 179.4C247.746 179.688 247.378 179.832 246.93 179.832ZM264.47 195.144C263.174 195.144 262.014 194.864 260.99 194.304C259.982 193.744 259.19 192.976 258.614 192C258.038 191.008 257.75 189.888 257.75 188.64C257.75 187.392 258.038 186.28 258.614 185.304C259.19 184.312 259.982 183.544 260.99 183C262.014 182.44 263.174 182.16 264.47 182.16C265.622 182.16 266.646 182.392 267.542 182.856C268.454 183.32 269.158 183.992 269.654 184.872L267.902 186C267.502 185.392 267.006 184.936 266.414 184.632C265.822 184.328 265.166 184.176 264.446 184.176C263.614 184.176 262.862 184.36 262.19 184.728C261.534 185.096 261.014 185.624 260.63 186.312C260.262 186.984 260.078 187.76 260.078 188.64C260.078 189.536 260.262 190.328 260.63 191.016C261.014 191.688 261.534 192.208 262.19 192.576C262.862 192.944 263.614 193.128 264.446 193.128C265.166 193.128 265.822 192.976 266.414 192.672C267.006 192.368 267.502 191.912 267.902 191.304L269.654 192.408C269.158 193.288 268.454 193.968 267.542 194.448C266.646 194.912 265.622 195.144 264.47 195.144ZM277.898 195.144C276.634 195.144 275.498 194.864 274.49 194.304C273.482 193.744 272.69 192.976 272.114 192C271.554 191.008 271.274 189.888 271.274 188.64C271.274 187.392 271.554 186.28 272.114 185.304C272.69 184.312 273.482 183.544 274.49 183C275.498 182.44 276.634 182.16 277.898 182.16C279.162 182.16 280.29 182.44 281.282 183C282.29 183.544 283.074 184.312 283.634 185.304C284.21 186.28 284.498 187.392 284.498 188.64C284.498 189.888 284.21 191.008 283.634 192C283.074 192.976 282.29 193.744 281.282 194.304C280.29 194.864 279.162 195.144 277.898 195.144ZM277.898 193.128C278.714 193.128 279.442 192.944 280.082 192.576C280.738 192.192 281.25 191.664 281.618 190.992C281.986 190.304 282.17 189.52 282.17 188.64C282.17 187.76 281.986 186.984 281.618 186.312C281.25 185.624 280.738 185.096 280.082 184.728C279.442 184.36 278.714 184.176 277.898 184.176C277.082 184.176 276.346 184.36 275.69 184.728C275.05 185.096 274.538 185.624 274.154 186.312C273.786 186.984 273.602 187.76 273.602 188.64C273.602 189.52 273.786 190.304 274.154 190.992C274.538 191.664 275.05 192.192 275.69 192.576C276.346 192.944 277.082 193.128 277.898 193.128ZM303.596 182.16C305.196 182.16 306.46 182.624 307.388 183.552C308.332 184.48 308.804 185.856 308.804 187.68V195H306.5V187.944C306.5 186.712 306.212 185.784 305.636 185.16C305.076 184.536 304.268 184.224 303.212 184.224C302.044 184.224 301.116 184.592 300.428 185.328C299.74 186.048 299.396 187.088 299.396 188.448V195H297.092V187.944C297.092 186.712 296.804 185.784 296.228 185.16C295.668 184.536 294.86 184.224 293.804 184.224C292.636 184.224 291.708 184.592 291.02 185.328C290.332 186.048 289.988 187.088 289.988 188.448V195H287.684V182.28H289.892V184.176C290.356 183.52 290.964 183.024 291.716 182.688C292.468 182.336 293.324 182.16 294.284 182.16C295.276 182.16 296.156 182.36 296.924 182.76C297.692 183.16 298.284 183.744 298.7 184.512C299.18 183.776 299.844 183.2 300.692 182.784C301.556 182.368 302.524 182.16 303.596 182.16ZM319.787 182.16C321.019 182.16 322.123 182.432 323.099 182.976C324.075 183.52 324.835 184.28 325.379 185.256C325.939 186.232 326.219 187.36 326.219 188.64C326.219 189.92 325.939 191.056 325.379 192.048C324.835 193.024 324.075 193.784 323.099 194.328C322.123 194.872 321.019 195.144 319.787 195.144C318.875 195.144 318.035 194.968 317.267 194.616C316.515 194.264 315.875 193.752 315.347 193.08V199.656H313.043V182.28H315.251V184.296C315.763 183.592 316.411 183.064 317.195 182.712C317.979 182.344 318.843 182.16 319.787 182.16ZM319.595 193.128C320.411 193.128 321.139 192.944 321.779 192.576C322.435 192.192 322.947 191.664 323.315 190.992C323.699 190.304 323.891 189.52 323.891 188.64C323.891 187.76 323.699 186.984 323.315 186.312C322.947 185.624 322.435 185.096 321.779 184.728C321.139 184.36 320.411 184.176 319.595 184.176C318.795 184.176 318.067 184.368 317.411 184.752C316.771 185.12 316.259 185.64 315.875 186.312C315.507 186.984 315.323 187.76 315.323 188.64C315.323 189.52 315.507 190.304 315.875 190.992C316.243 191.664 316.755 192.192 317.411 192.576C318.067 192.944 318.795 193.128 319.595 193.128ZM331.611 184.416C332.011 183.68 332.603 183.12 333.387 182.736C334.171 182.352 335.123 182.16 336.243 182.16V184.392C336.115 184.376 335.939 184.368 335.715 184.368C334.467 184.368 333.483 184.744 332.763 185.496C332.059 186.232 331.707 187.288 331.707 188.664V195H329.403V182.28H331.611V184.416ZM343.691 182.16C345.451 182.16 346.795 182.592 347.723 183.456C348.667 184.32 349.139 185.608 349.139 187.32V195H346.955V193.32C346.571 193.912 346.019 194.368 345.299 194.688C344.595 194.992 343.755 195.144 342.779 195.144C341.355 195.144 340.211 194.8 339.347 194.112C338.499 193.424 338.075 192.52 338.075 191.4C338.075 190.28 338.483 189.384 339.299 188.712C340.115 188.024 341.411 187.68 343.187 187.68H346.835V187.224C346.835 186.232 346.547 185.472 345.971 184.944C345.395 184.416 344.547 184.152 343.427 184.152C342.675 184.152 341.939 184.28 341.219 184.536C340.499 184.776 339.891 185.104 339.395 185.52L338.435 183.792C339.091 183.264 339.875 182.864 340.787 182.592C341.699 182.304 342.667 182.16 343.691 182.16ZM343.163 193.368C344.043 193.368 344.803 193.176 345.443 192.792C346.083 192.392 346.547 191.832 346.835 191.112V189.336H343.283C341.331 189.336 340.355 189.992 340.355 191.304C340.355 191.944 340.603 192.448 341.099 192.816C341.595 193.184 342.283 193.368 343.163 193.368ZM355.611 184.416C356.011 183.68 356.603 183.12 357.387 182.736C358.171 182.352 359.123 182.16 360.243 182.16V184.392C360.115 184.376 359.939 184.368 359.715 184.368C358.467 184.368 357.483 184.744 356.763 185.496C356.059 186.232 355.707 187.288 355.707 188.664V195H353.403V182.28H355.611V184.416ZM25.832 231.144C24.792 231.144 23.792 231.008 22.832 230.736C21.872 230.448 21.12 230.088 20.576 229.656L21.536 227.832C22.096 228.232 22.776 228.552 23.576 228.792C24.376 229.032 25.184 229.152 26 229.152C28.016 229.152 29.024 228.576 29.024 227.424C29.024 227.04 28.888 226.736 28.616 226.512C28.344 226.288 28 226.128 27.584 226.032C27.184 225.92 26.608 225.8 25.856 225.672C24.832 225.512 23.992 225.328 23.336 225.12C22.696 224.912 22.144 224.56 21.68 224.064C21.216 223.568 20.984 222.872 20.984 221.976C20.984 220.824 21.464 219.904 22.424 219.216C23.384 218.512 24.672 218.16 26.288 218.16C27.136 218.16 27.984 218.264 28.832 218.472C29.68 218.68 30.376 218.96 30.92 219.312L29.936 221.136C28.896 220.464 27.672 220.128 26.264 220.128C25.288 220.128 24.544 220.288 24.032 220.608C23.52 220.928 23.264 221.352 23.264 221.88C23.264 222.296 23.408 222.624 23.696 222.864C23.984 223.104 24.336 223.28 24.752 223.392C25.184 223.504 25.784 223.632 26.552 223.776C27.576 223.952 28.4 224.144 29.024 224.352C29.664 224.544 30.208 224.88 30.656 225.36C31.104 225.84 31.328 226.512 31.328 227.376C31.328 228.528 30.832 229.448 29.84 230.136C28.864 230.808 27.528 231.144 25.832 231.144ZM45.7034 224.712C45.7034 224.888 45.6874 225.12 45.6554 225.408H35.3354C35.4794 226.528 35.9674 227.432 36.7994 228.12C37.6474 228.792 38.6954 229.128 39.9434 229.128C41.4634 229.128 42.6874 228.616 43.6154 227.592L44.8874 229.08C44.3114 229.752 43.5914 230.264 42.7274 230.616C41.8794 230.968 40.9274 231.144 39.8714 231.144C38.5274 231.144 37.3354 230.872 36.2954 230.328C35.2554 229.768 34.4474 228.992 33.8714 228C33.3114 227.008 33.0314 225.888 33.0314 224.64C33.0314 223.408 33.3034 222.296 33.8474 221.304C34.4074 220.312 35.1674 219.544 36.1274 219C37.1034 218.44 38.1994 218.16 39.4154 218.16C40.6314 218.16 41.7114 218.44 42.6554 219C43.6154 219.544 44.3594 220.312 44.8874 221.304C45.4314 222.296 45.7034 223.432 45.7034 224.712ZM39.4154 220.104C38.3114 220.104 37.3834 220.44 36.6314 221.112C35.8954 221.784 35.4634 222.664 35.3354 223.752H43.4954C43.3674 222.68 42.9274 221.808 42.1754 221.136C41.4394 220.448 40.5194 220.104 39.4154 220.104ZM64.8148 218.16C66.4148 218.16 67.6788 218.624 68.6068 219.552C69.5508 220.48 70.0228 221.856 70.0228 223.68V231H67.7188V223.944C67.7188 222.712 67.4308 221.784 66.8548 221.16C66.2948 220.536 65.4868 220.224 64.4308 220.224C63.2628 220.224 62.3348 220.592 61.6468 221.328C60.9588 222.048 60.6148 223.088 60.6148 224.448V231H58.3108V223.944C58.3108 222.712 58.0228 221.784 57.4468 221.16C56.8868 220.536 56.0788 220.224 55.0228 220.224C53.8548 220.224 52.9268 220.592 52.2388 221.328C51.5508 222.048 51.2068 223.088 51.2068 224.448V231H48.9028V218.28H51.1108V220.176C51.5748 219.52 52.1828 219.024 52.9348 218.688C53.6868 218.336 54.5428 218.16 55.5028 218.16C56.4948 218.16 57.3748 218.36 58.1428 218.76C58.9108 219.16 59.5028 219.744 59.9188 220.512C60.3988 219.776 61.0628 219.2 61.9108 218.784C62.7748 218.368 63.7428 218.16 64.8148 218.16ZM81.0061 218.16C82.2381 218.16 83.3421 218.432 84.3181 218.976C85.2941 219.52 86.0541 220.28 86.5981 221.256C87.1581 222.232 87.4381 223.36 87.4381 224.64C87.4381 225.92 87.1581 227.056 86.5981 228.048C86.0541 229.024 85.2941 229.784 84.3181 230.328C83.3421 230.872 82.2381 231.144 81.0061 231.144C80.0941 231.144 79.2541 230.968 78.4861 230.616C77.7341 230.264 77.0941 229.752 76.5661 229.08V235.656H74.2621V218.28H76.4701V220.296C76.9821 219.592 77.6301 219.064 78.4141 218.712C79.1981 218.344 80.0621 218.16 81.0061 218.16ZM80.8141 229.128C81.6301 229.128 82.3581 228.944 82.9981 228.576C83.6541 228.192 84.1661 227.664 84.5341 226.992C84.9181 226.304 85.1101 225.52 85.1101 224.64C85.1101 223.76 84.9181 222.984 84.5341 222.312C84.1661 221.624 83.6541 221.096 82.9981 220.728C82.3581 220.36 81.6301 220.176 80.8141 220.176C80.0141 220.176 79.2861 220.368 78.6301 220.752C77.9901 221.12 77.4781 221.64 77.0941 222.312C76.7261 222.984 76.5421 223.76 76.5421 224.64C76.5421 225.52 76.7261 226.304 77.0941 226.992C77.4621 227.664 77.9741 228.192 78.6301 228.576C79.2861 228.944 80.0141 229.128 80.8141 229.128ZM92.8295 220.416C93.2295 219.68 93.8215 219.12 94.6055 218.736C95.3895 218.352 96.3415 218.16 97.4615 218.16V220.392C97.3335 220.376 97.1575 220.368 96.9335 220.368C95.6855 220.368 94.7015 220.744 93.9815 221.496C93.2775 222.232 92.9255 223.288 92.9255 224.664V231H90.6215V218.28H92.8295V220.416ZM111.68 224.712C111.68 224.888 111.664 225.12 111.632 225.408H101.312C101.456 226.528 101.944 227.432 102.776 228.12C103.624 228.792 104.672 229.128 105.92 229.128C107.44 229.128 108.664 228.616 109.592 227.592L110.864 229.08C110.288 229.752 109.568 230.264 108.704 230.616C107.856 230.968 106.904 231.144 105.848 231.144C104.504 231.144 103.312 230.872 102.272 230.328C101.232 229.768 100.424 228.992 99.848 228C99.288 227.008 99.008 225.888 99.008 224.64C99.008 223.408 99.28 222.296 99.824 221.304C100.384 220.312 101.144 219.544 102.104 219C103.08 218.44 104.176 218.16 105.392 218.16C106.608 218.16 107.688 218.44 108.632 219C109.592 219.544 110.336 220.312 110.864 221.304C111.408 222.296 111.68 223.432 111.68 224.712ZM105.392 220.104C104.288 220.104 103.36 220.44 102.608 221.112C101.872 221.784 101.44 222.664 101.312 223.752H109.472C109.344 222.68 108.904 221.808 108.152 221.136C107.416 220.448 106.496 220.104 105.392 220.104ZM133.325 213.192V231H131.117V228.984C130.605 229.688 129.957 230.224 129.173 230.592C128.389 230.96 127.525 231.144 126.581 231.144C125.349 231.144 124.245 230.872 123.269 230.328C122.293 229.784 121.525 229.024 120.965 228.048C120.421 227.056 120.149 225.92 120.149 224.64C120.149 223.36 120.421 222.232 120.965 221.256C121.525 220.28 122.293 219.52 123.269 218.976C124.245 218.432 125.349 218.16 126.581 218.16C127.493 218.16 128.333 218.336 129.101 218.688C129.869 219.024 130.509 219.528 131.021 220.2V213.192H133.325ZM126.773 229.128C127.573 229.128 128.301 228.944 128.957 228.576C129.613 228.192 130.125 227.664 130.493 226.992C130.861 226.304 131.045 225.52 131.045 224.64C131.045 223.76 130.861 222.984 130.493 222.312C130.125 221.624 129.613 221.096 128.957 220.728C128.301 220.36 127.573 220.176 126.773 220.176C125.957 220.176 125.221 220.36 124.565 220.728C123.925 221.096 123.413 221.624 123.029 222.312C122.661 222.984 122.477 223.76 122.477 224.64C122.477 225.52 122.661 226.304 123.029 226.992C123.413 227.664 123.925 228.192 124.565 228.576C125.221 228.944 125.957 229.128 126.773 229.128ZM149.18 224.712C149.18 224.888 149.164 225.12 149.132 225.408H138.812C138.956 226.528 139.444 227.432 140.276 228.12C141.124 228.792 142.172 229.128 143.42 229.128C144.94 229.128 146.164 228.616 147.092 227.592L148.364 229.08C147.788 229.752 147.068 230.264 146.204 230.616C145.356 230.968 144.404 231.144 143.348 231.144C142.004 231.144 140.812 230.872 139.772 230.328C138.732 229.768 137.924 228.992 137.348 228C136.788 227.008 136.508 225.888 136.508 224.64C136.508 223.408 136.78 222.296 137.324 221.304C137.884 220.312 138.644 219.544 139.604 219C140.58 218.44 141.676 218.16 142.892 218.16C144.108 218.16 145.188 218.44 146.132 219C147.092 219.544 147.836 220.312 148.364 221.304C148.908 222.296 149.18 223.432 149.18 224.712ZM142.892 220.104C141.788 220.104 140.86 220.44 140.108 221.112C139.372 221.784 138.94 222.664 138.812 223.752H146.972C146.844 222.68 146.404 221.808 145.652 221.136C144.916 220.448 143.996 220.104 142.892 220.104ZM170.081 218.28L164.513 231H162.161L156.593 218.28H158.993L163.361 228.48L167.825 218.28H170.081ZM177.327 231.144C176.063 231.144 174.927 230.864 173.919 230.304C172.911 229.744 172.119 228.976 171.543 228C170.983 227.008 170.703 225.888 170.703 224.64C170.703 223.392 170.983 222.28 171.543 221.304C172.119 220.312 172.911 219.544 173.919 219C174.927 218.44 176.063 218.16 177.327 218.16C178.591 218.16 179.719 218.44 180.711 219C181.719 219.544 182.503 220.312 183.063 221.304C183.639 222.28 183.927 223.392 183.927 224.64C183.927 225.888 183.639 227.008 183.063 228C182.503 228.976 181.719 229.744 180.711 230.304C179.719 230.864 178.591 231.144 177.327 231.144ZM177.327 229.128C178.143 229.128 178.871 228.944 179.511 228.576C180.167 228.192 180.679 227.664 181.047 226.992C181.415 226.304 181.599 225.52 181.599 224.64C181.599 223.76 181.415 222.984 181.047 222.312C180.679 221.624 180.167 221.096 179.511 220.728C178.871 220.36 178.143 220.176 177.327 220.176C176.511 220.176 175.775 220.36 175.119 220.728C174.479 221.096 173.967 221.624 173.583 222.312C173.215 222.984 173.031 223.76 173.031 224.64C173.031 225.52 173.215 226.304 173.583 226.992C173.967 227.664 174.479 228.192 175.119 228.576C175.775 228.944 176.511 229.128 177.327 229.128ZM192.658 231.144C191.362 231.144 190.202 230.864 189.178 230.304C188.17 229.744 187.378 228.976 186.802 228C186.226 227.008 185.938 225.888 185.938 224.64C185.938 223.392 186.226 222.28 186.802 221.304C187.378 220.312 188.17 219.544 189.178 219C190.202 218.44 191.362 218.16 192.658 218.16C193.81 218.16 194.834 218.392 195.73 218.856C196.642 219.32 197.346 219.992 197.842 220.872L196.09 222C195.69 221.392 195.194 220.936 194.602 220.632C194.01 220.328 193.354 220.176 192.634 220.176C191.802 220.176 191.05 220.36 190.378 220.728C189.722 221.096 189.202 221.624 188.818 222.312C188.45 222.984 188.266 223.76 188.266 224.64C188.266 225.536 188.45 226.328 188.818 227.016C189.202 227.688 189.722 228.208 190.378 228.576C191.05 228.944 191.802 229.128 192.634 229.128C193.354 229.128 194.01 228.976 194.602 228.672C195.194 228.368 195.69 227.912 196.09 227.304L197.842 228.408C197.346 229.288 196.642 229.968 195.73 230.448C194.834 230.912 193.81 231.144 192.658 231.144ZM212.133 224.712C212.133 224.888 212.117 225.12 212.085 225.408H201.765C201.909 226.528 202.397 227.432 203.229 228.12C204.077 228.792 205.125 229.128 206.373 229.128C207.893 229.128 209.117 228.616 210.045 227.592L211.317 229.08C210.741 229.752 210.021 230.264 209.157 230.616C208.309 230.968 207.357 231.144 206.301 231.144C204.957 231.144 203.765 230.872 202.725 230.328C201.685 229.768 200.877 228.992 200.301 228C199.741 227.008 199.461 225.888 199.461 224.64C199.461 223.408 199.733 222.296 200.277 221.304C200.837 220.312 201.597 219.544 202.557 219C203.533 218.44 204.629 218.16 205.845 218.16C207.061 218.16 208.141 218.44 209.085 219C210.045 219.544 210.789 220.312 211.317 221.304C211.861 222.296 212.133 223.432 212.133 224.712ZM205.845 220.104C204.741 220.104 203.813 220.44 203.061 221.112C202.325 221.784 201.893 222.664 201.765 223.752H209.925C209.797 222.68 209.357 221.808 208.605 221.136C207.869 220.448 206.949 220.104 205.845 220.104ZM208.029 216.432L205.821 214.584L203.613 216.432H201.525L204.717 213.312H206.925L210.117 216.432H208.029ZM215.884 231.144C215.436 231.144 215.052 230.992 214.732 230.688C214.412 230.368 214.252 229.968 214.252 229.488C214.252 229.024 214.412 228.64 214.732 228.336C215.052 228.016 215.436 227.856 215.884 227.856C216.332 227.856 216.708 228.008 217.012 228.312C217.316 228.616 217.468 229.008 217.468 229.488C217.468 229.968 217.308 230.368 216.988 230.688C216.684 230.992 216.316 231.144 215.884 231.144Z" fill="#838383"/>
<rect x="20" y="40" width="82" height="81" rx="15" fill="url(#paint0_linear_174_26)" fill-opacity="0.15"/>
<rect x="20" y="40" width="82" height="81" rx="15" fill="black" fill-opacity="0.2"/>
<path d="M69.3487 80.9602C69.2602 82.8335 68.7383 84.6008 67.9576 86.2927C66.5803 89.2958 64.3241 91.8237 61.4792 93.5511C58.6342 95.2785 55.3306 96.1265 51.9932 95.986C44.2754 95.6934 37.6481 89.9863 36.2838 82.4549C36.1765 81.8631 36.0946 81.2634 36.0007 80.673V78.2186C36.1349 77.4653 36.2315 76.7041 36.4032 75.9587C37.2521 72.1504 39.4401 68.7618 42.5792 66.3935C45.7184 64.0252 49.606 62.8303 53.5527 63.0207C57.4995 63.211 61.2505 64.7743 64.1406 67.4334C67.0308 70.0924 68.8735 73.6755 69.342 77.5474C69.3608 77.7089 69.3501 77.873 69.3541 78.0359L69.3702 78.0213H65.0545C64.5581 74.5793 62.9657 71.7515 60.1404 69.6718C57.3151 67.592 54.1249 66.8732 50.6436 67.4212C44.918 68.3148 40.5003 73.3997 40.3956 79.2075C40.2896 85.1873 44.5343 90.3106 50.5913 91.4319C53.3902 91.9791 56.2953 91.5009 58.7627 90.0869C62.3486 88.072 64.3971 84.9848 65.0518 80.9761H69.3648L69.3487 80.9602Z" fill="white"/>
<path d="M69.3487 78.0279C70.8915 78.0279 72.4343 78.0372 73.9771 78.0054C74.2615 77.9904 74.532 77.8791 74.7431 77.6903C75.9706 76.5161 77.1579 75.3074 78.3854 74.1279C78.5402 73.9674 78.7472 73.8657 78.9703 73.8406C81.5581 73.822 84.1473 73.8287 86.7365 73.8313C86.8185 73.8379 86.9 73.8494 86.9806 73.8657C86.9806 74.8997 86.9887 75.9256 86.9712 76.9516C86.9712 77.0761 86.8438 77.2098 86.7539 77.3223C86.2723 77.9273 85.8027 78.5442 85.2889 79.1214C85.0327 79.4087 85.0676 79.5927 85.2997 79.8628C85.741 80.3738 86.1207 80.9351 86.5701 81.4382C86.7244 81.6058 86.8417 81.8031 86.9146 82.0178C86.9876 82.2325 87.0146 82.4597 86.994 82.6852C86.9605 83.4531 86.9846 84.2222 86.9846 85.0682H86.4775C84.0212 85.0682 81.5662 85.0761 79.1098 85.0549C78.8391 85.0419 78.5815 84.9361 78.3813 84.7557C77.174 83.6053 76.0095 82.4191 74.8088 81.2661C74.621 81.0984 74.3803 80.9997 74.1273 80.9867C72.5349 80.9602 70.9412 80.9682 69.3487 80.9655L69.3648 80.9814V78.0134L69.3487 78.0279Z" fill="white"/>
<path d="M61.9864 78.02C60.6837 78.02 59.424 78.0319 58.1643 78.0041C58.0302 78.0041 57.8222 77.7949 57.7619 77.64C56.9274 75.5298 54.9715 74.1768 52.7365 74.1901C50.0534 74.2046 47.8492 76.152 47.4776 78.8302C47.1342 81.3005 48.8473 83.8131 51.3332 84.4857C52.5676 84.8286 53.8862 84.7162 55.0427 84.1694C56.1991 83.6227 57.1143 82.6791 57.617 81.5149C57.7981 81.0926 58.0007 80.9404 58.4715 80.955C59.6293 80.9947 60.7897 80.9682 61.9595 80.9682C61.5879 84.3083 58.2703 88.7021 52.7136 88.677C50.2529 88.6671 47.8948 87.7026 46.1484 85.9919C44.402 84.2811 43.4074 81.9613 43.3792 79.5331C43.3296 74.5025 47.4038 70.2993 52.5017 70.1868C58.065 70.065 61.5611 74.3556 61.9864 78.02Z" fill="white"/>
<path d="M50.4384 79.4325C50.4384 78.8234 50.6836 78.2391 51.1201 77.8084C51.5566 77.3776 52.1487 77.1356 52.766 77.1356C53.3833 77.1356 53.9753 77.3776 54.4118 77.8084C54.8483 78.2391 55.0935 78.8234 55.0935 79.4325C55.0935 80.0417 54.8483 80.6259 54.4118 81.0567C53.9753 81.4874 53.3833 81.7294 52.766 81.7294C52.1487 81.7294 51.5566 81.4874 51.1201 81.0567C50.6836 80.6259 50.4384 80.0417 50.4384 79.4325Z" fill="white"/>
<defs>
<linearGradient id="paint0_linear_174_26" x1="20" y1="121" x2="102.979" y2="41.0159" gradientUnits="userSpaceOnUse">
<stop stop-color="#111111"/>
<stop offset="1" stop-color="white"/>
</linearGradient>
</defs>
</svg>
