<svg width="85" height="85" viewBox="0 0 85 85" fill="none" xmlns="http://www.w3.org/2000/svg">
<path d="M5.74299 39.1585C5.73127 30.1653 8.82778 21.4443 14.5082 14.4721C10.2447 17.9268 6.75473 22.239 4.26458 27.129C1.77444 32.0191 0.339692 37.3778 0.053356 42.8579C-0.23298 48.338 0.635485 53.8171 2.60245 58.94C4.56942 64.0629 7.59098 68.7153 11.4713 72.5956C15.3516 76.4759 20.004 79.4974 25.1269 81.4644C30.2498 83.4314 35.7289 84.2998 41.209 84.0135C46.689 83.7272 52.0478 82.2924 56.9378 79.8023C61.8279 77.3121 66.14 73.8222 69.5948 69.5586C63.8491 74.2236 56.8992 77.165 49.5504 78.0423C42.2016 78.9194 34.7546 77.6965 28.0723 74.515C21.39 71.3335 15.746 66.3238 11.794 60.0663C7.84207 53.8087 5.74404 46.5595 5.74299 39.1585Z" fill="#E7E7E7"/>
<path d="M49.2492 34.2611C47.2359 34.2587 45.2672 34.8539 43.5924 35.9713C41.9176 37.0886 40.6122 38.6779 39.8414 40.5379C39.0706 42.3978 38.8692 44.4446 39.2626 46.4191C39.6561 48.3936 40.6267 50.2069 42.0515 51.6293C43.2344 52.8153 44.6916 53.6912 46.2941 54.1791C47.8965 54.6671 49.5946 54.7521 51.2377 54.4265C52.8809 54.101 54.4183 53.375 55.7137 52.3129C57.009 51.2509 58.0223 49.8856 58.6636 48.3381C59.3049 46.7907 59.5544 45.1089 59.39 43.4419C59.2256 41.7749 58.6524 40.1742 57.7212 38.7818C56.79 37.3894 55.5296 36.2483 54.0518 35.4597C52.5739 34.6712 50.9243 34.2594 49.2492 34.2611Z" fill="#E7E7E7"/>
<path d="M84.0783 39.1585C84.0769 31.0683 81.5702 23.177 76.9026 16.5691C72.235 9.96115 65.6355 4.9608 58.0112 2.25517C50.3868 -0.450471 42.1116 -0.728615 34.3228 1.45895C26.5339 3.64652 19.6137 8.19245 14.5129 14.4721C16.3842 12.9472 18.3933 11.5996 20.5141 10.4465C27.7278 4.32078 36.9824 1.13372 46.4383 1.51889C55.8942 1.90406 64.8589 5.83325 71.5505 12.5254C78.2421 19.2176 82.1705 28.1827 82.5549 37.6386C82.9392 47.0946 79.7514 56.3489 73.625 63.5621C77.6532 56.1382 79.1741 47.6112 77.961 39.2524C76.7478 30.8936 72.8656 23.1508 66.8932 17.1783C60.9207 11.2059 53.1779 7.32367 44.8191 6.11053C36.4603 4.8974 27.9333 6.41833 20.5094 10.4465C19.7396 11.1237 18.9883 11.7915 18.2648 12.515C13.1674 17.6132 9.63929 24.0665 8.09906 31.1095C6.55882 38.1524 7.07107 45.4893 9.57504 52.2499C12.079 59.0105 16.4696 64.911 22.226 69.2514C27.9824 73.5918 34.863 76.19 42.0515 76.7378V67.3186C45.7194 68.0972 49.5312 67.847 53.0659 66.5957C56.6005 65.3443 59.7207 63.1405 62.0817 60.2276C58.5023 63.1485 54.0314 64.7571 49.4115 64.7864H49.2492C45.9005 64.7902 42.6025 63.9678 39.6477 62.3919C36.6928 60.8161 34.1725 58.5355 32.31 55.7525C30.4475 52.9695 29.3004 49.7699 28.9704 46.4374C28.6404 43.105 29.1376 39.7426 30.4181 36.6483C31.6987 33.554 33.7228 30.8235 36.3112 28.6987C38.8995 26.5739 41.9721 25.1206 45.2566 24.4676C48.5411 23.8145 51.9359 23.9819 55.1402 24.9549C58.3445 25.9279 61.2593 27.6764 63.6261 30.0455L67.851 25.8205L69.5948 24.0814L69.5948 69.5586C74.1218 65.891 77.7718 61.2579 80.2778 55.9981C82.7837 50.7382 84.0822 44.9848 84.0783 39.1585Z" fill="#E7E7E7"/>
</svg>
