<svg xmlns="http://www.w3.org/2000/svg" viewBox="0 0 283 283"><defs><style>.cls-1{fill:#fba528;}.cls-2{fill:#1d1d1b;}</style></defs><g id="Camada_2" data-name="Camada 2"><g id="Camada_1-2" data-name="Camada 1"><circle class="cls-1" cx="131.88" cy="151.12" r="131.88"/><path class="cls-2" d="M151.12,0A131.88,131.88,0,1,0,283,131.88,131.88,131.88,0,0,0,151.12,0Zm89.72,221.59q-3.21,3.19-6.59,6.14V81.11L228.4,87l-14.23,14.23a68.54,68.54,0,1,0-48.45,117h.55a68.1,68.1,0,0,0,42.66-15.35,68.64,68.64,0,0,1-67.45,23.88v31.7A126.88,126.88,0,0,1,61.4,42.16,126.88,126.88,0,1,1,240.84,221.59Zm-109.39-72a34.28,34.28,0,1,1,10,24.23h0v0A34.18,34.18,0,0,1,131.45,149.64Z"/></g></g></svg>